<svg width="145" height="137" viewBox="0 0 145 137" fill="none" xmlns="http://www.w3.org/2000/svg">
<path d="M99.1958 57.0756C99.1958 63.3539 94.2239 68.4908 88.1472 68.4908H43.9531C37.8764 68.4908 32.9045 63.3539 32.9045 57.0756V11.4151C32.9045 5.13681 37.8764 0 43.9531 0H88.1472C94.2239 0 99.1958 5.13681 99.1958 11.4151V57.0756Z" fill="#563D7C"/>
<path d="M50.9177 14.8845H69.7111C73.1773 14.8845 75.9611 15.7015 78.0516 17.3466C80.1422 18.9917 81.1929 21.465 81.1929 24.7888C81.1929 26.8033 80.7163 28.5268 79.7631 29.9592C78.8099 31.3917 77.4451 32.5109 75.6686 33.2943V33.4062C78.0516 33.9322 79.8606 35.0961 81.0846 36.8979C82.3086 38.7109 82.926 40.9715 82.926 43.7022C82.926 45.269 82.6552 46.735 82.1136 48.0892C81.572 49.4545 80.7271 50.6296 79.5681 51.6145C78.4091 52.5993 76.936 53.3827 75.127 53.9646C73.3181 54.5466 71.1734 54.8376 68.682 54.8376H50.9177V14.8845ZM57.6877 31.6156H68.7362C70.361 31.6156 71.715 31.1455 72.7982 30.1831C73.8814 29.2206 74.423 27.8553 74.423 26.0647C74.423 24.0502 73.9355 22.6289 72.9606 21.812C71.9858 20.995 70.5776 20.5809 68.7362 20.5809H57.6877V31.6156ZM57.6877 49.13H69.6569C71.715 49.13 73.3181 48.5816 74.4446 47.4737C75.582 46.3769 76.1561 44.8101 76.1561 42.7957C76.1561 40.8148 75.5928 39.304 74.4446 38.2296C73.2964 37.1553 71.715 36.6405 69.6569 36.6405H57.6877V49.13Z" fill="white"/>
<path d="M15.3423 116.502C16.1703 116.682 16.8063 117.042 17.2503 117.582C17.7063 118.11 17.9343 118.794 17.9343 119.634C17.9343 120.714 17.5323 121.548 16.7283 122.136C15.9363 122.712 14.7603 123 13.2003 123H7.40426V110.4H12.8403C14.2443 110.4 15.3303 110.682 16.0983 111.246C16.8783 111.81 17.2683 112.608 17.2683 113.64C17.2683 114.336 17.0943 114.93 16.7463 115.422C16.4103 115.902 15.9423 116.262 15.3423 116.502ZM8.73626 111.498V116.07H12.7503C13.7703 116.07 14.5563 115.878 15.1083 115.494C15.6603 115.098 15.9363 114.528 15.9363 113.784C15.9363 113.04 15.6603 112.476 15.1083 112.092C14.5563 111.696 13.7703 111.498 12.7503 111.498H8.73626ZM13.1823 121.902C14.3103 121.902 15.1623 121.71 15.7383 121.326C16.3143 120.942 16.6023 120.342 16.6023 119.526C16.6023 117.954 15.4623 117.168 13.1823 117.168H8.73626V121.902H13.1823ZM28.9194 123.108C27.6714 123.108 26.5374 122.832 25.5174 122.28C24.5094 121.716 23.7174 120.948 23.1414 119.976C22.5774 119.004 22.2954 117.912 22.2954 116.7C22.2954 115.488 22.5774 114.396 23.1414 113.424C23.7174 112.452 24.5094 111.69 25.5174 111.138C26.5374 110.574 27.6714 110.292 28.9194 110.292C30.1674 110.292 31.2894 110.568 32.2854 111.12C33.2934 111.672 34.0854 112.44 34.6614 113.424C35.2374 114.396 35.5254 115.488 35.5254 116.7C35.5254 117.912 35.2374 119.01 34.6614 119.994C34.0854 120.966 33.2934 121.728 32.2854 122.28C31.2894 122.832 30.1674 123.108 28.9194 123.108ZM28.9194 121.92C29.9154 121.92 30.8154 121.698 31.6194 121.254C32.4234 120.798 33.0534 120.174 33.5094 119.382C33.9654 118.578 34.1934 117.684 34.1934 116.7C34.1934 115.716 33.9654 114.828 33.5094 114.036C33.0534 113.232 32.4234 112.608 31.6194 112.164C30.8154 111.708 29.9154 111.48 28.9194 111.48C27.9234 111.48 27.0174 111.708 26.2014 112.164C25.3974 112.608 24.7614 113.232 24.2934 114.036C23.8374 114.828 23.6094 115.716 23.6094 116.7C23.6094 117.684 23.8374 118.578 24.2934 119.382C24.7614 120.174 25.3974 120.798 26.2014 121.254C27.0174 121.698 27.9234 121.92 28.9194 121.92ZM46.4559 123.108C45.2079 123.108 44.0739 122.832 43.0539 122.28C42.0459 121.716 41.2539 120.948 40.6779 119.976C40.1139 119.004 39.8319 117.912 39.8319 116.7C39.8319 115.488 40.1139 114.396 40.6779 113.424C41.2539 112.452 42.0459 111.69 43.0539 111.138C44.0739 110.574 45.2079 110.292 46.4559 110.292C47.7039 110.292 48.8259 110.568 49.8219 111.12C50.8299 111.672 51.6219 112.44 52.1979 113.424C52.7739 114.396 53.0619 115.488 53.0619 116.7C53.0619 117.912 52.7739 119.01 52.1979 119.994C51.6219 120.966 50.8299 121.728 49.8219 122.28C48.8259 122.832 47.7039 123.108 46.4559 123.108ZM46.4559 121.92C47.4519 121.92 48.3519 121.698 49.1559 121.254C49.9599 120.798 50.5899 120.174 51.0459 119.382C51.5019 118.578 51.7299 117.684 51.7299 116.7C51.7299 115.716 51.5019 114.828 51.0459 114.036C50.5899 113.232 49.9599 112.608 49.1559 112.164C48.3519 111.708 47.4519 111.48 46.4559 111.48C45.4599 111.48 44.5539 111.708 43.7379 112.164C42.9339 112.608 42.2979 113.232 41.8299 114.036C41.3739 114.828 41.1459 115.716 41.1459 116.7C41.1459 117.684 41.3739 118.578 41.8299 119.382C42.2979 120.174 42.9339 120.798 43.7379 121.254C44.5539 121.698 45.4599 121.92 46.4559 121.92ZM60.7565 111.552H56.3285V110.4H66.5165V111.552H62.0885V123H60.7565V111.552ZM74.3619 123.108C73.4259 123.108 72.5259 122.958 71.6619 122.658C70.8099 122.358 70.1499 121.962 69.6819 121.47L70.2039 120.444C70.6599 120.9 71.2659 121.272 72.0219 121.56C72.7779 121.836 73.5579 121.974 74.3619 121.974C75.4899 121.974 76.3359 121.77 76.8999 121.362C77.4639 120.942 77.7459 120.402 77.7459 119.742C77.7459 119.238 77.5899 118.836 77.2779 118.536C76.9779 118.236 76.6059 118.008 76.1619 117.852C75.7179 117.684 75.0999 117.504 74.3079 117.312C73.3599 117.072 72.6039 116.844 72.0399 116.628C71.4759 116.4 70.9899 116.058 70.5819 115.602C70.1859 115.146 69.9879 114.528 69.9879 113.748C69.9879 113.112 70.1559 112.536 70.4919 112.02C70.8279 111.492 71.3439 111.072 72.0399 110.76C72.7359 110.448 73.5999 110.292 74.6319 110.292C75.3519 110.292 76.0539 110.394 76.7379 110.598C77.4339 110.79 78.0339 111.06 78.5379 111.408L78.0879 112.47C77.5599 112.122 76.9959 111.864 76.3959 111.696C75.7959 111.516 75.2079 111.426 74.6319 111.426C73.5279 111.426 72.6939 111.642 72.1299 112.074C71.5779 112.494 71.3019 113.04 71.3019 113.712C71.3019 114.216 71.4519 114.624 71.7519 114.936C72.0639 115.236 72.4479 115.47 72.9039 115.638C73.3719 115.794 73.9959 115.968 74.7759 116.16C75.6999 116.388 76.4439 116.616 77.0079 116.844C77.5839 117.06 78.0699 117.396 78.4659 117.852C78.8619 118.296 79.0599 118.902 79.0599 119.67C79.0599 120.306 78.8859 120.888 78.5379 121.416C78.2019 121.932 77.6799 122.346 76.9719 122.658C76.2639 122.958 75.3939 123.108 74.3619 123.108ZM86.6712 111.552H82.2432V110.4H92.4312V111.552H88.0032V123H86.6712V111.552ZM105.6 123L102.72 118.95C102.396 118.986 102.06 119.004 101.712 119.004H98.328V123H96.996V110.4H101.712C103.32 110.4 104.58 110.784 105.492 111.552C106.404 112.32 106.86 113.376 106.86 114.72C106.86 115.704 106.608 116.538 106.104 117.222C105.612 117.894 104.904 118.38 103.98 118.68L107.058 123H105.6ZM101.676 117.87C102.924 117.87 103.878 117.594 104.538 117.042C105.198 116.49 105.528 115.716 105.528 114.72C105.528 113.7 105.198 112.92 104.538 112.38C103.878 111.828 102.924 111.552 101.676 111.552H98.328V117.87H101.676ZM120.343 119.634H113.323L111.811 123H110.425L116.185 110.4H117.499L123.259 123H121.855L120.343 119.634ZM119.857 118.554L116.833 111.786L113.809 118.554H119.857ZM132.496 110.4C134.104 110.4 135.364 110.784 136.276 111.552C137.188 112.32 137.644 113.376 137.644 114.72C137.644 116.064 137.188 117.12 136.276 117.888C135.364 118.644 134.104 119.022 132.496 119.022H129.112V123H127.78V110.4H132.496ZM132.46 117.852C133.708 117.852 134.662 117.582 135.322 117.042C135.982 116.49 136.312 115.716 136.312 114.72C136.312 113.7 135.982 112.92 135.322 112.38C134.662 111.828 133.708 111.552 132.46 111.552H129.112V117.852H132.46Z" fill="black"/>
<path d="M99.1958 57.0756C99.1958 63.3539 94.2239 68.4908 88.1472 68.4908H43.9531C37.8764 68.4908 32.9045 63.3539 32.9045 57.0756V11.4151C32.9045 5.13681 37.8764 0 43.9531 0H88.1472C94.2239 0 99.1958 5.13681 99.1958 11.4151V57.0756Z" fill="#563D7C"/>
<path d="M50.9177 14.8845H69.7111C73.1773 14.8845 75.9611 15.7015 78.0516 17.3466C80.1422 18.9917 81.1929 21.465 81.1929 24.7888C81.1929 26.8033 80.7163 28.5268 79.7631 29.9592C78.8099 31.3917 77.4451 32.5109 75.6686 33.2943V33.4062C78.0516 33.9322 79.8606 35.0961 81.0846 36.8979C82.3086 38.7109 82.926 40.9715 82.926 43.7022C82.926 45.269 82.6552 46.735 82.1136 48.0892C81.572 49.4545 80.7271 50.6296 79.5681 51.6145C78.4091 52.5993 76.936 53.3827 75.127 53.9646C73.3181 54.5466 71.1734 54.8376 68.682 54.8376H50.9177V14.8845ZM57.6877 31.6156H68.7362C70.361 31.6156 71.715 31.1455 72.7982 30.1831C73.8814 29.2206 74.423 27.8553 74.423 26.0647C74.423 24.0502 73.9355 22.6289 72.9606 21.812C71.9858 20.995 70.5776 20.5809 68.7362 20.5809H57.6877V31.6156ZM57.6877 49.13H69.6569C71.715 49.13 73.3181 48.5816 74.4446 47.4737C75.582 46.3769 76.1561 44.8101 76.1561 42.7957C76.1561 40.8148 75.5928 39.304 74.4446 38.2296C73.2964 37.1553 71.715 36.6405 69.6569 36.6405H57.6877V49.13Z" fill="white"/>
</svg>
