<svg width="145" height="137" viewBox="0 0 145 137" fill="none" xmlns="http://www.w3.org/2000/svg">
<path d="M53.8512 120.793C52.6032 120.793 51.4752 120.517 50.4672 119.965C49.4712 119.413 48.6852 118.651 48.1092 117.679C47.5452 116.695 47.2632 115.597 47.2632 114.385C47.2632 113.173 47.5452 112.081 48.1092 111.109C48.6852 110.125 49.4772 109.357 50.4852 108.805C51.4932 108.253 52.6212 107.977 53.8692 107.977C54.8052 107.977 55.6692 108.133 56.4612 108.445C57.2532 108.757 57.9252 109.213 58.4772 109.813L57.6312 110.659C56.6472 109.663 55.4052 109.165 53.9052 109.165C52.9092 109.165 52.0032 109.393 51.1872 109.849C50.3712 110.305 49.7292 110.929 49.2612 111.721C48.8052 112.513 48.5772 113.401 48.5772 114.385C48.5772 115.369 48.8052 116.257 49.2612 117.049C49.7292 117.841 50.3712 118.465 51.1872 118.921C52.0032 119.377 52.9092 119.605 53.9052 119.605C55.4172 119.605 56.6592 119.101 57.6312 118.093L58.4772 118.939C57.9252 119.539 57.2472 120.001 56.4432 120.325C55.6512 120.637 54.7872 120.793 53.8512 120.793ZM67.1572 120.793C66.2212 120.793 65.3212 120.643 64.4572 120.343C63.6052 120.043 62.9452 119.647 62.4772 119.155L62.9992 118.129C63.4552 118.585 64.0612 118.957 64.8172 119.245C65.5732 119.521 66.3532 119.659 67.1572 119.659C68.2852 119.659 69.1312 119.455 69.6952 119.047C70.2592 118.627 70.5412 118.087 70.5412 117.427C70.5412 116.923 70.3852 116.521 70.0732 116.221C69.7732 115.921 69.4012 115.693 68.9572 115.537C68.5132 115.369 67.8952 115.189 67.1032 114.997C66.1552 114.757 65.3992 114.529 64.8352 114.313C64.2712 114.085 63.7852 113.743 63.3772 113.287C62.9812 112.831 62.7832 112.213 62.7832 111.433C62.7832 110.797 62.9512 110.221 63.2872 109.705C63.6232 109.177 64.1392 108.757 64.8352 108.445C65.5312 108.133 66.3952 107.977 67.4272 107.977C68.1472 107.977 68.8492 108.079 69.5332 108.283C70.2292 108.475 70.8292 108.745 71.3332 109.093L70.8832 110.155C70.3552 109.807 69.7912 109.549 69.1912 109.381C68.5912 109.201 68.0032 109.111 67.4272 109.111C66.3232 109.111 65.4892 109.327 64.9252 109.759C64.3732 110.179 64.0972 110.725 64.0972 111.397C64.0972 111.901 64.2472 112.309 64.5472 112.621C64.8592 112.921 65.2432 113.155 65.6992 113.323C66.1672 113.479 66.7912 113.653 67.5712 113.845C68.4952 114.073 69.2392 114.301 69.8032 114.529C70.3792 114.745 70.8652 115.081 71.2612 115.537C71.6572 115.981 71.8552 116.587 71.8552 117.355C71.8552 117.991 71.6812 118.573 71.3332 119.101C70.9972 119.617 70.4752 120.031 69.7672 120.343C69.0592 120.643 68.1892 120.793 67.1572 120.793ZM80.6683 120.793C79.7323 120.793 78.8323 120.643 77.9683 120.343C77.1163 120.043 76.4563 119.647 75.9883 119.155L76.5103 118.129C76.9663 118.585 77.5723 118.957 78.3283 119.245C79.0843 119.521 79.8643 119.659 80.6683 119.659C81.7963 119.659 82.6423 119.455 83.2063 119.047C83.7703 118.627 84.0523 118.087 84.0523 117.427C84.0523 116.923 83.8963 116.521 83.5843 116.221C83.2843 115.921 82.9123 115.693 82.4683 115.537C82.0243 115.369 81.4063 115.189 80.6143 114.997C79.6663 114.757 78.9103 114.529 78.3463 114.313C77.7823 114.085 77.2963 113.743 76.8883 113.287C76.4923 112.831 76.2943 112.213 76.2943 111.433C76.2943 110.797 76.4623 110.221 76.7983 109.705C77.1343 109.177 77.6503 108.757 78.3463 108.445C79.0423 108.133 79.9063 107.977 80.9383 107.977C81.6583 107.977 82.3603 108.079 83.0443 108.283C83.7403 108.475 84.3403 108.745 84.8443 109.093L84.3943 110.155C83.8663 109.807 83.3023 109.549 82.7023 109.381C82.1023 109.201 81.5143 109.111 80.9383 109.111C79.8343 109.111 79.0003 109.327 78.4363 109.759C77.8843 110.179 77.6083 110.725 77.6083 111.397C77.6083 111.901 77.7583 112.309 78.0583 112.621C78.3703 112.921 78.7543 113.155 79.2103 113.323C79.6783 113.479 80.3023 113.653 81.0823 113.845C82.0063 114.073 82.7503 114.301 83.3143 114.529C83.8903 114.745 84.3763 115.081 84.7723 115.537C85.1683 115.981 85.3663 116.587 85.3663 117.355C85.3663 117.991 85.1923 118.573 84.8443 119.101C84.5083 119.617 83.9863 120.031 83.2783 120.343C82.5703 120.643 81.7003 120.793 80.6683 120.793ZM93.7327 113.485C95.0527 113.557 96.0547 113.917 96.7387 114.565C97.4347 115.201 97.7827 116.035 97.7827 117.067C97.7827 117.787 97.6087 118.429 97.2607 118.993C96.9127 119.545 96.3967 119.983 95.7127 120.307C95.0287 120.631 94.1947 120.793 93.2107 120.793C92.2987 120.793 91.4347 120.649 90.6187 120.361C89.8147 120.061 89.1667 119.665 88.6747 119.173L89.3047 118.147C89.7247 118.579 90.2827 118.933 90.9787 119.209C91.6747 119.473 92.4187 119.605 93.2107 119.605C94.2427 119.605 95.0407 119.383 95.6047 118.939C96.1687 118.483 96.4507 117.859 96.4507 117.067C96.4507 116.287 96.1687 115.675 95.6047 115.231C95.0407 114.787 94.1887 114.565 93.0487 114.565H92.1487V113.611L95.6407 109.237H89.1967V108.085H97.2967V109.003L93.7327 113.485Z" fill="black"/>
<path d="M39.1785 0L45.0256 64.0345L71.2806 71.1494L97.5265 64.0389L103.383 0H39.1785Z" fill="#2196F3"/>
<path d="M90.8809 20.94L90.1426 28.9843L87.9137 53.0996L71.2802 57.5598L71.2665 57.5642L54.6421 53.0996L53.4819 40.4883H61.6266L62.232 47.0296L71.2711 49.3954L71.2756 49.3909L80.3285 47.0252L81.5621 36.126L53.092 36.2016L52.2849 28.7487L82.2454 28.4062L82.8508 20.4286L51.4823 20.5131L50.955 13.0913H71.2802H91.6055L90.8809 20.94Z" fill="#FAFAFA"/>
<path d="M39.1785 0L45.0256 64.0345L71.2806 71.1494L97.5265 64.0389L103.383 0H39.1785Z" fill="#2196F3"/>
<path d="M90.8809 20.94L90.1426 28.9843L87.9137 53.0996L71.2802 57.5598L71.2665 57.5642L54.6421 53.0996L53.4819 40.4883H61.6266L62.232 47.0296L71.2711 49.3954L71.2756 49.3909L80.3285 47.0252L81.5621 36.126L53.092 36.2016L52.2849 28.7487L82.2454 28.4062L82.8508 20.4286L51.4823 20.5131L50.955 13.0913H71.2802H91.6055L90.8809 20.94Z" fill="#FAFAFA"/>
</svg>
