<svg width="145" height="137" viewBox="0 0 145 137" fill="none" xmlns="http://www.w3.org/2000/svg">
<path d="M40.5914 120.719V125.669H47.1074V126.821H40.5914V132.167H39.2594V119.567H47.8994V120.719H40.5914ZM53.0868 119.567H54.4188V132.167H53.0868V119.567ZM69.8293 125.867H71.1073V130.673C70.5193 131.189 69.8233 131.585 69.0193 131.861C68.2153 132.137 67.3693 132.275 66.4813 132.275C65.2213 132.275 64.0873 131.999 63.0793 131.447C62.0713 130.895 61.2793 130.133 60.7033 129.161C60.1273 128.177 59.8393 127.079 59.8393 125.867C59.8393 124.655 60.1273 123.563 60.7033 122.591C61.2793 121.607 62.0713 120.839 63.0793 120.287C64.0873 119.735 65.2273 119.459 66.4993 119.459C67.4593 119.459 68.3413 119.615 69.1453 119.927C69.9493 120.227 70.6273 120.677 71.1793 121.277L70.3513 122.123C69.3553 121.139 68.0893 120.647 66.5533 120.647C65.5333 120.647 64.6093 120.875 63.7813 121.331C62.9653 121.775 62.3233 122.399 61.8553 123.203C61.3873 123.995 61.1533 124.883 61.1533 125.867C61.1533 126.851 61.3873 127.739 61.8553 128.531C62.3233 129.323 62.9653 129.947 63.7813 130.403C64.5973 130.859 65.5153 131.087 66.5353 131.087C67.8313 131.087 68.9293 130.763 69.8293 130.115V125.867ZM90.4 119.567V132.167H89.122V122.087L84.172 130.565H83.542L78.592 122.141V132.167H77.314V119.567H78.412L83.884 128.909L89.302 119.567H90.4ZM104.844 128.801H97.8243L96.3123 132.167H94.9263L100.686 119.567H102L107.76 132.167H106.356L104.844 128.801ZM104.358 127.721L101.334 120.953L98.3103 127.721H104.358Z" fill="black"/>
<path d="M102 41C102 48.176 95.504 54 87.5 54C79.496 54 73 48.176 73 41C73 33.824 79.496 28 87.5 28C95.504 28 102 33.824 102 41Z" fill="#1ABCFE"/>
<path d="M73 0H87.5C95.504 0 102 6.272 102 14C102 21.728 95.504 28 87.5 28H73V0Z" fill="#FF7262"/>
<path d="M45 14C45 6.272 51.272 0 59 0H73V28H59C51.272 28 45 21.728 45 14Z" fill="#F24E1E"/>
<path d="M45 41C45 33.824 51.272 28 59 28H73V54H59C51.272 54 45 48.176 45 41Z" fill="#A259FF"/>
<path d="M59 81C66.728 81 73 74.952 73 67.5V54H59C51.272 54 45 60.048 45 67.5C45 74.952 51.272 81 59 81Z" fill="#0ACF83"/>
<path d="M102 41C102 48.176 95.504 54 87.5 54C79.496 54 73 48.176 73 41C73 33.824 79.496 28 87.5 28C95.504 28 102 33.824 102 41Z" fill="#1ABCFE"/>
<path d="M73 0H87.5C95.504 0 102 6.272 102 14C102 21.728 95.504 28 87.5 28H73V0Z" fill="#FF7262"/>
<path d="M45 14C45 6.272 51.272 0 59 0H73V28H59C51.272 28 45 21.728 45 14Z" fill="#F24E1E"/>
<path d="M45 41C45 33.824 51.272 28 59 28H73V54H59C51.272 54 45 48.176 45 41Z" fill="#A259FF"/>
<path d="M59 81C66.728 81 73 74.952 73 67.5V54H59C51.272 54 45 60.048 45 67.5C45 74.952 51.272 81 59 81Z" fill="#0ACF83"/>
</svg>
