<svg width="145" height="137" viewBox="0 0 145 137" fill="none" xmlns="http://www.w3.org/2000/svg">
<path d="M48.7259 108.4V121H47.4119V115.186H39.5279V121H38.1959V108.4H39.5279V114.016H47.4119V108.4H48.7259ZM57.7233 109.552H53.2953V108.4H63.4833V109.552H59.0553V121H57.7233V109.552ZM81.1341 108.4V121H79.8561V110.92L74.9061 119.398H74.2761L69.3261 110.974V121H68.0481V108.4H69.1461L74.6181 117.742L80.0361 108.4H81.1341ZM87.6763 108.4H89.0083V119.848H96.0643V121H87.6763V108.4ZM102.909 113.566C104.733 113.566 106.059 113.896 106.887 114.556C107.727 115.204 108.147 116.116 108.147 117.292C108.147 118.024 107.973 118.678 107.625 119.254C107.289 119.83 106.779 120.286 106.095 120.622C105.411 120.946 104.571 121.108 103.575 121.108C102.675 121.108 101.817 120.964 101.001 120.676C100.197 120.376 99.5488 119.98 99.0568 119.488L99.6868 118.462C100.107 118.894 100.659 119.248 101.343 119.524C102.027 119.788 102.765 119.92 103.557 119.92C104.601 119.92 105.405 119.686 105.969 119.218C106.545 118.75 106.833 118.126 106.833 117.346C106.833 116.482 106.509 115.828 105.861 115.384C105.225 114.94 104.145 114.718 102.621 114.718H99.9388L100.587 108.4H107.481V109.552H101.721L101.289 113.566H102.909Z" fill="black"/>
<path d="M41.3469 0L47.2703 64.0345L73.8676 71.1494L100.456 64.0389L106.388 0H41.3469Z" fill="#FF5722"/>
<path d="M93.5428 20.9405H73.8678H62.3694L63.1127 28.9848H73.8678H92.7995L90.5648 53.1044L73.8678 57.5646L73.8538 57.569L57.1661 53.1044L56 40.4887H64.1766L64.7852 47.0345L73.8585 49.3957L73.8678 49.3913L82.9503 47.03L83.8981 36.8423H73.8678H55.6655L53.4634 13.0918H73.8678H94.2675L93.5428 20.9405Z" fill="#FAFAFA"/>
<path d="M40.3469 0L46.2703 64.0345L72.8676 71.1494L99.4556 64.0389L105.388 0H40.3469Z" fill="#FF5722"/>
<path d="M92.5428 20.9405H72.8678H61.3694L62.1127 28.9848H72.8678H91.7995L89.5648 53.1044L72.8678 57.5646L72.8538 57.569L56.1661 53.1044L55 40.4887H63.1766L63.7852 47.0345L72.8585 49.3957L72.8678 49.3913L81.9503 47.03L82.8981 36.8423H72.8678H54.6655L52.4634 13.0918H72.8678H93.2675L92.5428 20.9405Z" fill="#FAFAFA"/>
</svg>
