<svg width="145" height="137" viewBox="0 0 145 137" fill="none" xmlns="http://www.w3.org/2000/svg">
<path d="M37.0291 0H105.257V71.614H37.0291V0Z" fill="#F7DF1E"/>
<path d="M54.9689 59.8459L60.1902 56.5292C61.1975 58.4038 62.1138 59.9899 64.3117 59.9899C66.4185 59.9899 67.7468 59.1249 67.7468 55.7601V32.8777H74.1586V55.8553C74.1586 62.8257 70.2659 65.9985 64.5866 65.9985C59.4574 65.9985 56.4801 63.2102 54.9688 59.8453" fill="black"/>
<path d="M77.641 59.1246L82.8616 55.9519C84.2359 58.3077 86.0221 60.0381 89.182 60.0381C91.8387 60.0381 93.5328 58.6439 93.5328 56.721C93.5328 54.4136 91.7926 53.5963 88.8614 52.2507L87.2589 51.5291C82.6329 49.4624 79.5643 46.8666 79.5643 41.3863C79.5643 36.3388 83.2281 32.4929 88.9532 32.4929C93.0294 32.4929 95.9605 33.9833 98.067 37.8771L93.0748 41.242C91.9756 39.1751 90.7852 38.358 88.9533 38.358C87.0755 38.358 85.8847 39.6078 85.8847 41.242C85.8847 43.261 87.0755 44.0785 89.8232 45.3284L91.426 46.0494C96.8761 48.5012 99.9448 51.0007 99.9448 56.6249C99.9448 62.6823 95.4107 65.9989 89.3196 65.9989C83.3658 65.9989 79.5186 63.0186 77.6411 59.1246" fill="black"/>
<path d="M37.0291 0H105.257V71.614H37.0291V0Z" fill="#F7DF1E"/>
<path d="M54.9689 59.8459L60.1902 56.5292C61.1975 58.4038 62.1138 59.9899 64.3117 59.9899C66.4185 59.9899 67.7468 59.1249 67.7468 55.7601V32.8777H74.1586V55.8553C74.1586 62.8257 70.2659 65.9985 64.5866 65.9985C59.4574 65.9985 56.4801 63.2102 54.9688 59.8453" fill="black"/>
<path d="M77.641 59.1246L82.8616 55.9519C84.2359 58.3077 86.0221 60.0381 89.182 60.0381C91.8387 60.0381 93.5328 58.6439 93.5328 56.721C93.5328 54.4136 91.7926 53.5963 88.8614 52.2507L87.2589 51.5291C82.6329 49.4624 79.5643 46.8666 79.5643 41.3863C79.5643 36.3388 83.2281 32.4929 88.9532 32.4929C93.0294 32.4929 95.9605 33.9833 98.067 37.8771L93.0748 41.242C91.9756 39.1751 90.7852 38.358 88.9533 38.358C87.0755 38.358 85.8847 39.6078 85.8847 41.242C85.8847 43.261 87.0755 44.0785 89.8232 45.3284L91.426 46.0494C96.8761 48.5012 99.9448 51.0007 99.9448 56.6249C99.9448 62.6823 95.4107 65.9989 89.3196 65.9989C83.3658 65.9989 79.5186 63.0186 77.6411 59.1246" fill="black"/>
<path d="M9.46847 122.108C8.74847 122.108 8.08247 121.952 7.47047 121.64C6.85847 121.328 6.36047 120.884 5.97647 120.308L6.76847 119.408C7.46447 120.44 8.37047 120.956 9.48647 120.956C11.0465 120.956 11.8265 120.032 11.8265 118.184V110.552H7.21847V109.4H13.1405V118.13C13.1405 119.45 12.8285 120.446 12.2045 121.118C11.5925 121.778 10.6805 122.108 9.46847 122.108ZM27.2112 118.634H20.1912L18.6792 122H17.2932L23.0532 109.4H24.3672L30.1272 122H28.7232L27.2112 118.634ZM26.7252 117.554L23.7012 110.786L20.6772 117.554H26.7252ZM44.474 109.4L38.894 122H37.58L32 109.4H33.44L38.264 120.344L43.124 109.4H44.474ZM56.2548 118.634H49.2348L47.7228 122H46.3368L52.0968 109.4H53.4108L59.1708 122H57.7668L56.2548 118.634ZM55.7688 117.554L52.7448 110.786L49.7208 117.554H55.7688ZM67.166 122.108C66.23 122.108 65.33 121.958 64.466 121.658C63.614 121.358 62.954 120.962 62.486 120.47L63.008 119.444C63.464 119.9 64.07 120.272 64.826 120.56C65.582 120.836 66.362 120.974 67.166 120.974C68.294 120.974 69.14 120.77 69.704 120.362C70.268 119.942 70.55 119.402 70.55 118.742C70.55 118.238 70.394 117.836 70.082 117.536C69.782 117.236 69.41 117.008 68.966 116.852C68.522 116.684 67.904 116.504 67.112 116.312C66.164 116.072 65.408 115.844 64.844 115.628C64.28 115.4 63.794 115.058 63.386 114.602C62.99 114.146 62.792 113.528 62.792 112.748C62.792 112.112 62.96 111.536 63.296 111.02C63.632 110.492 64.148 110.072 64.844 109.76C65.54 109.448 66.404 109.292 67.436 109.292C68.156 109.292 68.858 109.394 69.542 109.598C70.238 109.79 70.838 110.06 71.342 110.408L70.892 111.47C70.364 111.122 69.8 110.864 69.2 110.696C68.6 110.516 68.012 110.426 67.436 110.426C66.332 110.426 65.498 110.642 64.934 111.074C64.382 111.494 64.106 112.04 64.106 112.712C64.106 113.216 64.256 113.624 64.556 113.936C64.868 114.236 65.252 114.47 65.708 114.638C66.176 114.794 66.8 114.968 67.58 115.16C68.504 115.388 69.248 115.616 69.812 115.844C70.388 116.06 70.874 116.396 71.27 116.852C71.666 117.296 71.864 117.902 71.864 118.67C71.864 119.306 71.69 119.888 71.342 120.416C71.006 120.932 70.484 121.346 69.776 121.658C69.068 121.958 68.198 122.108 67.166 122.108ZM82.675 122.108C81.427 122.108 80.299 121.832 79.291 121.28C78.295 120.728 77.509 119.966 76.933 118.994C76.369 118.01 76.087 116.912 76.087 115.7C76.087 114.488 76.369 113.396 76.933 112.424C77.509 111.44 78.301 110.672 79.309 110.12C80.317 109.568 81.445 109.292 82.693 109.292C83.629 109.292 84.493 109.448 85.285 109.76C86.077 110.072 86.749 110.528 87.301 111.128L86.455 111.974C85.471 110.978 84.229 110.48 82.729 110.48C81.733 110.48 80.827 110.708 80.011 111.164C79.195 111.62 78.553 112.244 78.085 113.036C77.629 113.828 77.401 114.716 77.401 115.7C77.401 116.684 77.629 117.572 78.085 118.364C78.553 119.156 79.195 119.78 80.011 120.236C80.827 120.692 81.733 120.92 82.729 120.92C84.241 120.92 85.483 120.416 86.455 119.408L87.301 120.254C86.749 120.854 86.071 121.316 85.267 121.64C84.475 121.952 83.611 122.108 82.675 122.108ZM101.181 122L98.3014 117.95C97.9774 117.986 97.6414 118.004 97.2934 118.004H93.9094V122H92.5774V109.4H97.2934C98.9014 109.4 100.161 109.784 101.073 110.552C101.985 111.32 102.441 112.376 102.441 113.72C102.441 114.704 102.189 115.538 101.685 116.222C101.193 116.894 100.485 117.38 99.5614 117.68L102.639 122H101.181ZM97.2574 116.87C98.5054 116.87 99.4594 116.594 100.119 116.042C100.779 115.49 101.109 114.716 101.109 113.72C101.109 112.7 100.779 111.92 100.119 111.38C99.4594 110.828 98.5054 110.552 97.2574 110.552H93.9094V116.87H97.2574ZM108.022 109.4H109.354V122H108.022V109.4ZM120.606 109.4C122.214 109.4 123.474 109.784 124.386 110.552C125.298 111.32 125.754 112.376 125.754 113.72C125.754 115.064 125.298 116.12 124.386 116.888C123.474 117.644 122.214 118.022 120.606 118.022H117.222V122H115.89V109.4H120.606ZM120.57 116.852C121.818 116.852 122.772 116.582 123.432 116.042C124.092 115.49 124.422 114.716 124.422 113.72C124.422 112.7 124.092 111.92 123.432 111.38C122.772 110.828 121.818 110.552 120.57 110.552H117.222V116.852H120.57ZM133.098 110.552H128.67V109.4H138.858V110.552H134.43V122H133.098V110.552Z" fill="black"/>
</svg>
