<svg width="145" height="138" viewBox="0 0 145 138" fill="none" xmlns="http://www.w3.org/2000/svg">
<path d="M25.3704 119.4H26.7024V130.848H33.7584V132H25.3704V119.4ZM46.344 128.634H39.324L37.812 132H36.426L42.186 119.4H43.5L49.26 132H47.856L46.344 128.634ZM45.858 127.554L42.834 120.786L39.81 127.554H45.858ZM62.3852 132L59.5052 127.95C59.1812 127.986 58.8452 128.004 58.4972 128.004H55.1132V132H53.7812V119.4H58.4972C60.1052 119.4 61.3652 119.784 62.2772 120.552C63.1892 121.32 63.6452 122.376 63.6452 123.72C63.6452 124.704 63.3932 125.538 62.8892 126.222C62.3972 126.894 61.6892 127.38 60.7652 127.68L63.8432 132H62.3852ZM58.4612 126.87C59.7092 126.87 60.6632 126.594 61.3232 126.042C61.9832 125.49 62.3132 124.716 62.3132 123.72C62.3132 122.7 61.9832 121.92 61.3232 121.38C60.6632 120.828 59.7092 120.552 58.4612 120.552H55.1132V126.87H58.4612ZM77.1278 128.634H70.1078L68.5958 132H67.2098L72.9698 119.4H74.2838L80.0438 132H78.6398L77.1278 128.634ZM76.6418 127.554L73.6178 120.786L70.5938 127.554H76.6418ZM94.3906 119.4L88.8106 132H87.4966L81.9166 119.4H83.3566L88.1806 130.344L93.0406 119.4H94.3906ZM107.566 130.848V132H98.6561V119.4H107.296V120.552H99.9881V125.034H106.504V126.168H99.9881V130.848H107.566ZM113.134 119.4H114.466V130.848H121.522V132H113.134V119.4Z" fill="black"/>
<path fill-rule="evenodd" clip-rule="evenodd" d="M106.962 15.8358C106.987 15.9292 107 16.0254 107 16.122V31.1474C107 31.3402 106.949 31.5296 106.852 31.6965C106.756 31.8634 106.617 32.0018 106.449 32.0977L93.838 39.3584V53.7497C93.838 54.1413 93.6298 54.5029 93.2902 54.7001L66.9647 69.8541C66.9045 69.8883 66.8387 69.9102 66.773 69.9335C66.7483 69.9417 66.7251 69.9568 66.699 69.9637C66.515 70.0121 66.3216 70.0121 66.1376 69.9637C66.1074 69.9554 66.08 69.939 66.0513 69.928C65.991 69.9061 65.928 69.887 65.8705 69.8541L39.5505 54.7001C39.3833 54.604 39.2444 54.4656 39.1477 54.2987C39.0511 54.1319 39.0001 53.9425 39 53.7497V8.67375C39 8.57515 39.0137 8.47929 39.0383 8.38617C39.0466 8.35467 39.0657 8.32592 39.0767 8.29442C39.0972 8.2369 39.1164 8.17802 39.1465 8.12461C39.1671 8.08901 39.1972 8.06025 39.2219 8.02738C39.2534 7.98356 39.2821 7.93837 39.3191 7.90003C39.3506 7.86853 39.3917 7.84525 39.4273 7.81786C39.467 7.78499 39.5026 7.74939 39.5478 7.72337H39.5492L52.7098 0.146352C52.8765 0.0504657 53.0654 0 53.2576 0C53.4499 0 53.6388 0.0504657 53.8054 0.146352L66.9661 7.72337H66.9688C67.0126 7.75076 67.0496 7.78499 67.0893 7.81649C67.1249 7.84388 67.1647 7.86853 67.1962 7.89866C67.2345 7.93837 67.2619 7.98356 67.2948 8.02738C67.318 8.06025 67.3495 8.08901 67.3687 8.12461C67.4002 8.17939 67.418 8.2369 67.4399 8.29442C67.4509 8.32592 67.4701 8.35467 67.4783 8.38754C67.5035 8.48086 67.5164 8.57708 67.5166 8.67375V36.8277L78.4834 30.5133V16.1207C78.4834 16.0248 78.4971 15.9276 78.5217 15.8358C78.5313 15.803 78.5491 15.7742 78.5601 15.7427C78.582 15.6852 78.6012 15.6263 78.6313 15.5729C78.6518 15.5373 78.682 15.5085 78.7052 15.4757C78.7381 15.4319 78.7655 15.3867 78.8038 15.3483C78.8353 15.3168 78.8751 15.2935 78.9107 15.2662C78.9517 15.2333 78.9874 15.1977 79.0312 15.1717H79.0325L92.1946 7.59464C92.3612 7.49862 92.5501 7.44808 92.7424 7.44808C92.9347 7.44808 93.1236 7.49862 93.2902 7.59464L106.451 15.1717C106.497 15.1991 106.533 15.2333 106.574 15.2648C106.608 15.2922 106.648 15.3168 106.68 15.3469C106.718 15.3867 106.745 15.4319 106.778 15.4757C106.803 15.5085 106.833 15.5373 106.852 15.5729C106.884 15.6263 106.901 15.6852 106.923 15.7427C106.936 15.7742 106.953 15.803 106.962 15.8358V15.8358ZM104.806 30.5133V18.0187L100.201 20.6699L93.838 24.3331V36.8277L104.807 30.5133H104.806ZM91.6454 53.1156V40.6128L85.3869 44.187L67.5152 54.3865V67.0071L91.6454 53.1156ZM41.1939 10.5704V53.1156L65.3213 67.0057V54.3878L52.7167 47.2545L52.7126 47.2518L52.7071 47.249C52.6646 47.2244 52.629 47.1888 52.5893 47.1586C52.5551 47.1313 52.5154 47.1093 52.4852 47.0792L52.4825 47.0751C52.4469 47.0409 52.4222 46.9984 52.3921 46.9601C52.3647 46.9231 52.3319 46.8916 52.3099 46.8533L52.3086 46.8492C52.2839 46.8081 52.2689 46.7588 52.2511 46.7122C52.2333 46.6711 52.21 46.6328 52.199 46.589V46.5876C52.1853 46.5356 52.1826 46.4808 52.1771 46.4274C52.1716 46.3863 52.1607 46.3452 52.1607 46.3041V16.8848L45.7995 13.2202L41.1939 10.5718V10.5704ZM53.259 2.36208L42.2936 8.67375L53.2563 14.9854L64.2203 8.67238L53.2563 2.36208H53.259ZM58.9615 41.7522L65.3227 38.0903V10.5704L60.7172 13.2216L54.3546 16.8848V44.4047L58.9615 41.7522ZM92.7424 9.81037L81.7783 16.122L92.7424 22.4337L103.705 16.1207L92.7424 9.81037ZM91.6454 24.3331L85.2828 20.6699L80.6773 18.0187V30.5133L87.0385 34.1751L91.6454 36.8277V24.3331ZM66.4169 52.4898L82.4987 43.3092L90.5375 38.7216L79.5817 32.4141L66.9675 39.6761L55.4707 46.2945L66.4169 52.4898Z" fill="#FF2D20"/>
<path fill-rule="evenodd" clip-rule="evenodd" d="M106.962 15.8358C106.987 15.9292 107 16.0254 107 16.122V31.1474C107 31.3402 106.949 31.5296 106.852 31.6965C106.756 31.8634 106.617 32.0018 106.449 32.0977L93.838 39.3584V53.7497C93.838 54.1413 93.6298 54.5029 93.2902 54.7001L66.9647 69.8541C66.9045 69.8883 66.8387 69.9102 66.773 69.9335C66.7483 69.9417 66.7251 69.9568 66.699 69.9637C66.515 70.0121 66.3216 70.0121 66.1376 69.9637C66.1074 69.9554 66.08 69.939 66.0513 69.928C65.991 69.9061 65.928 69.887 65.8705 69.8541L39.5505 54.7001C39.3833 54.604 39.2444 54.4656 39.1477 54.2987C39.0511 54.1319 39.0001 53.9425 39 53.7497V8.67375C39 8.57515 39.0137 8.47929 39.0383 8.38617C39.0466 8.35467 39.0657 8.32592 39.0767 8.29442C39.0972 8.2369 39.1164 8.17802 39.1465 8.12461C39.1671 8.08901 39.1972 8.06025 39.2219 8.02738C39.2534 7.98356 39.2821 7.93837 39.3191 7.90003C39.3506 7.86853 39.3917 7.84525 39.4273 7.81786C39.467 7.78499 39.5026 7.74939 39.5478 7.72337H39.5492L52.7098 0.146352C52.8765 0.0504657 53.0654 0 53.2576 0C53.4499 0 53.6388 0.0504657 53.8054 0.146352L66.9661 7.72337H66.9688C67.0126 7.75076 67.0496 7.78499 67.0893 7.81649C67.1249 7.84388 67.1647 7.86853 67.1962 7.89866C67.2345 7.93837 67.2619 7.98356 67.2948 8.02738C67.318 8.06025 67.3495 8.08901 67.3687 8.12461C67.4002 8.17939 67.418 8.2369 67.4399 8.29442C67.4509 8.32592 67.4701 8.35467 67.4783 8.38754C67.5035 8.48086 67.5164 8.57708 67.5166 8.67375V36.8277L78.4834 30.5133V16.1207C78.4834 16.0248 78.4971 15.9276 78.5217 15.8358C78.5313 15.803 78.5491 15.7742 78.5601 15.7427C78.582 15.6852 78.6012 15.6263 78.6313 15.5729C78.6518 15.5373 78.682 15.5085 78.7052 15.4757C78.7381 15.4319 78.7655 15.3867 78.8038 15.3483C78.8353 15.3168 78.8751 15.2935 78.9107 15.2662C78.9517 15.2333 78.9874 15.1977 79.0312 15.1717H79.0325L92.1946 7.59464C92.3612 7.49862 92.5501 7.44808 92.7424 7.44808C92.9347 7.44808 93.1236 7.49862 93.2902 7.59464L106.451 15.1717C106.497 15.1991 106.533 15.2333 106.574 15.2648C106.608 15.2922 106.648 15.3168 106.68 15.3469C106.718 15.3867 106.745 15.4319 106.778 15.4757C106.803 15.5085 106.833 15.5373 106.852 15.5729C106.884 15.6263 106.901 15.6852 106.923 15.7427C106.936 15.7742 106.953 15.803 106.962 15.8358V15.8358ZM104.806 30.5133V18.0187L100.201 20.6699L93.838 24.3331V36.8277L104.807 30.5133H104.806ZM91.6454 53.1156V40.6128L85.3869 44.187L67.5152 54.3865V67.0071L91.6454 53.1156ZM41.1939 10.5704V53.1156L65.3213 67.0057V54.3878L52.7167 47.2545L52.7126 47.2518L52.7071 47.249C52.6646 47.2244 52.629 47.1888 52.5893 47.1586C52.5551 47.1313 52.5154 47.1093 52.4852 47.0792L52.4825 47.0751C52.4469 47.0409 52.4222 46.9984 52.3921 46.9601C52.3647 46.9231 52.3319 46.8916 52.3099 46.8533L52.3086 46.8492C52.2839 46.8081 52.2689 46.7588 52.2511 46.7122C52.2333 46.6711 52.21 46.6328 52.199 46.589V46.5876C52.1853 46.5356 52.1826 46.4808 52.1771 46.4274C52.1716 46.3863 52.1607 46.3452 52.1607 46.3041V16.8848L45.7995 13.2202L41.1939 10.5718V10.5704ZM53.259 2.36208L42.2936 8.67375L53.2563 14.9854L64.2203 8.67238L53.2563 2.36208H53.259ZM58.9615 41.7522L65.3227 38.0903V10.5704L60.7172 13.2216L54.3546 16.8848V44.4047L58.9615 41.7522ZM92.7424 9.81037L81.7783 16.122L92.7424 22.4337L103.705 16.1207L92.7424 9.81037ZM91.6454 24.3331L85.2828 20.6699L80.6773 18.0187V30.5133L87.0385 34.1751L91.6454 36.8277V24.3331ZM66.4169 52.4898L82.4987 43.3092L90.5375 38.7216L79.5817 32.4141L66.9675 39.6761L55.4707 46.2945L66.4169 52.4898Z" fill="#FF2D20"/>
</svg>
