<svg width="145" height="137" viewBox="0 0 145 137" fill="none" xmlns="http://www.w3.org/2000/svg">
<path d="M28.1293 119.567V132.167H26.8513V122.087L21.9013 130.565H21.2713L16.3213 122.141V132.167H15.0433V119.567H16.1413L21.6133 128.909L27.0313 119.567H28.1293ZM40.1795 132.275C38.9315 132.275 37.7975 131.999 36.7775 131.447C35.7695 130.883 34.9775 130.115 34.4015 129.143C33.8375 128.171 33.5555 127.079 33.5555 125.867C33.5555 124.655 33.8375 123.563 34.4015 122.591C34.9775 121.619 35.7695 120.857 36.7775 120.305C37.7975 119.741 38.9315 119.459 40.1795 119.459C41.4275 119.459 42.5495 119.735 43.5455 120.287C44.5535 120.839 45.3455 121.607 45.9215 122.591C46.4975 123.563 46.7855 124.655 46.7855 125.867C46.7855 127.079 46.4975 128.177 45.9215 129.161C45.3455 130.133 44.5535 130.895 43.5455 131.447C42.5495 131.999 41.4275 132.275 40.1795 132.275ZM40.1795 131.087C41.1755 131.087 42.0755 130.865 42.8795 130.421C43.6835 129.965 44.3135 129.341 44.7695 128.549C45.2255 127.745 45.4535 126.851 45.4535 125.867C45.4535 124.883 45.2255 123.995 44.7695 123.203C44.3135 122.399 43.6835 121.775 42.8795 121.331C42.0755 120.875 41.1755 120.647 40.1795 120.647C39.1835 120.647 38.2775 120.875 37.4615 121.331C36.6575 121.775 36.0215 122.399 35.5535 123.203C35.0975 123.995 34.8695 124.883 34.8695 125.867C34.8695 126.851 35.0975 127.745 35.5535 128.549C36.0215 129.341 36.6575 129.965 37.4615 130.421C38.2775 130.865 39.1835 131.087 40.1795 131.087ZM62.7379 119.567V132.167H61.6399L53.5399 121.943V132.167H52.2079V119.567H53.3059L61.4239 129.791V119.567H62.7379ZM78.1614 125.867H79.4394V130.673C78.8514 131.189 78.1554 131.585 77.3514 131.861C76.5474 132.137 75.7014 132.275 74.8134 132.275C73.5534 132.275 72.4194 131.999 71.4114 131.447C70.4034 130.895 69.6114 130.133 69.0354 129.161C68.4594 128.177 68.1714 127.079 68.1714 125.867C68.1714 124.655 68.4594 123.563 69.0354 122.591C69.6114 121.607 70.4034 120.839 71.4114 120.287C72.4194 119.735 73.5594 119.459 74.8314 119.459C75.7914 119.459 76.6734 119.615 77.4774 119.927C78.2814 120.227 78.9594 120.677 79.5114 121.277L78.6834 122.123C77.6874 121.139 76.4214 120.647 74.8854 120.647C73.8654 120.647 72.9414 120.875 72.1134 121.331C71.2974 121.775 70.6554 122.399 70.1874 123.203C69.7194 123.995 69.4854 124.883 69.4854 125.867C69.4854 126.851 69.7194 127.739 70.1874 128.531C70.6554 129.323 71.2974 129.947 72.1134 130.403C72.9294 130.859 73.8474 131.087 74.8674 131.087C76.1634 131.087 77.2614 130.763 78.1614 130.115V125.867ZM91.1541 132.275C89.9061 132.275 88.7721 131.999 87.7521 131.447C86.7441 130.883 85.9521 130.115 85.3761 129.143C84.8121 128.171 84.5301 127.079 84.5301 125.867C84.5301 124.655 84.8121 123.563 85.3761 122.591C85.9521 121.619 86.7441 120.857 87.7521 120.305C88.7721 119.741 89.9061 119.459 91.1541 119.459C92.4021 119.459 93.5241 119.735 94.5201 120.287C95.5281 120.839 96.3201 121.607 96.8961 122.591C97.4721 123.563 97.7601 124.655 97.7601 125.867C97.7601 127.079 97.4721 128.177 96.8961 129.161C96.3201 130.133 95.5281 130.895 94.5201 131.447C93.5241 131.999 92.4021 132.275 91.1541 132.275ZM91.1541 131.087C92.1501 131.087 93.0501 130.865 93.8541 130.421C94.6581 129.965 95.2881 129.341 95.7441 128.549C96.2001 127.745 96.4281 126.851 96.4281 125.867C96.4281 124.883 96.2001 123.995 95.7441 123.203C95.2881 122.399 94.6581 121.775 93.8541 121.331C93.0501 120.875 92.1501 120.647 91.1541 120.647C90.1581 120.647 89.2521 120.875 88.4361 121.331C87.6321 121.775 86.9961 122.399 86.5281 123.203C86.0721 123.995 85.8441 124.883 85.8441 125.867C85.8441 126.851 86.0721 127.745 86.5281 128.549C86.9961 129.341 87.6321 129.965 88.4361 130.421C89.2521 130.865 90.1581 131.087 91.1541 131.087ZM103.183 119.567H108.313C109.645 119.567 110.821 119.837 111.841 120.377C112.861 120.905 113.653 121.649 114.217 122.609C114.781 123.557 115.063 124.643 115.063 125.867C115.063 127.091 114.781 128.183 114.217 129.143C113.653 130.091 112.861 130.835 111.841 131.375C110.821 131.903 109.645 132.167 108.313 132.167H103.183V119.567ZM108.241 131.015C109.345 131.015 110.311 130.799 111.139 130.367C111.967 129.923 112.609 129.317 113.065 128.549C113.521 127.769 113.749 126.875 113.749 125.867C113.749 124.859 113.521 123.971 113.065 123.203C112.609 122.423 111.967 121.817 111.139 121.385C110.311 120.941 109.345 120.719 108.241 120.719H104.515V131.015H108.241ZM128.428 125.669C129.256 125.849 129.892 126.209 130.336 126.749C130.792 127.277 131.02 127.961 131.02 128.801C131.02 129.881 130.618 130.715 129.814 131.303C129.022 131.879 127.846 132.167 126.286 132.167H120.49V119.567H125.926C127.33 119.567 128.416 119.849 129.184 120.413C129.964 120.977 130.354 121.775 130.354 122.807C130.354 123.503 130.18 124.097 129.832 124.589C129.496 125.069 129.028 125.429 128.428 125.669ZM121.822 120.665V125.237H125.836C126.856 125.237 127.642 125.045 128.194 124.661C128.746 124.265 129.022 123.695 129.022 122.951C129.022 122.207 128.746 121.643 128.194 121.259C127.642 120.863 126.856 120.665 125.836 120.665H121.822ZM126.268 131.069C127.396 131.069 128.248 130.877 128.824 130.493C129.4 130.109 129.688 129.509 129.688 128.693C129.688 127.121 128.548 126.335 126.268 126.335H121.822V131.069H126.268Z" fill="black"/>
<path d="M88.3888 27.0837C84.5591 11.2686 76.5666 7.05732 74.5385 4.0804C73.4363 2.46102 72.3123 0 72.3123 0C72.2024 1.40274 72.0076 2.29114 70.7288 3.35722C68.1679 5.49405 57.2849 13.7951 56.3707 31.7657C55.5182 48.5207 69.525 58.8541 71.3865 59.9218C72.8085 60.5764 74.5502 59.9343 75.3828 59.3342C82.133 54.9951 91.3676 43.4256 88.3805 27.0837" fill="#10AA50"/>
<path d="M72.6206 50.856C72.2016 54.8944 71.8997 57.2444 70.8334 59.5474C70.8334 59.5474 71.5363 63.3901 72.0248 67.462H73.7663C74.1821 64.5942 74.8166 61.7473 75.6667 58.936C73.4109 58.091 72.7059 54.3984 72.6206 50.856Z" fill="#B8C4C2"/>
<path d="M75.083 59.1591C73.1215 58.33 72.5542 54.4459 72.4671 50.8247C72.9504 44.8543 73.0901 38.8648 72.8857 32.8809C72.7832 29.7414 72.937 3.79805 72.0416 0C72.4039 0.743028 73.2787 2.48875 74.1535 3.73547C76.2432 6.72479 84.4378 10.9514 88.3643 26.8257C91.4245 43.1848 82.0047 54.776 75.083 59.1591Z" fill="#12924F"/>
</svg>
