<svg width="145" height="137" viewBox="0 0 145 137" fill="none" xmlns="http://www.w3.org/2000/svg">
<path d="M50.9743 119.4V132H49.6963V121.92L44.7463 130.398H44.1163L39.1663 121.974V132H37.8883V119.4H38.9863L44.4583 128.742L49.8763 119.4H50.9743ZM65.2025 122.532L60.4685 133.134C60.0845 134.022 59.6405 134.652 59.1365 135.024C58.6325 135.396 58.0265 135.582 57.3185 135.582C56.8625 135.582 56.4365 135.51 56.0405 135.366C55.6445 135.222 55.3025 135.006 55.0145 134.718L55.6085 133.764C56.0885 134.244 56.6645 134.484 57.3365 134.484C57.7685 134.484 58.1345 134.364 58.4345 134.124C58.7465 133.884 59.0345 133.476 59.2985 132.9L59.7125 131.982L55.4825 122.532H56.8145L60.3785 130.578L63.9425 122.532H65.2025ZM73.0426 132.108C72.1066 132.108 71.2066 131.958 70.3426 131.658C69.4906 131.358 68.8306 130.962 68.3626 130.47L68.8846 129.444C69.3406 129.9 69.9466 130.272 70.7026 130.56C71.4586 130.836 72.2386 130.974 73.0426 130.974C74.1706 130.974 75.0166 130.77 75.5806 130.362C76.1446 129.942 76.4266 129.402 76.4266 128.742C76.4266 128.238 76.2706 127.836 75.9586 127.536C75.6586 127.236 75.2866 127.008 74.8426 126.852C74.3986 126.684 73.7806 126.504 72.9886 126.312C72.0406 126.072 71.2846 125.844 70.7206 125.628C70.1566 125.4 69.6706 125.058 69.2626 124.602C68.8666 124.146 68.6686 123.528 68.6686 122.748C68.6686 122.112 68.8366 121.536 69.1726 121.02C69.5086 120.492 70.0246 120.072 70.7206 119.76C71.4166 119.448 72.2806 119.292 73.3126 119.292C74.0326 119.292 74.7346 119.394 75.4186 119.598C76.1146 119.79 76.7146 120.06 77.2186 120.408L76.7686 121.47C76.2406 121.122 75.6766 120.864 75.0766 120.696C74.4766 120.516 73.8886 120.426 73.3126 120.426C72.2086 120.426 71.3746 120.642 70.8106 121.074C70.2586 121.494 69.9826 122.04 69.9826 122.712C69.9826 123.216 70.1326 123.624 70.4326 123.936C70.7446 124.236 71.1286 124.47 71.5846 124.638C72.0526 124.794 72.6766 124.968 73.4566 125.16C74.3806 125.388 75.1246 125.616 75.6886 125.844C76.2646 126.06 76.7506 126.396 77.1466 126.852C77.5426 127.296 77.7406 127.902 77.7406 128.67C77.7406 129.306 77.5666 129.888 77.2186 130.416C76.8826 130.932 76.3606 131.346 75.6526 131.658C74.9446 131.958 74.0746 132.108 73.0426 132.108ZM95.7697 133.062C95.3857 133.53 94.9296 133.884 94.4016 134.124C93.8856 134.376 93.3216 134.502 92.7096 134.502C91.9656 134.502 91.2576 134.316 90.5856 133.944C89.9256 133.584 89.1816 132.972 88.3536 132.108C87.1416 132.072 86.0496 131.772 85.0776 131.208C84.1056 130.644 83.3436 129.882 82.7916 128.922C82.2396 127.962 81.9636 126.888 81.9636 125.7C81.9636 124.488 82.2456 123.396 82.8096 122.424C83.3856 121.452 84.1776 120.69 85.1856 120.138C86.2056 119.574 87.3396 119.292 88.5876 119.292C89.8356 119.292 90.9576 119.568 91.9536 120.12C92.9616 120.672 93.7536 121.44 94.3296 122.424C94.9056 123.396 95.1937 124.488 95.1937 125.7C95.1937 126.756 94.9717 127.728 94.5276 128.616C94.0956 129.492 93.4836 130.224 92.6916 130.812C91.9116 131.4 91.0116 131.79 89.9916 131.982C90.9156 132.954 91.8276 133.44 92.7276 133.44C93.6636 133.44 94.4616 133.056 95.1216 132.288L95.7697 133.062ZM83.2776 125.7C83.2776 126.684 83.5056 127.572 83.9616 128.364C84.4296 129.156 85.0656 129.78 85.8696 130.236C86.6856 130.692 87.5916 130.92 88.5876 130.92C89.5836 130.92 90.4836 130.692 91.2876 130.236C92.0916 129.78 92.7216 129.156 93.1776 128.364C93.6336 127.572 93.8616 126.684 93.8616 125.7C93.8616 124.716 93.6336 123.828 93.1776 123.036C92.7216 122.244 92.0916 121.62 91.2876 121.164C90.4836 120.708 89.5836 120.48 88.5876 120.48C87.5916 120.48 86.6856 120.708 85.8696 121.164C85.0656 121.62 84.4296 122.244 83.9616 123.036C83.5056 123.828 83.2776 124.716 83.2776 125.7ZM100.616 119.4H101.948V130.848H109.004V132H100.616V119.4Z" fill="black"/>
<path d="M107.689 53.3666C103.336 53.2713 99.9622 53.654 97.1328 54.7055C96.3166 54.9922 95.0107 54.9925 94.9018 55.9007C95.3373 56.2834 95.3916 56.9048 95.7725 57.4306C96.4259 58.3864 97.568 59.6776 98.602 60.347C99.7444 61.1118 100.887 61.8766 102.084 62.546C104.206 63.6935 106.6 64.3626 108.668 65.5101C109.865 66.1789 111.062 67.04 112.259 67.7571C112.858 68.1392 113.238 68.761 114 69V68.8566C113.619 68.4263 113.51 67.8048 113.13 67.3267C112.586 66.8487 112.041 66.4183 111.497 65.9402C109.919 64.0759 107.961 62.4503 105.838 61.1118C104.098 60.06 100.289 58.6258 99.5813 56.8568C99.5813 56.8568 99.5267 56.8091 99.4724 56.7614C100.669 56.6658 102.084 56.2834 103.227 55.9963C105.077 55.566 106.764 55.6616 108.668 55.2316C109.538 55.0402 110.409 54.8012 111.279 54.5621V54.132C110.301 53.2713 109.593 52.1241 108.559 51.3113C105.784 49.2073 102.737 47.152 99.5813 45.431C97.8943 44.4749 95.7179 43.8531 93.9225 43.0407C93.2698 42.7533 92.1813 42.6103 91.8007 42.1322C90.821 41.0804 90.2769 39.6942 89.5697 38.451C87.9923 35.8213 86.4682 32.9054 85.108 30.1327C84.129 28.2681 83.5303 26.4034 82.3332 24.6825C76.729 16.5553 70.635 11.6312 61.2763 6.80245C59.2631 5.79862 56.8693 5.36824 54.3119 4.84248C52.952 4.79449 51.5914 4.69912 50.2311 4.65113C49.3607 4.31641 48.4899 3.40826 47.728 2.97787C44.6273 1.25662 36.6285 -2.47199 34.3433 2.45211C32.8741 5.5596 36.5197 8.61907 37.771 10.1969C38.6964 11.2965 39.8932 12.5393 40.5461 13.7825C40.9271 14.5947 41.0356 15.4558 41.4166 16.3162C42.2873 18.4193 43.1032 20.7622 44.246 22.7226C44.8447 23.7264 45.4973 24.7782 46.2592 25.6864C46.6944 26.2121 47.456 26.4515 47.6195 27.3119C46.8579 28.2681 46.8033 29.7023 46.3678 30.8975C44.4091 36.2996 45.171 42.9927 47.9458 46.9606C48.8162 48.1555 50.8841 50.7855 53.6589 49.7814C56.1074 48.9209 55.5632 46.1958 56.2705 43.8055C56.434 43.2314 56.3251 42.8493 56.6515 42.4669C56.6517 42.5146 56.6515 42.5626 56.6515 42.5626C57.4133 43.9011 58.1749 45.192 58.8821 46.5305C60.5691 48.8729 63.507 51.3113 65.9555 52.9368C67.2618 53.797 68.2954 55.2792 69.9277 55.8053V55.6616H69.8188C69.4921 55.2312 69.0026 55.0402 68.5674 54.7055C67.5881 53.845 66.4996 52.7932 65.738 51.837C63.4531 49.1596 61.4395 46.1958 59.644 43.1361C58.7736 41.6541 58.0117 40.0286 57.3044 38.5467C56.9778 37.9726 56.9778 37.1124 56.4337 36.8257C55.6175 37.8772 54.4208 38.7857 53.8221 40.0766C52.7888 42.1322 52.6796 44.666 52.2986 47.2953C52.0812 47.3433 52.1897 47.2953 52.0809 47.391C50.34 47.0083 49.7413 45.431 49.0883 44.0922C47.456 40.698 47.1839 35.2478 48.5988 31.3279C48.9797 30.3237 50.612 27.1686 49.959 26.2124C49.6327 25.304 48.5442 24.7782 47.9458 24.0611C47.2385 23.1526 46.4767 22.0054 45.9872 21.0013C44.6812 18.3242 44.0282 15.3601 42.6137 12.6827C41.9607 11.4395 40.8182 10.149 39.8932 9.00177C38.8596 7.71092 37.7167 6.80245 36.9006 5.27255C36.6289 4.74679 36.2476 3.88632 36.6828 3.31257C36.7917 2.93018 37.0091 2.78681 37.4447 2.69114C38.1519 2.16508 40.1652 2.8345 40.8724 3.12122C42.8857 3.83803 44.5723 4.50776 46.2592 5.51159C47.0207 5.98966 47.8369 6.89813 48.8162 7.13716H49.959C51.7002 7.47157 53.6589 7.23283 55.2912 7.66292C58.1752 8.4754 60.7865 9.67089 63.1264 10.9618C70.2543 14.9297 76.1302 20.5712 80.1025 27.3119C80.7555 28.4111 81.0272 29.4156 81.6259 30.5628C82.7687 32.9055 84.1832 35.2958 85.3257 37.5905C86.4682 39.8372 87.5564 42.1322 89.1887 43.9968C90.0052 45.0004 93.2695 45.5264 94.7386 46.0525C95.8268 46.4826 97.5137 46.8653 98.4931 47.391C100.343 48.3946 102.193 49.5424 103.934 50.6419C104.805 51.2153 107.525 52.4108 107.689 53.3667L107.689 53.3666Z" fill="#00546B"/>
<path d="M107.689 53.3666C103.336 53.2713 99.9622 53.654 97.1328 54.7055C96.3166 54.9922 95.0107 54.9925 94.9018 55.9007C95.3373 56.2834 95.3916 56.9048 95.7725 57.4306C96.4259 58.3864 97.568 59.6776 98.602 60.347C99.7444 61.1118 100.887 61.8766 102.084 62.546C104.206 63.6935 106.6 64.3626 108.668 65.5101C109.865 66.1789 111.062 67.04 112.259 67.7571C112.858 68.1392 113.238 68.761 114 69V68.8566C113.619 68.4263 113.51 67.8048 113.13 67.3267C112.586 66.8487 112.041 66.4183 111.497 65.9402C109.919 64.0759 107.961 62.4503 105.838 61.1118C104.098 60.06 100.289 58.6258 99.5813 56.8568C99.5813 56.8568 99.5267 56.8091 99.4724 56.7614C100.669 56.6658 102.084 56.2834 103.227 55.9963C105.077 55.566 106.764 55.6616 108.668 55.2316C109.538 55.0402 110.409 54.8012 111.279 54.5621V54.132C110.301 53.2713 109.593 52.1241 108.559 51.3113C105.784 49.2073 102.737 47.152 99.5813 45.431C97.8943 44.4749 95.7179 43.8531 93.9225 43.0407C93.2698 42.7533 92.1813 42.6103 91.8007 42.1322C90.821 41.0804 90.2769 39.6942 89.5697 38.451C87.9923 35.8213 86.4682 32.9054 85.108 30.1327C84.129 28.2681 83.5303 26.4034 82.3332 24.6825C76.729 16.5553 70.635 11.6312 61.2763 6.80245C59.2631 5.79862 56.8693 5.36824 54.3119 4.84248C52.952 4.79449 51.5914 4.69912 50.2311 4.65113C49.3607 4.31641 48.4899 3.40826 47.728 2.97787C44.6273 1.25662 36.6285 -2.47199 34.3433 2.45211C32.8741 5.5596 36.5197 8.61907 37.771 10.1969C38.6964 11.2965 39.8932 12.5393 40.5461 13.7825C40.9271 14.5947 41.0356 15.4558 41.4166 16.3162C42.2873 18.4193 43.1032 20.7622 44.246 22.7226C44.8447 23.7264 45.4973 24.7782 46.2592 25.6864C46.6944 26.2121 47.456 26.4515 47.6195 27.3119C46.8579 28.2681 46.8033 29.7023 46.3678 30.8975C44.4091 36.2996 45.171 42.9927 47.9458 46.9606C48.8162 48.1555 50.8841 50.7855 53.6589 49.7814C56.1074 48.9209 55.5632 46.1958 56.2705 43.8055C56.434 43.2314 56.3251 42.8493 56.6515 42.4669C56.6517 42.5146 56.6515 42.5626 56.6515 42.5626C57.4133 43.9011 58.1749 45.192 58.8821 46.5305C60.5691 48.8729 63.507 51.3113 65.9555 52.9368C67.2618 53.797 68.2954 55.2792 69.9277 55.8053V55.6616H69.8188C69.4921 55.2312 69.0026 55.0402 68.5674 54.7055C67.5881 53.845 66.4996 52.7932 65.738 51.837C63.4531 49.1596 61.4395 46.1958 59.644 43.1361C58.7736 41.6541 58.0117 40.0286 57.3044 38.5467C56.9778 37.9726 56.9778 37.1124 56.4337 36.8257C55.6175 37.8772 54.4208 38.7857 53.8221 40.0766C52.7888 42.1322 52.6796 44.666 52.2986 47.2953C52.0812 47.3433 52.1897 47.2953 52.0809 47.391C50.34 47.0083 49.7413 45.431 49.0883 44.0922C47.456 40.698 47.1839 35.2478 48.5988 31.3279C48.9797 30.3237 50.612 27.1686 49.959 26.2124C49.6327 25.304 48.5442 24.7782 47.9458 24.0611C47.2385 23.1526 46.4767 22.0054 45.9872 21.0013C44.6812 18.3242 44.0282 15.3601 42.6137 12.6827C41.9607 11.4395 40.8182 10.149 39.8932 9.00177C38.8596 7.71092 37.7167 6.80245 36.9006 5.27255C36.6289 4.74679 36.2476 3.88632 36.6828 3.31257C36.7917 2.93018 37.0091 2.78681 37.4447 2.69114C38.1519 2.16508 40.1652 2.8345 40.8724 3.12122C42.8857 3.83803 44.5723 4.50776 46.2592 5.51159C47.0207 5.98966 47.8369 6.89813 48.8162 7.13716H49.959C51.7002 7.47157 53.6589 7.23283 55.2912 7.66292C58.1752 8.4754 60.7865 9.67089 63.1264 10.9618C70.2543 14.9297 76.1302 20.5712 80.1025 27.3119C80.7555 28.4111 81.0272 29.4156 81.6259 30.5628C82.7687 32.9055 84.1832 35.2958 85.3257 37.5905C86.4682 39.8372 87.5564 42.1322 89.1887 43.9968C90.0052 45.0004 93.2695 45.5264 94.7386 46.0525C95.8268 46.4826 97.5137 46.8653 98.4931 47.391C100.343 48.3946 102.193 49.5424 103.934 50.6419C104.805 51.2153 107.525 52.4108 107.689 53.3667L107.689 53.3666Z" fill="#00546B"/>
</svg>
