<svg width="145" height="137" viewBox="0 0 145 137" fill="none" xmlns="http://www.w3.org/2000/svg">
<path d="M40.6169 119.451V132.051H39.5189L31.4189 121.827V132.051H30.0869V119.451H31.1849L39.3029 129.675V119.451H40.6169ZM52.6743 132.159C51.4263 132.159 50.2923 131.883 49.2723 131.331C48.2643 130.767 47.4723 129.999 46.8963 129.027C46.3323 128.055 46.0503 126.963 46.0503 125.751C46.0503 124.539 46.3323 123.447 46.8963 122.475C47.4723 121.503 48.2643 120.741 49.2723 120.189C50.2923 119.625 51.4263 119.343 52.6743 119.343C53.9223 119.343 55.0443 119.619 56.0403 120.171C57.0483 120.723 57.8403 121.491 58.4163 122.475C58.9923 123.447 59.2803 124.539 59.2803 125.751C59.2803 126.963 58.9923 128.061 58.4163 129.045C57.8403 130.017 57.0483 130.779 56.0403 131.331C55.0443 131.883 53.9223 132.159 52.6743 132.159ZM52.6743 130.971C53.6703 130.971 54.5703 130.749 55.3743 130.305C56.1783 129.849 56.8083 129.225 57.2643 128.433C57.7203 127.629 57.9483 126.735 57.9483 125.751C57.9483 124.767 57.7203 123.879 57.2643 123.087C56.8083 122.283 56.1783 121.659 55.3743 121.215C54.5703 120.759 53.6703 120.531 52.6743 120.531C51.6783 120.531 50.7723 120.759 49.9563 121.215C49.1523 121.659 48.5163 122.283 48.0483 123.087C47.5923 123.879 47.3643 124.767 47.3643 125.751C47.3643 126.735 47.5923 127.629 48.0483 128.433C48.5163 129.225 49.1523 129.849 49.9563 130.305C50.7723 130.749 51.6783 130.971 52.6743 130.971ZM64.7027 119.451H69.8327C71.1647 119.451 72.3407 119.721 73.3607 120.261C74.3807 120.789 75.1727 121.533 75.7367 122.493C76.3007 123.441 76.5827 124.527 76.5827 125.751C76.5827 126.975 76.3007 128.067 75.7367 129.027C75.1727 129.975 74.3807 130.719 73.3607 131.259C72.3407 131.787 71.1647 132.051 69.8327 132.051H64.7027V119.451ZM69.7607 130.899C70.8647 130.899 71.8307 130.683 72.6587 130.251C73.4867 129.807 74.1287 129.201 74.5847 128.433C75.0407 127.653 75.2687 126.759 75.2687 125.751C75.2687 124.743 75.0407 123.855 74.5847 123.087C74.1287 122.307 73.4867 121.701 72.6587 121.269C71.8307 120.825 70.8647 120.603 69.7607 120.603H66.0347V130.899H69.7607ZM90.9206 130.899V132.051H82.0106V119.451H90.6506V120.603H83.3426V125.085H89.8586V126.219H83.3426V130.899H90.9206ZM97.8385 132.159C97.1185 132.159 96.4525 132.003 95.8405 131.691C95.2285 131.379 94.7305 130.935 94.3465 130.359L95.1385 129.459C95.8345 130.491 96.7405 131.007 97.8565 131.007C99.4165 131.007 100.197 130.083 100.197 128.235V120.603H95.5885V119.451H101.511V128.181C101.511 129.501 101.199 130.497 100.575 131.169C99.9625 131.829 99.0505 132.159 97.8385 132.159ZM111.417 132.159C110.481 132.159 109.581 132.009 108.717 131.709C107.865 131.409 107.205 131.013 106.737 130.521L107.259 129.495C107.715 129.951 108.321 130.323 109.077 130.611C109.833 130.887 110.613 131.025 111.417 131.025C112.545 131.025 113.391 130.821 113.955 130.413C114.519 129.993 114.801 129.453 114.801 128.793C114.801 128.289 114.645 127.887 114.333 127.587C114.033 127.287 113.661 127.059 113.217 126.903C112.773 126.735 112.155 126.555 111.363 126.363C110.415 126.123 109.659 125.895 109.095 125.679C108.531 125.451 108.045 125.109 107.637 124.653C107.241 124.197 107.043 123.579 107.043 122.799C107.043 122.163 107.211 121.587 107.547 121.071C107.883 120.543 108.399 120.123 109.095 119.811C109.791 119.499 110.655 119.343 111.687 119.343C112.407 119.343 113.109 119.445 113.793 119.649C114.489 119.841 115.089 120.111 115.593 120.459L115.143 121.521C114.615 121.173 114.051 120.915 113.451 120.747C112.851 120.567 112.263 120.477 111.687 120.477C110.583 120.477 109.749 120.693 109.185 121.125C108.633 121.545 108.357 122.091 108.357 122.763C108.357 123.267 108.507 123.675 108.807 123.987C109.119 124.287 109.503 124.521 109.959 124.689C110.427 124.845 111.051 125.019 111.831 125.211C112.755 125.439 113.499 125.667 114.063 125.895C114.639 126.111 115.125 126.447 115.521 126.903C115.917 127.347 116.115 127.953 116.115 128.721C116.115 129.357 115.941 129.939 115.593 130.467C115.257 130.983 114.735 131.397 114.027 131.709C113.319 132.009 112.449 132.159 111.417 132.159Z" fill="black"/>
<path d="M70.9961 66.7025C70.1079 66.7025 69.2788 66.4573 68.509 66.0284L60.6335 61.1873C59.4492 60.5133 60.0413 60.2681 60.3966 60.1456C61.9954 59.5941 62.2915 59.4715 63.9495 58.491C64.1271 58.3685 64.364 58.4298 64.5416 58.5523L70.5816 62.2904C70.8184 62.4129 71.1145 62.4129 71.2922 62.2904L94.9189 48.1348C95.1558 48.0123 95.2742 47.7672 95.2742 47.4608V19.211C95.2742 18.9046 95.1558 18.6595 94.9189 18.537L71.2922 4.44275C71.0553 4.32019 70.7592 4.32019 70.5816 4.44275L46.9548 18.537C46.718 18.6595 46.5995 18.9659 46.5995 19.211V47.4608C46.5995 47.7059 46.718 48.0123 46.9548 48.1348L53.4092 51.9954C56.9029 53.8338 59.0939 51.689 59.0939 49.5443V21.6622C59.0939 21.2945 59.3899 20.9269 59.8045 20.9269H62.8244C63.1797 20.9269 63.535 21.2333 63.535 21.6622V49.5443C63.535 54.3853 60.9888 57.2042 56.5476 57.2042C55.1857 57.2042 54.1198 57.2042 51.0999 55.6722L44.8823 51.9954C43.3427 51.0763 42.3953 49.3604 42.3953 47.5221V19.2723C42.3953 17.4339 43.3427 15.7181 44.8823 14.7989L68.509 0.643432C69.9894 -0.214477 72.0027 -0.214477 73.4831 0.643432L97.1099 14.7989C98.6495 15.7181 99.5969 17.4339 99.5969 19.2723V47.5221C99.5969 49.3604 98.6495 51.0763 97.1099 51.9954L73.4831 66.1509C72.7133 66.5186 71.8251 66.7025 70.9961 66.7025ZM78.2795 47.2769C67.9169 47.2769 65.7852 42.3746 65.7852 38.2076C65.7852 37.8399 66.0812 37.4723 66.4957 37.4723H69.5749C69.9302 37.4723 70.2263 37.7174 70.2263 38.0851C70.7 41.3329 72.0619 42.9261 78.3387 42.9261C83.3128 42.9261 85.4445 41.7618 85.4445 39.0042C85.4445 37.411 84.8524 36.2467 77.0952 35.45C70.6408 34.776 66.6142 33.3053 66.6142 27.974C66.6142 23.0104 70.6408 20.069 77.3913 20.069C84.9708 20.069 88.7013 22.7652 89.1751 28.648C89.1751 28.8319 89.1158 29.0157 88.9974 29.1996C88.879 29.3221 88.7013 29.4447 88.5237 29.4447H85.4445C85.1484 29.4447 84.8524 29.1996 84.7932 28.8932C84.0826 25.5228 82.2469 24.4198 77.3913 24.4198C71.9435 24.4198 71.2922 26.3807 71.2922 27.8514C71.2922 29.6285 72.0619 30.18 79.4046 31.1605C86.688 32.141 90.1225 33.5504 90.1225 38.8204C90.0633 44.213 85.7998 47.2769 78.2795 47.2769Z" fill="#539E43"/>
</svg>
