<svg width="145" height="137" viewBox="0 0 145 137" fill="none" xmlns="http://www.w3.org/2000/svg">
<path d="M56.6424 117.4C58.2504 117.4 59.5104 117.784 60.4224 118.552C61.3344 119.32 61.7904 120.376 61.7904 121.72C61.7904 123.064 61.3344 124.12 60.4224 124.888C59.5104 125.644 58.2504 126.022 56.6424 126.022H53.2584V130H51.9264V117.4H56.6424ZM56.6064 124.852C57.8544 124.852 58.8084 124.582 59.4684 124.042C60.1284 123.49 60.4584 122.716 60.4584 121.72C60.4584 120.7 60.1284 119.92 59.4684 119.38C58.8084 118.828 57.8544 118.552 56.6064 118.552H53.2584V124.852H56.6064ZM77.6374 117.4V130H76.3234V124.186H68.4394V130H67.1074V117.4H68.4394V123.016H76.3234V117.4H77.6374ZM88.9028 117.4C90.5108 117.4 91.7708 117.784 92.6828 118.552C93.5948 119.32 94.0508 120.376 94.0508 121.72C94.0508 123.064 93.5948 124.12 92.6828 124.888C91.7708 125.644 90.5108 126.022 88.9028 126.022H85.5188V130H84.1868V117.4H88.9028ZM88.8668 124.852C90.1148 124.852 91.0688 124.582 91.7288 124.042C92.3888 123.49 92.7188 122.716 92.7188 121.72C92.7188 120.7 92.3888 119.92 91.7288 119.38C91.0688 118.828 90.1148 118.552 88.8668 118.552H85.5188V124.852H88.8668Z" fill="black"/>
<path d="M22 30.448C22 47.2637 44.3096 60.8958 71.8288 60.8958C99.348 60.8958 121.658 47.2637 121.658 30.448C121.658 13.6326 99.348 0.000334841 71.8288 0.000334841C44.3096 0.000334841 22 13.6326 22 30.448Z" fill="url(#paint0_radial)"/>
<path d="M71.8286 58.635C98.273 58.635 119.711 46.0152 119.711 30.4479C119.711 14.8808 98.273 2.26072 71.8286 2.26072C45.3843 2.26072 23.9463 14.8808 23.9463 30.4479C23.9463 46.0152 45.3843 58.635 71.8286 58.635Z" fill="#777BB3"/>
<path d="M49.0724 33.9427C51.2468 33.9427 52.8701 33.4769 53.8972 32.5587C54.9133 31.6499 55.6151 30.0754 55.9829 27.8791C56.3259 25.8262 56.1952 24.3928 55.5947 23.6192C54.9807 22.8292 53.6532 22.4285 51.649 22.4285H48.1741L46.2477 33.9427H49.0724ZM37.7068 48.1262C37.5455 48.1262 37.3923 48.0425 37.2897 47.8976C37.187 47.7529 37.1454 47.5624 37.1762 47.3784L42.2816 16.8654C42.331 16.5704 42.5536 16.3573 42.8124 16.3573H53.8159C57.2741 16.3573 59.848 17.448 61.4659 19.5995C63.0925 21.7623 63.5948 24.7855 62.9587 28.585C62.6999 30.133 62.2548 31.5706 61.6357 32.8577C61.0159 34.1462 60.1968 35.3385 59.2007 36.402C58.0083 37.6983 56.6588 38.6383 55.1932 39.1914C53.7508 39.7371 51.8985 40.0139 49.6876 40.0139H45.2321L43.9597 47.6179C43.9103 47.9131 43.6879 48.1262 43.4291 48.1262H37.7068Z" fill="black"/>
<path d="M48.6197 23.0557H51.649C54.0678 23.0557 54.908 23.6722 55.1935 24.0396C55.6671 24.6497 55.7565 25.9359 55.4521 27.7591C55.11 29.8003 54.476 31.2475 53.5673 32.0602C52.637 32.8922 51.1245 33.3138 49.0723 33.3138H46.9035L48.6197 23.0557ZM53.8158 15.7284H42.8122C42.2945 15.7284 41.8496 16.1546 41.7508 16.7448L36.6454 47.2578C36.5837 47.6261 36.667 48.0069 36.8723 48.2964C37.0777 48.5859 37.3838 48.7534 37.7067 48.7534H43.4289C43.9467 48.7534 44.3917 48.3272 44.4904 47.737L45.6777 40.6411H49.6876C51.9552 40.6411 53.8641 40.3539 55.3609 39.7876C56.9002 39.2066 58.3164 38.2216 59.5699 36.86C60.6065 35.7521 61.4605 34.5086 62.1075 33.1635C62.7547 31.818 63.2196 30.3176 63.4894 28.7039C64.159 24.7045 63.6151 21.5019 61.873 19.1856C60.1479 16.8916 57.4369 15.7284 53.8158 15.7284ZM45.5916 34.5699H49.0723C51.3794 34.5699 53.0978 34.0652 54.2269 33.0555C55.3562 32.0456 56.1178 30.3601 56.5136 27.9982C56.8923 25.7305 56.7198 24.1303 55.9962 23.198C55.2717 22.2658 53.8229 21.7996 51.649 21.7996H47.7283L45.5916 34.5699V34.5699ZM53.8158 16.9845C57.126 16.9845 59.5409 17.9936 61.0587 20.0119C62.5764 22.0303 63.0335 24.8475 62.4279 28.4644C62.1787 29.9544 61.7571 31.3166 61.1636 32.5507C60.5694 33.7857 59.7936 34.9149 58.8348 35.9389C57.6921 37.1809 56.4228 38.0661 55.026 38.5932C53.6293 39.1218 51.8503 39.385 49.6876 39.385H44.7862L43.4289 47.4973H37.7067L42.8122 16.9845H53.8158" fill="white"/>
<path d="M76.0789 40.0139C75.9174 40.0139 75.7644 39.9302 75.6618 39.7853C75.5589 39.6406 75.5173 39.4503 75.5481 39.2661L77.8065 25.7653C78.0214 24.4814 77.9684 23.5598 77.6575 23.1704C77.4672 22.9324 76.8955 22.5332 75.2052 22.5332H71.1137L68.2742 39.5056C68.2248 39.8008 68.0023 40.0139 67.7434 40.0139H62.0663C61.9049 40.0139 61.7518 39.9302 61.6491 39.7853C61.5464 39.6406 61.5048 39.4501 61.5356 39.2661L66.641 8.75309C66.6904 8.45812 66.913 8.245 67.1718 8.245H72.8489C73.0104 8.245 73.1634 8.32874 73.2661 8.4734C73.3688 8.61827 73.4105 8.80857 73.3796 8.9928L72.1476 16.3573H76.5491C79.9022 16.3573 82.1759 17.044 83.5002 18.4567C84.8501 19.8979 85.2713 22.2022 84.7522 25.3064L82.3769 39.5056C82.3275 39.8008 82.1051 40.0139 81.8461 40.0139H76.0789Z" fill="black"/>
<path d="M72.8488 7.61707H67.1717C66.6539 7.61707 66.2089 8.04331 66.1102 8.63347L61.0048 39.1465C60.9431 39.5147 61.0264 39.8955 61.2318 40.1851C61.4373 40.4746 61.7433 40.6421 62.0663 40.6421H67.7434C68.261 40.6421 68.7062 40.2159 68.8049 39.6257L71.5593 23.1613H75.2051C76.8925 23.1613 77.2467 23.58 77.2609 23.598C77.3633 23.726 77.4979 24.3184 77.2757 25.6457L75.0173 39.1465C74.9557 39.5147 75.0389 39.8955 75.2444 40.1851C75.4498 40.4746 75.7559 40.6421 76.0788 40.6421H81.846C82.3637 40.6421 82.8088 40.2159 82.9076 39.6257L85.2828 25.4265C85.8402 22.0934 85.3633 19.5932 83.866 17.9946C82.4372 16.4703 80.0438 15.7294 76.549 15.7294H72.8032L73.9103 9.11288C73.9718 8.74463 73.8887 8.36361 73.6833 8.07429C73.4778 7.78476 73.1718 7.61707 72.8488 7.61707ZM72.8488 8.87317L71.4915 16.9855H76.549C79.7313 16.9855 81.9262 17.6307 83.1343 18.9195C84.3423 20.2091 84.7042 22.2986 84.2214 25.187L81.846 39.386H76.0788L78.3372 25.8854C78.5942 24.3496 78.4998 23.302 78.0536 22.7435C77.6071 22.1849 76.6575 21.9052 75.2051 21.9052H70.6677L67.7434 39.386H62.0663L67.1717 8.87317H72.8488Z" fill="white"/>
<path d="M93.7349 33.9427C95.9093 33.9427 97.5326 33.4769 98.5597 32.5587C99.5759 31.6501 100.278 30.0756 100.646 27.8791C100.989 25.8262 100.858 24.3928 100.257 23.6192C99.6433 22.8292 98.3157 22.4285 96.3116 22.4285H92.8367L90.9103 33.9427H93.7349ZM82.3695 48.1262C82.2082 48.1262 82.0551 48.0425 81.9525 47.8976C81.8498 47.7529 81.808 47.5624 81.8388 47.3784L86.9442 16.8654C86.9938 16.5704 87.2162 16.3573 87.4752 16.3573H98.4785C101.937 16.3573 104.511 17.448 106.129 19.5995C107.755 21.7621 108.257 24.7853 107.621 28.585C107.362 30.133 106.917 31.5706 106.298 32.8577C105.678 34.1462 104.859 35.3385 103.863 36.402C102.671 37.6983 101.321 38.6383 99.8557 39.1914C98.4134 39.7371 96.561 40.0139 94.3502 40.0139H89.8945L88.6226 47.6179C88.5731 47.9131 88.3507 48.1262 88.0917 48.1262H82.3695Z" fill="black"/>
<path d="M93.2827 23.0564H96.3119C98.7307 23.0564 99.5709 23.6729 99.8564 24.0403C100.33 24.6504 100.42 25.9366 100.115 27.7597C99.7729 29.801 99.1387 31.2483 98.2302 32.061C97.2999 32.8929 95.7874 33.3146 93.7352 33.3146H91.5665L93.2827 23.0564ZM98.4787 15.7291H87.4752C86.9576 15.7291 86.5127 16.1554 86.4139 16.7455L81.3085 47.2586C81.2468 47.6268 81.3301 48.0076 81.5354 48.2971C81.7408 48.5867 82.0468 48.7542 82.3698 48.7542H88.092C88.6096 48.7542 89.0547 48.3279 89.1535 47.7378L90.3407 40.6418H94.3505C96.6181 40.6418 98.527 40.3546 100.024 39.7883C101.563 39.2074 102.98 38.2222 104.233 36.8603C105.27 35.7527 106.123 34.5093 106.77 33.1642C107.418 31.8188 107.883 30.3183 108.152 28.7047C108.822 24.705 108.278 21.5024 106.536 19.1861C104.811 16.8923 102.1 15.7291 98.4787 15.7291ZM90.2547 34.5707H93.7352C96.0423 34.5707 97.7607 34.0659 98.8898 33.0562C100.019 32.0463 100.781 30.3608 101.177 27.9989C101.555 25.7313 101.383 24.131 100.659 23.1988C99.9346 22.2665 98.4858 21.8003 96.3119 21.8003H92.3913L90.2547 34.5707ZM98.4787 16.9852C101.789 16.9852 104.204 17.9943 105.722 20.0126C107.24 22.031 107.696 24.8482 107.091 28.4652C106.842 29.9551 106.42 31.3174 105.827 32.5515C105.232 33.7864 104.456 34.9157 103.498 35.9396C102.355 37.1817 101.086 38.0668 99.689 38.594C98.2922 39.1226 96.5132 39.3857 94.3505 39.3857H89.4491L88.092 47.498H82.3698L87.4752 16.9852H98.4787" fill="white"/>
<path d="M22 30.4478C22 47.2634 44.3096 60.8955 71.8288 60.8955C99.348 60.8955 121.658 47.2634 121.658 30.4478C121.658 13.6324 99.348 9.07003e-05 71.8288 9.07003e-05C44.3096 9.07003e-05 22 13.6324 22 30.4478Z" fill="url(#paint1_radial)"/>
<path d="M71.8286 58.6348C98.273 58.6348 119.711 46.0149 119.711 30.4476C119.711 14.8805 98.273 2.26048 71.8286 2.26048C45.3843 2.26048 23.9463 14.8805 23.9463 30.4476C23.9463 46.0149 45.3843 58.6348 71.8286 58.6348Z" fill="#777BB3"/>
<path d="M49.0724 33.9422C51.2468 33.9422 52.8701 33.4764 53.8972 32.5582C54.9133 31.6494 55.6151 30.0749 55.9829 27.8786C56.3259 25.8257 56.1952 24.3923 55.5947 23.6188C54.9807 22.8287 53.6532 22.428 51.649 22.428H48.1741L46.2477 33.9422H49.0724ZM37.7068 48.1257C37.5455 48.1257 37.3923 48.042 37.2897 47.8971C37.187 47.7525 37.1454 47.562 37.1762 47.3779L42.2816 16.8649C42.331 16.5699 42.5536 16.3568 42.8124 16.3568H53.8159C57.2741 16.3568 59.848 17.4475 61.4659 19.599C63.0925 21.7618 63.5948 24.785 62.9587 28.5845C62.6999 30.1325 62.2548 31.5701 61.6357 32.8572C61.0159 34.1457 60.1968 35.338 59.2007 36.4015C58.0083 37.6978 56.6588 38.6378 55.1932 39.1909C53.7508 39.7366 51.8985 40.0134 49.6876 40.0134H45.2321L43.9597 47.6174C43.9103 47.9126 43.6879 48.1257 43.4291 48.1257H37.7068Z" fill="black"/>
<path d="M48.6197 23.0554H51.649C54.0678 23.0554 54.908 23.672 55.1935 24.0394C55.6671 24.6494 55.7565 25.9357 55.4521 27.7589C55.11 29.8001 54.476 31.2473 53.5673 32.06C52.637 32.892 51.1245 33.3136 49.0723 33.3136H46.9035L48.6197 23.0554ZM53.8158 15.7282H42.8122C42.2945 15.7282 41.8496 16.1544 41.7508 16.7445L36.6454 47.2576C36.5837 47.6258 36.667 48.0066 36.8723 48.2962C37.0777 48.5857 37.3838 48.7532 37.7067 48.7532H43.4289C43.9467 48.7532 44.3917 48.3269 44.4904 47.7368L45.6777 40.6408H49.6876C51.9552 40.6408 53.8641 40.3536 55.3609 39.7873C56.9002 39.2064 58.3164 38.2214 59.5699 36.8598C60.6065 35.7519 61.4605 34.5083 62.1075 33.1633C62.7547 31.8178 63.2196 30.3174 63.4894 28.7037C64.159 24.7043 63.6151 21.5016 61.873 19.1854C60.1479 16.8913 57.4369 15.7282 53.8158 15.7282ZM45.5916 34.5697H49.0723C51.3794 34.5697 53.0978 34.0649 54.2269 33.0552C55.3562 32.0453 56.1178 30.3599 56.5136 27.998C56.8923 25.7303 56.7198 24.13 55.9962 23.1978C55.2717 22.2655 53.8229 21.7993 51.649 21.7993H47.7283L45.5916 34.5697V34.5697ZM53.8158 16.9843C57.126 16.9843 59.5409 17.9933 61.0587 20.0117C62.5764 22.03 63.0335 24.8472 62.4279 28.4642C62.1787 29.9541 61.7571 31.3164 61.1636 32.5505C60.5694 33.7855 59.7936 34.9147 58.8348 35.9386C57.6921 37.1807 56.4228 38.0658 55.026 38.593C53.6293 39.1216 51.8503 39.3847 49.6876 39.3847H44.7862L43.4289 47.4971H37.7067L42.8122 16.9843H53.8158" fill="white"/>
<path d="M76.0789 40.0137C75.9174 40.0137 75.7644 39.9299 75.6618 39.7851C75.5589 39.6404 75.5173 39.4501 75.5481 39.2659L77.8065 25.7651C78.0214 24.4811 77.9684 23.5596 77.6575 23.1702C77.4672 22.9321 76.8955 22.5329 75.2052 22.5329H71.1137L68.2742 39.5054C68.2248 39.8006 68.0023 40.0137 67.7434 40.0137H62.0663C61.9049 40.0137 61.7518 39.9299 61.6491 39.7851C61.5464 39.6404 61.5048 39.4499 61.5356 39.2659L66.641 8.75285C66.6904 8.45788 66.913 8.24476 67.1718 8.24476H72.8489C73.0104 8.24476 73.1634 8.3285 73.2661 8.47316C73.3688 8.61803 73.4105 8.80833 73.3796 8.99256L72.1476 16.3571H76.5491C79.9022 16.3571 82.1759 17.0438 83.5002 18.4564C84.8501 19.8976 85.2713 22.2019 84.7522 25.3062L82.3769 39.5054C82.3275 39.8006 82.1051 40.0137 81.8461 40.0137H76.0789Z" fill="black"/>
<path d="M72.8488 7.61658H67.1717C66.6539 7.61658 66.2089 8.04282 66.1102 8.63298L61.0048 39.146C60.9431 39.5143 61.0264 39.8951 61.2318 40.1846C61.4373 40.4741 61.7433 40.6416 62.0663 40.6416H67.7434C68.261 40.6416 68.7062 40.2154 68.8049 39.6252L71.5593 23.1608H75.2051C76.8925 23.1608 77.2467 23.5795 77.2609 23.5976C77.3633 23.7255 77.4979 24.3179 77.2757 25.6452L75.0173 39.146C74.9557 39.5143 75.0389 39.8951 75.2444 40.1846C75.4498 40.4741 75.7559 40.6416 76.0788 40.6416H81.846C82.3637 40.6416 82.8088 40.2154 82.9076 39.6252L85.2828 25.426C85.8402 22.093 85.3633 19.5927 83.866 17.9941C82.4372 16.4698 80.0438 15.7289 76.549 15.7289H72.8032L73.9103 9.11239C73.9718 8.74414 73.8887 8.36313 73.6833 8.0738C73.4778 7.78427 73.1718 7.61658 72.8488 7.61658ZM72.8488 8.87268L71.4915 16.985H76.549C79.7313 16.985 81.9262 17.6302 83.1343 18.919C84.3423 20.2086 84.7042 22.2981 84.2214 25.1865L81.846 39.3855H76.0788L78.3372 25.8849C78.5942 24.3491 78.4998 23.3015 78.0536 22.743C77.6071 22.1844 76.6575 21.9047 75.2051 21.9047H70.6677L67.7434 39.3855H62.0663L67.1717 8.87268H72.8488Z" fill="white"/>
<path d="M93.7349 33.9422C95.9093 33.9422 97.5326 33.4764 98.5597 32.5582C99.5759 31.6496 100.278 30.0751 100.646 27.8786C100.989 25.8257 100.858 24.3923 100.257 23.6188C99.6433 22.8287 98.3157 22.428 96.3116 22.428H92.8367L90.9103 33.9422H93.7349ZM82.3695 48.1257C82.2082 48.1257 82.0551 48.042 81.9525 47.8971C81.8498 47.7525 81.808 47.562 81.8388 47.3779L86.9442 16.8649C86.9938 16.5699 87.2162 16.3568 87.4752 16.3568H98.4785C101.937 16.3568 104.511 17.4475 106.129 19.599C107.755 21.7616 108.257 24.7848 107.621 28.5845C107.362 30.1325 106.917 31.5701 106.298 32.8572C105.678 34.1457 104.859 35.338 103.863 36.4015C102.671 37.6978 101.321 38.6378 99.8557 39.1909C98.4134 39.7366 96.561 40.0134 94.3502 40.0134H89.8945L88.6226 47.6174C88.5731 47.9126 88.3507 48.1257 88.0917 48.1257H82.3695Z" fill="black"/>
<path d="M93.2827 23.0561H96.3119C98.7307 23.0561 99.5709 23.6727 99.8564 24.0401C100.33 24.6501 100.42 25.9364 100.115 27.7594C99.7729 29.8008 99.1387 31.248 98.2302 32.0607C97.2999 32.8927 95.7874 33.3143 93.7352 33.3143H91.5665L93.2827 23.0561ZM98.4787 15.7289H87.4752C86.9576 15.7289 86.5127 16.1551 86.4139 16.7453L81.3085 47.2583C81.2468 47.6266 81.3301 48.0074 81.5354 48.2969C81.7408 48.5864 82.0468 48.7539 82.3698 48.7539H88.092C88.6096 48.7539 89.0547 48.3277 89.1535 47.7375L90.3407 40.6416H94.3505C96.6181 40.6416 98.527 40.3544 100.024 39.7881C101.563 39.2071 102.98 38.2219 104.233 36.8601C105.27 35.7524 106.123 34.5091 106.77 33.164C107.418 31.8185 107.883 30.3181 108.152 28.7044C108.822 24.7048 108.278 21.5021 106.536 19.1859C104.811 16.892 102.1 15.7289 98.4787 15.7289ZM90.2547 34.5704H93.7352C96.0423 34.5704 97.7607 34.0657 98.8898 33.056C100.019 32.0461 100.781 30.3606 101.177 27.9987C101.555 25.731 101.383 24.1307 100.659 23.1985C99.9346 22.2663 98.4858 21.8 96.3119 21.8H92.3913L90.2547 34.5704ZM98.4787 16.985C101.789 16.985 104.204 17.9941 105.722 20.0124C107.24 22.0308 107.696 24.848 107.091 28.4649C106.842 29.9549 106.42 31.3171 105.827 32.5512C105.232 33.7862 104.456 34.9154 103.498 35.9394C102.355 37.1814 101.086 38.0666 99.689 38.5937C98.2922 39.1223 96.5132 39.3855 94.3505 39.3855H89.4491L88.092 47.4978H82.3698L87.4752 16.985H98.4787" fill="white"/>
<defs>
<radialGradient id="paint0_radial" cx="0" cy="0" r="1" gradientUnits="userSpaceOnUse" gradientTransform="translate(51.9175 10.7048) scale(65.4323 76.0063)">
<stop stop-color="#AEB2D5"/>
<stop offset="0.3" stop-color="#AEB2D5"/>
<stop offset="0.75" stop-color="#484C89"/>
<stop offset="1" stop-color="#484C89"/>
</radialGradient>
<radialGradient id="paint1_radial" cx="0" cy="0" r="1" gradientUnits="userSpaceOnUse" gradientTransform="translate(51.9175 10.7046) scale(65.4323 76.0063)">
<stop stop-color="#AEB2D5"/>
<stop offset="0.3" stop-color="#AEB2D5"/>
<stop offset="0.75" stop-color="#484C89"/>
<stop offset="1" stop-color="#484C89"/>
</radialGradient>
</defs>
</svg>
