<svg width="145" height="137" viewBox="0 0 145 137" fill="none" xmlns="http://www.w3.org/2000/svg">
<path d="M111.181 56.2381C107.512 56.2579 104.336 57.1014 101.672 58.3574C100.688 56.4933 99.7044 54.8645 99.5406 53.6482C99.3562 52.2354 99.1308 51.3719 99.3562 49.6846C99.5814 47.997 100.606 45.6031 100.606 45.4069C100.585 45.2303 100.38 44.367 98.2698 44.3474C96.1592 44.3277 94.335 44.7398 94.1301 45.2696C93.9251 45.7994 93.5153 47.0159 93.2489 48.2717C92.88 50.1161 89.0271 56.6501 86.8343 60.0839C86.117 58.7496 85.5022 57.5723 85.3791 56.6303C85.1948 55.2177 84.9692 54.3542 85.1948 52.6669C85.4203 50.9793 86.4449 48.5856 86.4449 48.3894C86.4244 48.2128 86.2195 47.3495 84.1089 47.3298C81.9978 47.3102 80.1741 47.7223 79.9691 48.2521C79.7642 48.7818 79.5388 50.0376 79.0879 51.2542C78.6573 52.4707 73.5339 63.3803 72.2018 66.2255C71.5255 67.6775 70.9314 68.8351 70.5008 69.62C70.0705 70.4049 70.4803 69.6789 70.4393 69.7574C70.0705 70.4245 69.8655 70.7973 69.8655 70.7973V70.8171C69.5786 71.3077 69.2712 71.7784 69.1275 71.7784C69.0251 71.7784 68.8201 70.4637 69.1685 68.6587C69.9268 64.8716 71.7712 58.9657 71.7509 58.7498C71.7509 58.6517 72.0991 57.6116 70.5621 57.082C69.0661 56.5522 68.5334 57.4352 68.4103 57.4352C68.2873 57.4352 68.1848 57.7491 68.1848 57.7491C68.1848 57.7491 69.8448 51.0976 65.0083 51.0976C61.9752 51.0976 57.7945 54.2567 55.7246 57.141C54.413 57.8278 51.6259 59.2796 48.6748 60.8299C47.5476 61.4186 46.3795 62.0465 45.2728 62.6155L45.0476 62.3796C39.1864 56.395 28.3452 52.1568 28.7961 44.1119C28.96 41.1883 30.0257 33.477 49.6179 24.1371C65.6645 16.4847 78.5141 18.5842 80.7477 23.2541C83.9242 29.9255 73.8823 42.3263 57.2006 44.1119C50.8475 44.7987 47.5069 42.4441 46.6668 41.5611C45.7856 40.6389 45.6626 40.5996 45.3347 40.7762C44.8019 41.0509 45.1298 41.875 45.3347 42.3656C45.8266 43.6017 47.876 45.7994 51.3599 46.8982C54.4133 47.8596 61.8732 48.3894 70.8904 45.0537C80.9938 41.306 88.8839 30.9066 86.5681 22.2142C84.2113 13.3648 68.882 10.4608 54.393 15.3859C45.7649 18.3291 36.4198 22.9206 29.6978 28.9444C21.7053 36.0867 20.4347 42.3263 20.9675 44.9164C22.8326 54.1582 36.1329 60.182 41.4612 64.6361C41.1948 64.7733 40.9489 64.9106 40.7234 65.0285C38.0593 66.2841 27.9149 71.3663 25.3736 76.7425C22.5045 82.8251 25.8245 87.201 28.0378 87.7896C34.8827 89.6144 41.8916 86.3376 45.6829 80.9417C49.4536 75.5457 49.0029 68.5408 47.2609 65.3425L47.1993 65.2248L49.2896 64.0475C50.6424 63.2822 51.9745 62.5758 53.1424 61.9674C52.4868 63.6745 52.0153 65.6955 51.7696 68.6387C51.4826 72.0923 52.9582 76.5659 54.9051 78.3318C55.7658 79.0968 56.7905 79.1167 57.4258 79.1167C59.6801 79.1167 60.7048 77.3309 61.832 75.1923C63.2256 72.5827 64.4552 69.5609 64.4552 69.5609C64.4552 69.5609 62.9181 77.7432 67.1194 77.7432C68.6564 77.7432 70.1934 75.8399 70.8902 74.8588V74.8784C70.8902 74.8784 70.9312 74.8195 71.0132 74.6822C71.0992 74.5604 71.1812 74.4362 71.2591 74.3096V74.2703C71.8739 73.25 73.247 70.915 75.2964 67.0496C77.9398 62.0657 80.4813 55.826 80.4813 55.826C80.4813 55.826 80.7272 57.3565 81.4855 59.8681C81.9361 61.3595 82.9198 62.9879 83.6781 64.5772C83.0633 65.4014 82.6944 65.8725 82.6944 65.8725L82.7149 65.8921C82.2232 66.52 81.6697 67.1873 81.0961 67.8543C79.0057 70.2481 76.5055 72.9757 76.1776 73.7606C75.7882 74.6826 75.8702 75.3693 76.6284 75.9189C77.1818 76.3114 78.1655 76.3897 79.2107 76.3114C81.0961 76.1934 82.4077 75.7423 83.0635 75.4674C84.0882 75.1143 85.2563 74.5845 86.3835 73.7996C88.4328 72.3478 89.683 70.2875 89.56 67.5405C89.4985 66.0296 88.9862 64.5384 88.3509 63.1256C88.5353 62.8706 88.7199 62.6153 88.9042 62.3408C92.1422 57.808 94.6424 52.8243 94.6424 52.8243C94.6424 52.8243 94.8884 54.3548 95.6466 56.8663C96.0358 58.1417 96.8148 59.5351 97.5116 60.9086C94.4785 63.2828 92.5726 66.0298 91.9168 67.835C90.7076 71.1707 91.6503 72.6816 93.4333 73.0348C94.2324 73.1917 95.3802 72.8385 96.2407 72.4853C97.3064 72.1518 98.5975 71.5826 99.7864 70.739C101.836 69.287 103.803 67.266 103.701 64.5386C103.639 63.2828 103.291 62.0466 102.819 60.8693C105.402 59.849 108.742 59.2604 112.984 59.7509C122.104 60.7712 123.907 66.2261 123.559 68.5022C123.211 70.7785 121.305 72.034 120.669 72.4265C120.034 72.7993 119.829 72.9368 119.891 73.2113C119.973 73.6236 120.26 73.6038 120.813 73.5255C121.571 73.4076 125.608 71.6614 125.772 67.4626C126.018 62.0659 120.669 56.1794 111.181 56.2381V56.2381ZM40.8464 78.9403C37.8338 82.0993 33.5916 83.2963 31.7882 82.2759C29.8413 81.1967 30.5993 76.5464 34.3089 73.1911C36.5632 71.1505 39.4938 69.2668 41.4202 68.1091C41.8506 67.8541 42.5064 67.4814 43.2852 67.03C43.4081 66.9517 43.4901 66.9122 43.4901 66.9122C43.6336 66.8337 43.7975 66.7356 43.9615 66.6375C45.3345 71.4252 44.0229 75.6242 40.8464 78.9403V78.9403ZM62.8772 64.5969C61.832 67.0496 59.6187 73.3481 58.2866 72.9949C57.1387 72.7006 56.4421 67.9325 58.0609 63.2234C58.8807 60.8489 60.6226 58.0236 61.6473 56.9246C63.3075 55.1587 65.1108 54.57 65.5618 55.296C66.0947 56.2381 63.533 63.0664 62.8772 64.5969ZM81.0551 72.9164C80.6042 73.1325 80.1944 73.2892 80.0099 73.1717C79.8665 73.0932 80.1941 72.7989 80.1941 72.7989C80.1941 72.7989 82.469 70.4639 83.3707 69.3847C83.883 68.757 84.4978 68.031 85.1536 67.2067V67.4422C85.1538 70.2675 82.3257 72.1512 81.0551 72.9164ZM95.0726 69.8555C94.7447 69.62 94.7859 68.894 95.8923 66.6179C96.3229 65.7153 97.3064 64.2044 99.0074 62.7721C99.2123 63.3607 99.3355 63.9295 99.3148 64.4595C99.2945 67.9914 96.6713 69.3061 95.0726 69.8555Z" fill="#CF649A"/>
<path d="M51.3082 122.108C50.3722 122.108 49.4722 121.958 48.6082 121.658C47.7562 121.358 47.0962 120.962 46.6282 120.47L47.1502 119.444C47.6062 119.9 48.2122 120.272 48.9682 120.56C49.7242 120.836 50.5042 120.974 51.3082 120.974C52.4362 120.974 53.2822 120.77 53.8462 120.362C54.4102 119.942 54.6923 119.402 54.6923 118.742C54.6923 118.238 54.5362 117.836 54.2242 117.536C53.9242 117.236 53.5522 117.008 53.1082 116.852C52.6642 116.684 52.0462 116.504 51.2542 116.312C50.3062 116.072 49.5502 115.844 48.9862 115.628C48.4222 115.4 47.9362 115.058 47.5282 114.602C47.1322 114.146 46.9342 113.528 46.9342 112.748C46.9342 112.112 47.1022 111.536 47.4382 111.02C47.7742 110.492 48.2902 110.072 48.9862 109.76C49.6822 109.448 50.5462 109.292 51.5782 109.292C52.2982 109.292 53.0002 109.394 53.6842 109.598C54.3802 109.79 54.9802 110.06 55.4843 110.408L55.0342 111.47C54.5062 111.122 53.9422 110.864 53.3422 110.696C52.7422 110.516 52.1542 110.426 51.5782 110.426C50.4742 110.426 49.6402 110.642 49.0762 111.074C48.5242 111.494 48.2482 112.04 48.2482 112.712C48.2482 113.216 48.3982 113.624 48.6982 113.936C49.0102 114.236 49.3942 114.47 49.8502 114.638C50.3182 114.794 50.9422 114.968 51.7222 115.16C52.6462 115.388 53.3902 115.616 53.9542 115.844C54.5303 116.06 55.0163 116.396 55.4122 116.852C55.8082 117.296 56.0062 117.902 56.0062 118.67C56.0062 119.306 55.8322 119.888 55.4843 120.416C55.1483 120.932 54.6263 121.346 53.9182 121.658C53.2102 121.958 52.3402 122.108 51.3082 122.108ZM69.2473 118.634H62.2273L60.7153 122H59.3293L65.0893 109.4H66.4033L72.1633 122H70.7593L69.2473 118.634ZM68.7613 117.554L65.7373 110.786L62.7133 117.554H68.7613ZM80.1585 122.108C79.2225 122.108 78.3225 121.958 77.4585 121.658C76.6065 121.358 75.9465 120.962 75.4785 120.47L76.0005 119.444C76.4565 119.9 77.0625 120.272 77.8185 120.56C78.5745 120.836 79.3545 120.974 80.1585 120.974C81.2865 120.974 82.1325 120.77 82.6965 120.362C83.2605 119.942 83.5425 119.402 83.5425 118.742C83.5425 118.238 83.3865 117.836 83.0745 117.536C82.7745 117.236 82.4025 117.008 81.9585 116.852C81.5145 116.684 80.8965 116.504 80.1045 116.312C79.1565 116.072 78.4005 115.844 77.8365 115.628C77.2725 115.4 76.7865 115.058 76.3785 114.602C75.9825 114.146 75.7845 113.528 75.7845 112.748C75.7845 112.112 75.9525 111.536 76.2885 111.02C76.6245 110.492 77.1405 110.072 77.8365 109.76C78.5325 109.448 79.3965 109.292 80.4285 109.292C81.1485 109.292 81.8505 109.394 82.5345 109.598C83.2305 109.79 83.8305 110.06 84.3345 110.408L83.8845 111.47C83.3565 111.122 82.7925 110.864 82.1925 110.696C81.5925 110.516 81.0045 110.426 80.4285 110.426C79.3245 110.426 78.4905 110.642 77.9265 111.074C77.3745 111.494 77.0985 112.04 77.0985 112.712C77.0985 113.216 77.2485 113.624 77.5485 113.936C77.8605 114.236 78.2445 114.47 78.7005 114.638C79.1685 114.794 79.7925 114.968 80.5725 115.16C81.4965 115.388 82.2405 115.616 82.8045 115.844C83.3805 116.06 83.8665 116.396 84.2625 116.852C84.6585 117.296 84.8565 117.902 84.8565 118.67C84.8565 119.306 84.6825 119.888 84.3345 120.416C83.9985 120.932 83.4765 121.346 82.7685 121.658C82.0605 121.958 81.1905 122.108 80.1585 122.108ZM93.6695 122.108C92.7335 122.108 91.8335 121.958 90.9695 121.658C90.1175 121.358 89.4575 120.962 88.9895 120.47L89.5115 119.444C89.9675 119.9 90.5735 120.272 91.3295 120.56C92.0855 120.836 92.8655 120.974 93.6695 120.974C94.7975 120.974 95.6435 120.77 96.2075 120.362C96.7715 119.942 97.0535 119.402 97.0535 118.742C97.0535 118.238 96.8975 117.836 96.5855 117.536C96.2855 117.236 95.9135 117.008 95.4695 116.852C95.0255 116.684 94.4075 116.504 93.6155 116.312C92.6675 116.072 91.9115 115.844 91.3475 115.628C90.7835 115.4 90.2975 115.058 89.8895 114.602C89.4935 114.146 89.2955 113.528 89.2955 112.748C89.2955 112.112 89.4635 111.536 89.7995 111.02C90.1355 110.492 90.6515 110.072 91.3475 109.76C92.0435 109.448 92.9075 109.292 93.9395 109.292C94.6595 109.292 95.3615 109.394 96.0455 109.598C96.7415 109.79 97.3415 110.06 97.8455 110.408L97.3955 111.47C96.8675 111.122 96.3035 110.864 95.7035 110.696C95.1035 110.516 94.5155 110.426 93.9395 110.426C92.8355 110.426 92.0015 110.642 91.4375 111.074C90.8855 111.494 90.6095 112.04 90.6095 112.712C90.6095 113.216 90.7595 113.624 91.0595 113.936C91.3715 114.236 91.7555 114.47 92.2115 114.638C92.6795 114.794 93.3035 114.968 94.0835 115.16C95.0075 115.388 95.7515 115.616 96.3155 115.844C96.8915 116.06 97.3775 116.396 97.7735 116.852C98.1695 117.296 98.3675 117.902 98.3675 118.67C98.3675 119.306 98.1935 119.888 97.8455 120.416C97.5095 120.932 96.9875 121.346 96.2795 121.658C95.5715 121.958 94.7015 122.108 93.6695 122.108Z" fill="black"/>
<path d="M111.181 56.2381C107.512 56.2579 104.336 57.1014 101.672 58.3574C100.688 56.4933 99.7044 54.8645 99.5406 53.6482C99.3562 52.2354 99.1308 51.3719 99.3562 49.6846C99.5814 47.997 100.606 45.6031 100.606 45.4069C100.585 45.2303 100.38 44.367 98.2698 44.3474C96.1592 44.3277 94.335 44.7398 94.1301 45.2696C93.9251 45.7994 93.5153 47.0159 93.2489 48.2717C92.88 50.1161 89.0271 56.6501 86.8343 60.0839C86.117 58.7496 85.5022 57.5723 85.3791 56.6303C85.1948 55.2177 84.9692 54.3542 85.1948 52.6669C85.4203 50.9793 86.4449 48.5856 86.4449 48.3894C86.4244 48.2128 86.2195 47.3495 84.1089 47.3298C81.9978 47.3102 80.1741 47.7223 79.9691 48.2521C79.7642 48.7818 79.5388 50.0376 79.0879 51.2542C78.6573 52.4707 73.5339 63.3803 72.2018 66.2255C71.5255 67.6775 70.9314 68.8351 70.5008 69.62C70.0705 70.4049 70.4803 69.6789 70.4393 69.7574C70.0705 70.4245 69.8655 70.7973 69.8655 70.7973V70.8171C69.5786 71.3077 69.2712 71.7784 69.1275 71.7784C69.0251 71.7784 68.8201 70.4637 69.1685 68.6587C69.9268 64.8716 71.7712 58.9657 71.7509 58.7498C71.7509 58.6517 72.0991 57.6116 70.5621 57.082C69.0661 56.5522 68.5334 57.4352 68.4103 57.4352C68.2873 57.4352 68.1848 57.7491 68.1848 57.7491C68.1848 57.7491 69.8448 51.0976 65.0083 51.0976C61.9752 51.0976 57.7945 54.2567 55.7246 57.141C54.413 57.8278 51.6259 59.2796 48.6748 60.8299C47.5476 61.4186 46.3795 62.0465 45.2728 62.6155L45.0476 62.3796C39.1864 56.395 28.3452 52.1568 28.7961 44.1119C28.96 41.1883 30.0257 33.477 49.6179 24.1371C65.6645 16.4847 78.5141 18.5842 80.7477 23.2541C83.9242 29.9255 73.8823 42.3263 57.2006 44.1119C50.8475 44.7987 47.5069 42.4441 46.6668 41.5611C45.7856 40.6389 45.6626 40.5996 45.3347 40.7762C44.8019 41.0509 45.1298 41.875 45.3347 42.3656C45.8266 43.6017 47.876 45.7994 51.3599 46.8982C54.4133 47.8596 61.8732 48.3894 70.8904 45.0537C80.9938 41.306 88.8839 30.9066 86.5681 22.2142C84.2113 13.3648 68.882 10.4608 54.393 15.3859C45.7649 18.3291 36.4198 22.9206 29.6978 28.9444C21.7053 36.0867 20.4347 42.3263 20.9675 44.9164C22.8326 54.1582 36.1329 60.182 41.4612 64.6361C41.1948 64.7733 40.9489 64.9106 40.7234 65.0285C38.0593 66.2841 27.9149 71.3663 25.3736 76.7425C22.5045 82.8251 25.8245 87.201 28.0378 87.7896C34.8827 89.6144 41.8916 86.3376 45.6829 80.9417C49.4536 75.5457 49.0029 68.5408 47.2609 65.3425L47.1993 65.2248L49.2896 64.0475C50.6424 63.2822 51.9745 62.5758 53.1424 61.9674C52.4868 63.6745 52.0153 65.6955 51.7696 68.6387C51.4826 72.0923 52.9582 76.5659 54.9051 78.3318C55.7658 79.0968 56.7905 79.1167 57.4258 79.1167C59.6801 79.1167 60.7048 77.3309 61.832 75.1923C63.2256 72.5827 64.4552 69.5609 64.4552 69.5609C64.4552 69.5609 62.9181 77.7432 67.1194 77.7432C68.6564 77.7432 70.1934 75.8399 70.8902 74.8588V74.8784C70.8902 74.8784 70.9312 74.8195 71.0132 74.6822C71.0992 74.5604 71.1812 74.4362 71.2591 74.3096V74.2703C71.8739 73.25 73.247 70.915 75.2964 67.0496C77.9398 62.0657 80.4813 55.826 80.4813 55.826C80.4813 55.826 80.7272 57.3565 81.4855 59.8681C81.9361 61.3595 82.9198 62.9879 83.6781 64.5772C83.0633 65.4014 82.6944 65.8725 82.6944 65.8725L82.7149 65.8921C82.2232 66.52 81.6697 67.1873 81.0961 67.8543C79.0057 70.2481 76.5055 72.9757 76.1776 73.7606C75.7882 74.6826 75.8702 75.3693 76.6284 75.9189C77.1818 76.3114 78.1655 76.3897 79.2107 76.3114C81.0961 76.1934 82.4077 75.7423 83.0635 75.4674C84.0882 75.1143 85.2563 74.5845 86.3835 73.7996C88.4328 72.3478 89.683 70.2875 89.56 67.5405C89.4985 66.0296 88.9862 64.5384 88.3509 63.1256C88.5353 62.8706 88.7199 62.6153 88.9042 62.3408C92.1422 57.808 94.6424 52.8243 94.6424 52.8243C94.6424 52.8243 94.8884 54.3548 95.6466 56.8663C96.0358 58.1417 96.8148 59.5351 97.5116 60.9086C94.4785 63.2828 92.5726 66.0298 91.9168 67.835C90.7076 71.1707 91.6503 72.6816 93.4333 73.0348C94.2324 73.1917 95.3802 72.8385 96.2407 72.4853C97.3064 72.1518 98.5975 71.5826 99.7864 70.739C101.836 69.287 103.803 67.266 103.701 64.5386C103.639 63.2828 103.291 62.0466 102.819 60.8693C105.402 59.849 108.742 59.2604 112.984 59.7509C122.104 60.7712 123.907 66.2261 123.559 68.5022C123.211 70.7785 121.305 72.034 120.669 72.4265C120.034 72.7993 119.829 72.9368 119.891 73.2113C119.973 73.6236 120.26 73.6038 120.813 73.5255C121.571 73.4076 125.608 71.6614 125.772 67.4626C126.018 62.0659 120.669 56.1794 111.181 56.2381V56.2381ZM40.8464 78.9403C37.8338 82.0993 33.5916 83.2963 31.7882 82.2759C29.8413 81.1967 30.5993 76.5464 34.3089 73.1911C36.5632 71.1505 39.4938 69.2668 41.4202 68.1091C41.8506 67.8541 42.5064 67.4814 43.2852 67.03C43.4081 66.9517 43.4901 66.9122 43.4901 66.9122C43.6336 66.8337 43.7975 66.7356 43.9615 66.6375C45.3345 71.4252 44.0229 75.6242 40.8464 78.9403V78.9403ZM62.8772 64.5969C61.832 67.0496 59.6187 73.3481 58.2866 72.9949C57.1387 72.7006 56.4421 67.9325 58.0609 63.2234C58.8807 60.8489 60.6226 58.0236 61.6473 56.9246C63.3075 55.1587 65.1108 54.57 65.5618 55.296C66.0947 56.2381 63.533 63.0664 62.8772 64.5969ZM81.0551 72.9164C80.6042 73.1325 80.1944 73.2892 80.0099 73.1717C79.8665 73.0932 80.1941 72.7989 80.1941 72.7989C80.1941 72.7989 82.469 70.4639 83.3707 69.3847C83.883 68.757 84.4978 68.031 85.1536 67.2067V67.4422C85.1538 70.2675 82.3257 72.1512 81.0551 72.9164ZM95.0726 69.8555C94.7447 69.62 94.7859 68.894 95.8923 66.6179C96.3229 65.7153 97.3064 64.2044 99.0074 62.7721C99.2123 63.3607 99.3355 63.9295 99.3148 64.4595C99.2945 67.9914 96.6713 69.3061 95.0726 69.8555Z" fill="#CF649A"/>
</svg>
