<svg width="145" height="137" viewBox="0 0 145 137" fill="none" xmlns="http://www.w3.org/2000/svg">
<path d="M10.3819 120.544H5.9539V119.392H16.1419V120.544H11.7139V131.992H10.3819V120.544ZM24.9388 127.636V131.992H23.6248V127.636L18.5848 119.392H20.0068L24.3268 126.466L28.6468 119.392H29.9788L24.9388 127.636ZM38.9337 119.392C40.5417 119.392 41.8017 119.776 42.7137 120.544C43.6257 121.312 44.0817 122.368 44.0817 123.712C44.0817 125.056 43.6257 126.112 42.7137 126.88C41.8017 127.636 40.5417 128.014 38.9337 128.014H35.5497V131.992H34.2177V119.392H38.9337ZM38.8977 126.844C40.1457 126.844 41.0997 126.574 41.7597 126.034C42.4197 125.482 42.7497 124.708 42.7497 123.712C42.7497 122.692 42.4197 121.912 41.7597 121.372C41.0997 120.82 40.1457 120.544 38.8977 120.544H35.5497V126.844H38.8977ZM58.3087 130.84V131.992H49.3987V119.392H58.0387V120.544H50.7307V125.026H57.2467V126.16H50.7307V130.84H58.3087ZM67.3506 132.1C66.4146 132.1 65.5146 131.95 64.6506 131.65C63.7986 131.35 63.1386 130.954 62.6706 130.462L63.1926 129.436C63.6486 129.892 64.2546 130.264 65.0106 130.552C65.7666 130.828 66.5466 130.966 67.3506 130.966C68.4786 130.966 69.3246 130.762 69.8886 130.354C70.4526 129.934 70.7346 129.394 70.7346 128.734C70.7346 128.23 70.5786 127.828 70.2666 127.528C69.9666 127.228 69.5946 127 69.1506 126.844C68.7066 126.676 68.0886 126.496 67.2966 126.304C66.3486 126.064 65.5926 125.836 65.0286 125.62C64.4646 125.392 63.9786 125.05 63.5706 124.594C63.1746 124.138 62.9766 123.52 62.9766 122.74C62.9766 122.104 63.1446 121.528 63.4806 121.012C63.8166 120.484 64.3326 120.064 65.0286 119.752C65.7246 119.44 66.5886 119.284 67.6206 119.284C68.3406 119.284 69.0426 119.386 69.7266 119.59C70.4226 119.782 71.0226 120.052 71.5266 120.4L71.0766 121.462C70.5486 121.114 69.9846 120.856 69.3846 120.688C68.7846 120.508 68.1966 120.418 67.6206 120.418C66.5166 120.418 65.6826 120.634 65.1186 121.066C64.5666 121.486 64.2906 122.032 64.2906 122.704C64.2906 123.208 64.4406 123.616 64.7406 123.928C65.0526 124.228 65.4366 124.462 65.8926 124.63C66.3606 124.786 66.9846 124.96 67.7646 125.152C68.6886 125.38 69.4326 125.608 69.9966 125.836C70.5726 126.052 71.0586 126.388 71.4546 126.844C71.8506 127.288 72.0486 127.894 72.0486 128.662C72.0486 129.298 71.8746 129.88 71.5266 130.408C71.1906 130.924 70.6686 131.338 69.9606 131.65C69.2526 131.95 68.3826 132.1 67.3506 132.1ZM82.8596 132.1C81.6116 132.1 80.4836 131.824 79.4756 131.272C78.4796 130.72 77.6936 129.958 77.1176 128.986C76.5536 128.002 76.2716 126.904 76.2716 125.692C76.2716 124.48 76.5536 123.388 77.1176 122.416C77.6936 121.432 78.4856 120.664 79.4936 120.112C80.5016 119.56 81.6296 119.284 82.8776 119.284C83.8136 119.284 84.6776 119.44 85.4696 119.752C86.2616 120.064 86.9336 120.52 87.4856 121.12L86.6396 121.966C85.6556 120.97 84.4136 120.472 82.9136 120.472C81.9176 120.472 81.0116 120.7 80.1956 121.156C79.3796 121.612 78.7376 122.236 78.2696 123.028C77.8136 123.82 77.5856 124.708 77.5856 125.692C77.5856 126.676 77.8136 127.564 78.2696 128.356C78.7376 129.148 79.3796 129.772 80.1956 130.228C81.0116 130.684 81.9176 130.912 82.9136 130.912C84.4256 130.912 85.6676 130.408 86.6396 129.4L87.4856 130.246C86.9336 130.846 86.2556 131.308 85.4516 131.632C84.6596 131.944 83.7956 132.1 82.8596 132.1ZM101.366 131.992L98.4859 127.942C98.1619 127.978 97.8259 127.996 97.4779 127.996H94.0939V131.992H92.7619V119.392H97.4779C99.0859 119.392 100.346 119.776 101.258 120.544C102.17 121.312 102.626 122.368 102.626 123.712C102.626 124.696 102.374 125.53 101.87 126.214C101.378 126.886 100.67 127.372 99.7459 127.672L102.824 131.992H101.366ZM97.4419 126.862C98.6899 126.862 99.6439 126.586 100.304 126.034C100.964 125.482 101.294 124.708 101.294 123.712C101.294 122.692 100.964 121.912 100.304 121.372C99.6439 120.82 98.6899 120.544 97.4419 120.544H94.0939V126.862H97.4419ZM108.207 119.392H109.539V131.992H108.207V119.392ZM120.791 119.392C122.399 119.392 123.659 119.776 124.571 120.544C125.483 121.312 125.939 122.368 125.939 123.712C125.939 125.056 125.483 126.112 124.571 126.88C123.659 127.636 122.399 128.014 120.791 128.014H117.407V131.992H116.075V119.392H120.791ZM120.755 126.844C122.003 126.844 122.957 126.574 123.617 126.034C124.277 125.482 124.607 124.708 124.607 123.712C124.607 122.692 124.277 121.912 123.617 121.372C122.957 120.82 122.003 120.544 120.755 120.544H117.407V126.844H120.755ZM133.282 120.544H128.854V119.392H139.042V120.544H134.614V131.992H133.282V120.544Z" fill="black"/>
<path d="M43 28.5V57H72.4791H101.958V28.5V0H72.4791H43V28.5Z" fill="#007ACC"/>
<path d="M56.0376 28.6888L56.0189 31.023H59.8559L63.6928 31.023V41.5635V52.104H66.4068H69.1207V41.5635V31.023H72.9577H76.7947V28.734C76.7947 27.4673 76.7666 26.4088 76.7292 26.3816C76.7011 26.3454 72.0312 26.3273 66.3694 26.3364L56.0657 26.3635L56.0376 28.6888Z" fill="white"/>
<path d="M90.5737 26.2978C92.071 26.6597 93.2128 27.3021 94.2609 28.3516C94.8037 28.9125 95.6085 29.9349 95.674 30.1792C95.6928 30.2516 93.1285 31.9163 91.575 32.8482C91.5189 32.8844 91.2943 32.6492 91.0416 32.2873C90.2836 31.2197 89.4881 30.7583 88.2715 30.6768C86.484 30.5592 85.3329 31.464 85.3423 32.9749C85.3423 33.4183 85.4078 33.6806 85.595 34.0425C85.988 34.8297 86.718 35.3002 89.0108 36.2592C93.2315 38.0144 95.0377 39.1725 96.1607 40.8192C97.4147 42.6559 97.6955 45.5873 96.8438 47.7678C95.908 50.1382 93.5871 51.7487 90.321 52.2825C89.3103 52.4544 86.9145 52.4273 85.8289 52.2373C83.4613 51.8301 81.2152 50.6992 79.8302 49.2154C79.2874 48.6363 78.2299 47.1254 78.2954 47.0168C78.3235 46.9806 78.5668 46.8359 78.8382 46.6821C79.1002 46.5373 80.0922 45.9854 81.0281 45.4606L82.7219 44.5106L83.0776 45.0173C83.5736 45.7501 84.6591 46.7544 85.3142 47.0892C87.1953 48.0482 89.7782 47.9125 91.051 46.8087C91.5938 46.3292 91.8184 45.8316 91.8184 45.0987C91.8184 44.4382 91.7341 44.1487 91.3785 43.6511C90.9199 43.0178 89.9841 42.484 87.3263 41.3711C84.2848 40.1044 82.9746 39.3173 81.7767 38.0687C81.0842 37.3449 80.4291 36.1868 80.1577 35.2187C79.9331 34.4135 79.877 32.3959 80.0548 31.5816C80.6818 28.7406 82.8998 26.7592 86.1003 26.1711C87.1391 25.9811 89.5536 26.0535 90.5737 26.2978Z" fill="white"/>
</svg>
