<svg width="833" height="501" viewBox="0 0 833 501" fill="none" xmlns="http://www.w3.org/2000/svg">
<path d="M40.5405 89.0641C103.54 25.5641 262.04 -82.4359 448.54 105.064C635.04 292.563 608.541 184.064 608.541 184.064L448.54 432.064C396.053 522.605 314.49 522.703 75.5405 432.064C-12.9595 382.064 -22.4594 152.564 40.5405 89.0641Z" fill="#057DCD"/>
<path d="M363.456 272.385C363.461 271.52 363.304 270.662 362.993 269.866C362.683 269.071 362.226 268.353 361.651 267.76C361.076 267.166 360.395 266.708 359.652 266.416C358.908 266.123 358.118 266.001 357.329 266.058C356.541 266.115 355.771 266.35 355.069 266.747C354.367 267.145 353.748 267.696 353.249 268.368C352.75 269.039 352.384 269.816 352.171 270.649C351.959 271.483 351.906 272.356 352.015 273.213L335.5 296.904C334.795 298.448 334.522 300.186 334.715 301.899C334.907 303.612 335.557 305.225 336.582 306.536L337.878 308.191L343.822 306.889L350.559 300.377L349.766 292.997L358.088 278.672L358.077 278.662C359.534 278.56 360.901 277.855 361.9 276.689C362.899 275.523 363.455 273.984 363.456 272.385V272.385Z" fill="#FFB9B9"/>
<path d="M249.25 388.208L246.554 377.24L283.889 360.632L287.868 376.819L249.25 388.208Z" fill="#FFB8B8"/>
<path d="M240.232 393.868L231.541 358.504L231.949 358.383C235.281 357.4 238.834 357.908 241.825 359.794C244.816 361.68 247 364.791 247.898 368.441L247.898 368.442L253.206 390.041L240.232 393.868Z" fill="#2F2E41"/>
<path d="M300.678 386.456L292.292 379.776L311.824 341.165L324.2 351.024L300.678 386.456Z" fill="#FFB8B8"/>
<path d="M296.905 397.064L269.866 375.524L270.115 375.149C272.145 372.092 275.2 370.043 278.609 369.453C282.018 368.863 285.501 369.781 288.292 372.004L288.293 372.005L304.807 385.161L296.905 397.064Z" fill="#2F2E41"/>
<path d="M371.958 332.501L350.856 310.046C349.015 308.086 346.589 306.92 344.026 306.763C341.462 306.606 338.933 307.469 336.904 309.192L297.061 357.679L300.627 363.757L338.67 335.54L364.429 372.439L388.998 358.982L371.958 332.501Z" fill="#2F2E41"/>
<path d="M362.844 337.276L347.389 335.974L336.196 333.001C335.564 331.921 334.645 331.078 333.564 330.585C332.482 330.092 331.289 329.973 330.144 330.244C328.998 330.514 327.956 331.162 327.156 332.099C326.356 333.037 325.836 334.219 325.667 335.489C325.497 336.759 325.686 338.055 326.208 339.204C326.729 340.353 327.559 341.301 328.586 341.919C329.612 342.537 330.787 342.797 331.952 342.664C333.117 342.531 334.217 342.011 335.105 341.174L335.104 341.183L341.841 344.222L370.769 355.075L374.336 352.036L362.844 337.276Z" fill="#FFB9B9"/>
<path d="M400.094 384.16L391.376 390.238H381.072L333.123 370.703L262.98 384.594L260.999 368.098L325.197 337.276L381.469 357.679L400.094 384.16Z" fill="#2F2E41"/>
<path d="M381.469 278.672C390.004 278.672 396.924 271.092 396.924 261.742C396.924 252.391 390.004 244.812 381.469 244.812C372.933 244.812 366.014 252.391 366.014 261.742C366.014 271.092 372.933 278.672 381.469 278.672Z" fill="#FFB9B9"/>
<path d="M421.458 329.336C421.458 339.554 419.988 349.708 417.103 359.424L415.946 363.323L410.398 391.105L404.454 392.842L400.094 386.764L391.376 379.819L385.036 368.532L379.599 358.608L377.903 355.509L371.958 322.951L349.37 309.059L341.841 307.757L343.426 302.982L350.163 292.997L356.9 292.129L358.881 290.393L360.466 291.261L369.204 294.948L397.534 281.836L401.68 282.579L415.946 295.602C419.593 306.4 421.459 317.823 421.458 329.336V329.336Z" fill="#CCCCCC"/>
<path opacity="0.1" d="M417.134 325.555L402.076 336.408L379.599 358.608L377.903 355.509L373.147 329.462H374.336L386.621 304.719L417.134 325.555Z" fill="black"/>
<path d="M386.621 302.114L374.336 326.857L367.203 335.54L360.863 337.276L377.903 357.679L402.076 333.803L417.134 322.95L386.621 302.114Z" fill="#CCCCCC"/>
<path d="M369.449 249.153L367.774 249.859C367.52 249.671 367.302 249.429 367.133 249.148C366.964 248.868 366.847 248.553 366.789 248.223C366.731 247.893 366.733 247.553 366.795 247.224C366.857 246.894 366.977 246.582 367.149 246.303C367.158 246.288 367.167 246.274 367.176 246.26L364.082 246.101C366.068 243.203 368.594 240.8 371.492 239.051C374.389 237.302 377.593 236.247 380.891 235.956C384.188 235.665 387.505 236.144 390.621 237.362C393.737 238.58 396.581 240.509 398.966 243.021C399.106 242.489 400.642 243.524 401.269 244.572C401.48 243.707 402.92 247.888 403.429 250.844C403.665 249.86 404.572 251.448 403.777 252.973C404.281 252.892 404.508 254.303 404.118 255.089C404.669 254.805 404.576 256.489 403.979 257.614C404.765 257.538 403.912 275.264 392.122 273.973C391.301 269.841 391.532 270.098 390.566 264.786C390.116 264.262 389.623 263.786 389.132 263.31L386.471 260.738C383.378 257.747 380.564 254.055 376.443 252.937C373.611 252.169 371.82 251.996 373.364 248.5C371.969 249.137 370.667 250.085 369.26 250.677C369.279 250.189 369.476 249.642 369.449 249.153Z" fill="#2F2E41"/>
<path d="M389.197 266.734C390.729 266.734 391.971 265.373 391.971 263.695C391.971 262.017 390.729 260.656 389.197 260.656C387.665 260.656 386.423 262.017 386.423 263.695C386.423 265.373 387.665 266.734 389.197 266.734Z" fill="#FFB9B9"/>
<path d="M259.836 191.926L258.989 205.851L271.701 206.778L272.547 192.854L259.836 191.926Z" fill="#E6E6E6"/>
<path d="M251.634 199.32L267.07 200.446L266.042 217.355L250.606 216.229L251.634 199.32ZM266.354 201.133L252.261 200.104L251.322 215.542L265.415 216.571L266.354 201.133Z" fill="#CCCCCC"/>
<path d="M331.669 150.636L319.214 153.568L321.89 167.212L334.345 164.28L331.669 150.636Z" fill="#E6E6E6"/>
<path d="M322.927 144.028L326.177 160.595L311.053 164.155L307.803 147.587L322.927 144.028ZM325.378 160.03L322.411 144.903L308.602 148.153L311.569 163.28L325.378 160.03Z" fill="#CCCCCC"/>
<path d="M318.582 216.159L309.284 225.699L317.993 235.885L327.291 226.344L318.582 216.159Z" fill="#E6E6E6"/>
<path d="M327.959 214.732L316.669 226.317L306.094 213.949L317.384 202.364L327.959 214.732ZM316.7 225.275L327.009 214.698L317.353 203.406L307.045 213.983L316.7 225.275Z" fill="#CCCCCC"/>
<path d="M799.406 115.064H422.481C421.119 115.064 419.77 115.358 418.511 115.929C417.252 116.5 416.108 117.337 415.145 118.393C414.182 119.448 413.418 120.701 412.896 122.08C412.375 123.459 412.106 124.936 412.106 126.429V356.489C412.106 357.982 412.375 359.46 412.896 360.839C413.418 362.217 414.182 363.47 415.145 364.526C416.108 365.581 417.252 366.418 418.511 366.989C419.77 367.56 421.119 367.854 422.481 367.854H799.406C802.158 367.854 804.796 366.657 806.742 364.526C808.688 362.394 809.781 359.504 809.781 356.489V126.429C809.781 123.415 808.688 120.524 806.742 118.393C804.796 116.262 802.158 115.064 799.406 115.064V115.064Z" fill="#3F3D56"/>
<path d="M795.871 135.149H426.015V363.699H795.871V135.149Z" fill="white"/>
<path d="M610.627 128.916C612.722 128.916 614.42 127.055 614.42 124.76C614.42 122.465 612.722 120.605 610.627 120.605C608.532 120.605 606.833 122.465 606.833 124.76C606.833 127.055 608.532 128.916 610.627 128.916Z" fill="white"/>
<path d="M690.098 363.699H426.015V135.149L690.098 363.699Z" fill="#F2F2F2"/>
<path d="M483.887 346.596C503.521 346.596 519.438 329.16 519.438 307.651C519.438 286.143 503.521 268.706 483.887 268.706C464.252 268.706 448.335 286.143 448.335 307.651C448.335 329.16 464.252 346.596 483.887 346.596Z" fill="#1E3D58"/>
<path d="M491.801 336.922C483.055 336.922 474.504 334.081 467.232 328.758C459.96 323.435 454.292 315.869 450.944 307.017C447.597 298.165 446.722 288.425 448.428 279.028C450.134 269.63 454.346 260.999 460.531 254.224C466.715 247.449 474.595 242.835 483.174 240.966C491.752 239.096 500.644 240.056 508.724 243.722C516.805 247.389 523.712 253.598 528.571 261.565C533.43 269.531 536.024 278.897 536.024 288.479C536.024 294.84 534.88 301.14 532.658 307.017C530.435 312.895 527.178 318.235 523.071 322.733C518.965 327.232 514.09 330.8 508.724 333.235C503.359 335.669 497.608 336.922 491.801 336.922V336.922ZM491.801 240.668C483.169 240.668 474.731 243.472 467.553 248.726C460.376 253.979 454.782 261.446 451.478 270.182C448.175 278.918 447.311 288.532 448.995 297.806C450.679 307.08 454.836 315.599 460.939 322.286C467.043 328.972 474.82 333.526 483.286 335.37C491.753 337.215 500.528 336.268 508.503 332.65C516.478 329.031 523.294 322.903 528.09 315.041C532.886 307.178 535.446 297.935 535.446 288.479C535.446 282.2 534.317 275.983 532.124 270.182C529.93 264.382 526.715 259.111 522.663 254.671C518.61 250.232 513.798 246.71 508.503 244.307C503.208 241.905 497.532 240.668 491.801 240.668L491.801 240.668Z" fill="#3F3D56"/>
<path d="M710.251 253.887H675.702V261.795H710.251V253.887Z" fill="#3F3D56"/>
<path d="M742.937 211.044H643.016V214.434H742.937V211.044Z" fill="#3F3D56"/>
<path d="M742.937 224.36H643.016V227.749H742.937V224.36Z" fill="#3F3D56"/>
<path d="M742.937 237.676H643.016V241.065H742.937V237.676Z" fill="#3F3D56"/>
<path d="M820.165 359.543H784.069V356.694C784.069 356.62 784.056 356.547 784.03 356.478C784.004 356.41 783.966 356.348 783.918 356.295C783.87 356.243 783.814 356.201 783.751 356.173C783.688 356.144 783.621 356.13 783.554 356.13H771.178C771.11 356.13 771.043 356.144 770.981 356.173C770.918 356.201 770.861 356.243 770.813 356.295C770.765 356.348 770.727 356.41 770.702 356.478C770.676 356.547 770.662 356.62 770.662 356.694V359.543H762.928V356.694C762.928 356.62 762.914 356.547 762.888 356.478C762.862 356.41 762.825 356.348 762.777 356.295C762.729 356.243 762.672 356.201 762.609 356.173C762.547 356.144 762.48 356.13 762.412 356.13H750.036C749.969 356.13 749.902 356.144 749.839 356.173C749.776 356.201 749.72 356.243 749.672 356.295C749.624 356.348 749.586 356.41 749.56 356.478C749.534 356.547 749.521 356.62 749.521 356.694V356.694V359.543H741.786V356.694C741.786 356.62 741.773 356.547 741.747 356.478C741.721 356.41 741.683 356.348 741.635 356.295C741.587 356.243 741.53 356.201 741.468 356.173C741.405 356.144 741.338 356.13 741.27 356.13H728.895C728.827 356.13 728.76 356.144 728.697 356.173C728.635 356.201 728.578 356.243 728.53 356.295C728.482 356.348 728.444 356.41 728.418 356.478C728.392 356.547 728.379 356.62 728.379 356.694V356.694V359.543H720.644V356.694C720.644 356.62 720.631 356.547 720.605 356.478C720.579 356.41 720.541 356.348 720.493 356.295C720.445 356.243 720.389 356.201 720.326 356.173C720.263 356.144 720.196 356.13 720.129 356.13H707.753C707.685 356.13 707.618 356.144 707.556 356.173C707.493 356.201 707.436 356.243 707.388 356.295C707.341 356.348 707.303 356.41 707.277 356.478C707.251 356.547 707.237 356.62 707.237 356.694V359.543H699.503V356.694C699.503 356.62 699.489 356.547 699.463 356.478C699.438 356.41 699.4 356.348 699.352 356.295C699.304 356.243 699.247 356.201 699.184 356.173C699.122 356.144 699.055 356.13 698.987 356.13H686.611C686.544 356.13 686.477 356.144 686.414 356.173C686.352 356.201 686.295 356.243 686.247 356.295C686.199 356.348 686.161 356.41 686.135 356.478C686.109 356.547 686.096 356.62 686.096 356.694V356.694V359.543H678.361V356.694C678.361 356.62 678.348 356.547 678.322 356.478C678.296 356.41 678.258 356.348 678.21 356.295C678.162 356.243 678.105 356.201 678.043 356.173C677.98 356.144 677.913 356.13 677.845 356.13H665.47C665.402 356.13 665.335 356.144 665.272 356.173C665.21 356.201 665.153 356.243 665.105 356.295C665.057 356.348 665.019 356.41 664.993 356.478C664.967 356.547 664.954 356.62 664.954 356.694V356.694V359.543H657.219V356.694C657.219 356.62 657.206 356.547 657.18 356.478C657.154 356.41 657.116 356.348 657.068 356.295C657.02 356.243 656.964 356.201 656.901 356.173C656.838 356.144 656.771 356.13 656.704 356.13H559.761C559.694 356.13 559.627 356.144 559.564 356.173C559.502 356.201 559.445 356.243 559.397 356.295C559.349 356.348 559.311 356.41 559.285 356.478C559.259 356.547 559.246 356.62 559.246 356.694V356.694V359.543H551.511V356.694C551.511 356.62 551.498 356.547 551.472 356.478C551.446 356.41 551.408 356.348 551.36 356.295C551.312 356.243 551.255 356.201 551.193 356.173C551.13 356.144 551.063 356.13 550.995 356.13H538.62C538.552 356.13 538.485 356.144 538.422 356.173C538.36 356.201 538.303 356.243 538.255 356.295C538.207 356.348 538.169 356.41 538.143 356.478C538.117 356.547 538.104 356.62 538.104 356.694V356.694V359.543H530.369V356.694C530.369 356.62 530.356 356.547 530.33 356.478C530.304 356.41 530.266 356.348 530.218 356.295C530.171 356.243 530.114 356.201 530.051 356.173C529.989 356.144 529.922 356.13 529.854 356.13H517.478C517.41 356.13 517.343 356.144 517.281 356.173C517.218 356.201 517.161 356.243 517.114 356.295C517.066 356.348 517.028 356.41 517.002 356.478C516.976 356.547 516.962 356.62 516.962 356.694V356.694V359.543H509.228V356.694C509.228 356.62 509.214 356.547 509.188 356.478C509.163 356.41 509.125 356.348 509.077 356.295C509.029 356.243 508.972 356.201 508.909 356.173C508.847 356.144 508.78 356.13 508.712 356.13H496.336C496.269 356.13 496.202 356.144 496.139 356.173C496.077 356.201 496.02 356.243 495.972 356.295C495.924 356.348 495.886 356.41 495.86 356.478C495.834 356.547 495.821 356.62 495.821 356.694V356.694V359.543H488.086V356.694C488.086 356.62 488.073 356.547 488.047 356.478C488.021 356.41 487.983 356.348 487.935 356.295C487.887 356.243 487.83 356.201 487.768 356.173C487.705 356.144 487.638 356.13 487.57 356.13H475.195C475.127 356.13 475.06 356.144 474.997 356.173C474.935 356.201 474.878 356.243 474.83 356.295C474.782 356.348 474.744 356.41 474.718 356.478C474.692 356.547 474.679 356.62 474.679 356.694V356.694V359.543H466.944V356.694C466.944 356.62 466.931 356.547 466.905 356.478C466.879 356.41 466.841 356.348 466.793 356.295C466.745 356.243 466.689 356.201 466.626 356.173C466.564 356.144 466.496 356.13 466.429 356.13H454.053C453.916 356.13 453.785 356.189 453.689 356.295C453.592 356.401 453.537 356.545 453.537 356.694V359.543H445.803V356.694C445.803 356.62 445.789 356.547 445.763 356.478C445.738 356.41 445.7 356.348 445.652 356.295C445.604 356.243 445.547 356.201 445.484 356.173C445.422 356.144 445.355 356.13 445.287 356.13H432.911C432.775 356.13 432.644 356.189 432.547 356.295C432.45 356.401 432.396 356.545 432.396 356.694V359.543H408.676C405.394 359.543 402.246 360.972 399.925 363.514C397.604 366.056 396.3 369.505 396.3 373.1V379.23C396.3 382.826 397.604 386.274 399.925 388.816C402.246 391.359 405.394 392.787 408.676 392.787H820.165C823.447 392.787 826.595 391.359 828.916 388.816C831.237 386.274 832.54 382.826 832.54 379.23V373.1C832.54 371.32 832.22 369.557 831.598 367.912C830.976 366.267 830.065 364.773 828.916 363.514C827.766 362.255 826.402 361.257 824.901 360.575C823.399 359.894 821.79 359.543 820.165 359.543V359.543Z" fill="#3F3D56"/>
</svg>
