<svg width="415" height="259" viewBox="0 0 415 259" fill="none" xmlns="http://www.w3.org/2000/svg">
<path d="M20.741 46.1346C52.9724 13.242 134.063 -42.7012 229.478 54.4223C324.894 151.546 311.336 95.3437 311.336 95.3437L229.478 223.806C202.625 270.706 160.896 270.757 38.6473 223.806C-6.63021 197.907 -11.4905 79.0272 20.741 46.1346Z" fill="#057DCD"/>
<path d="M198 123.552C198.003 123.124 197.926 122.699 197.775 122.305C197.624 121.911 197.402 121.556 197.122 121.262C196.843 120.968 196.512 120.742 196.151 120.597C195.789 120.452 195.405 120.391 195.022 120.42C194.638 120.448 194.265 120.564 193.923 120.761C193.582 120.958 193.281 121.231 193.039 121.563C192.796 121.895 192.618 122.28 192.515 122.693C192.411 123.106 192.385 123.538 192.439 123.962L184.411 135.692C184.068 136.457 183.936 137.317 184.029 138.165C184.123 139.013 184.439 139.812 184.937 140.461L185.567 141.28L188.456 140.636L191.731 137.412L191.346 133.758L195.391 126.665L195.386 126.66C196.094 126.609 196.758 126.26 197.244 125.683C197.729 125.106 198 124.344 198 123.552V123.552Z" fill="#FFB9B9"/>
<path d="M144.305 179.04L143 173.902L161.074 166.122L163 173.705L144.305 179.04Z" fill="#FFB8B8"/>
<path d="M140.413 182.021L136 165.415L136.207 165.359C137.899 164.897 139.703 165.136 141.221 166.021C142.74 166.907 143.849 168.368 144.305 170.082L144.305 170.082L147 180.224L140.413 182.021Z" fill="#2F2E41"/>
<path d="M168.679 178.046L165 174.822L173.57 156.186L179 160.944L168.679 178.046Z" fill="#FFB8B8"/>
<path d="M166.608 184.009L155 173.224L155.107 173.036C155.978 171.506 157.29 170.48 158.753 170.184C160.217 169.889 161.712 170.349 162.91 171.462L162.911 171.462L170 178.049L166.608 184.009Z" fill="#2F2E41"/>
<path d="M201.216 152.753L191.576 141.884C190.734 140.935 189.626 140.371 188.455 140.295C187.284 140.219 186.129 140.637 185.202 141.471L167 164.94L168.629 167.882L186.009 154.224L197.776 172.084L209 165.571L201.216 152.753Z" fill="#2F2E41"/>
<path d="M197.812 154.928L190.834 154.254L185.781 152.717C185.495 152.158 185.081 151.722 184.593 151.467C184.104 151.212 183.565 151.15 183.048 151.29C182.531 151.43 182.061 151.765 181.7 152.25C181.338 152.735 181.104 153.347 181.027 154.004C180.951 154.661 181.036 155.331 181.271 155.926C181.507 156.52 181.882 157.01 182.345 157.33C182.808 157.65 183.339 157.784 183.865 157.715C184.391 157.646 184.888 157.378 185.289 156.945L185.288 156.949L188.329 158.521L201.39 164.135L203 162.563L197.812 154.928Z" fill="#FFB9B9"/>
<path d="M214 177.069L209.989 180.034H205.248L183.185 170.504L150.912 177.281L150 169.233L179.539 154.198L205.43 164.151L214 177.069Z" fill="#2F2E41"/>
<path d="M206 126.375C209.866 126.375 213 122.816 213 118.426C213 114.035 209.866 110.476 206 110.476C202.134 110.476 199 114.035 199 118.426C199 122.816 202.134 126.375 206 126.375Z" fill="#FFB9B9"/>
<path d="M225 150.755C225 155.785 224.317 160.785 222.976 165.568L222.438 167.488L219.86 181.166L217.098 182.021L215.072 179.029L211.02 175.609L208.074 170.052L205.547 165.167L204.759 163.641L201.996 147.611L191.499 140.772L188 140.131L188.737 137.779L191.867 132.864L194.998 132.436L195.919 131.581L196.656 132.009L200.716 133.824L213.882 127.369L215.808 127.734L222.438 134.146C224.133 139.463 225.001 145.086 225 150.755V150.755Z" fill="#CCCCCC"/>
<path opacity="0.1" d="M223 149.283L215.811 154.485L205.08 165.129L204.27 163.643L202 151.156H202.568L208.433 139.293L223 149.283Z" fill="black"/>
<path d="M208.901 137.306L203.225 149.695L199.929 154.043L197 154.912L204.873 165.129L216.042 153.173L223 147.739L208.901 137.306Z" fill="#CCCCCC"/>
<path d="M200.524 111.731L199.736 112.062C199.617 111.974 199.514 111.861 199.435 111.729C199.355 111.597 199.3 111.45 199.273 111.295C199.246 111.141 199.247 110.982 199.276 110.827C199.305 110.673 199.361 110.526 199.442 110.396C199.447 110.389 199.451 110.382 199.455 110.375L198 110.301C198.934 108.943 200.122 107.817 201.485 106.997C202.847 106.177 204.354 105.683 205.905 105.547C207.456 105.41 209.015 105.635 210.481 106.205C211.946 106.776 213.284 107.68 214.405 108.858C214.471 108.608 215.194 109.093 215.488 109.584C215.587 109.179 216.265 111.139 216.504 112.524C216.615 112.062 217.041 112.807 216.668 113.521C216.905 113.484 217.012 114.145 216.828 114.513C217.087 114.38 217.044 115.169 216.763 115.696C217.132 115.661 216.731 123.968 211.187 123.363C210.801 121.426 210.909 121.547 210.455 119.057C210.243 118.812 210.012 118.589 209.78 118.366L208.529 117.16C207.074 115.759 205.751 114.029 203.813 113.505C202.481 113.145 201.639 113.063 202.365 111.425C201.709 111.724 201.097 112.168 200.435 112.446C200.444 112.217 200.537 111.96 200.524 111.731Z" fill="#2F2E41"/>
<path d="M184 120.413C184.552 120.413 185 119.746 185 118.922C185 118.099 184.552 117.432 184 117.432C183.448 117.432 183 118.099 183 118.922C183 119.746 183.448 120.413 184 120.413Z" fill="#FFB9B9"/>
<path d="M132.305 84.3016L131.969 91.0536L137.022 91.5032L137.359 84.7512L132.305 84.3016Z" fill="#E6E6E6"/>
<path d="M129.375 87.6216L135 88.18L134.625 96.5647L129 96.0063L129.375 87.6216ZM134.739 88.5202L129.603 88.0104L129.261 95.666L134.397 96.1759L134.739 88.5202Z" fill="#CCCCCC"/>
<path d="M155.661 96.0522L151.965 100.678L155.427 105.617L159.124 100.991L155.661 96.0522Z" fill="#E6E6E6"/>
<path d="M160 95.7659L155.353 101.533L151 95.376L155.647 89.6089L160 95.7659ZM155.366 101.015L159.609 95.749L155.634 90.1273L151.391 95.393L155.366 101.015Z" fill="#CCCCCC"/>
<path d="M400.174 46.8806H224.826C224.193 46.8806 223.565 47.0227 222.979 47.2989C222.394 47.575 221.862 47.9798 221.414 48.49C220.965 49.0002 220.61 49.606 220.367 50.2726C220.125 50.9393 220 51.6538 220 52.3754V163.608C220 164.33 220.125 165.045 220.367 165.711C220.61 166.378 220.965 166.984 221.414 167.494C221.862 168.004 222.394 168.409 222.979 168.685C223.565 168.961 224.192 169.103 224.826 169.103H400.174C401.454 169.103 402.681 168.524 403.586 167.494C404.492 166.463 405 165.066 405 163.608V52.3754C405 50.9181 404.492 49.5205 403.586 48.49C402.681 47.4595 401.454 46.8806 400.174 46.8806V46.8806Z" fill="#3F3D56"/>
<path d="M398 56.8175H226V167.116H398V56.8175Z" fill="white"/>
<path d="M350 167.116H226V56.8175L350 167.116Z" fill="#F2F2F2"/>
<path d="M253.5 159.167C262.613 159.167 270 150.714 270 140.287C270 129.86 262.613 121.407 253.5 121.407C244.387 121.407 237 129.86 237 140.287C237 150.714 244.387 159.167 253.5 159.167Z" fill="#1E3D58"/>
<path d="M257 154.198C253.044 154.198 249.178 152.829 245.889 150.263C242.6 147.697 240.036 144.05 238.522 139.783C237.009 135.516 236.613 130.821 237.384 126.291C238.156 121.761 240.061 117.6 242.858 114.335C245.655 111.069 249.219 108.845 253.098 107.944C256.978 107.043 260.999 107.505 264.654 109.273C268.308 111.04 271.432 114.033 273.629 117.873C275.827 121.713 277 126.228 277 130.847C277 133.913 276.483 136.95 275.478 139.783C274.472 142.616 272.999 145.19 271.142 147.359C269.285 149.527 267.08 151.247 264.654 152.421C262.227 153.594 259.626 154.198 257 154.198V154.198ZM257 107.8C253.096 107.8 249.28 109.152 246.034 111.684C242.788 114.217 240.258 117.816 238.764 122.027C237.27 126.238 236.879 130.872 237.641 135.343C238.402 139.813 240.282 143.92 243.043 147.143C245.803 150.366 249.32 152.561 253.149 153.45C256.978 154.339 260.947 153.883 264.554 152.139C268.16 150.394 271.243 147.44 273.412 143.65C275.581 139.861 276.739 135.405 276.739 130.847C276.739 127.82 276.228 124.823 275.236 122.027C274.244 119.231 272.79 116.691 270.957 114.551C269.124 112.411 266.948 110.713 264.554 109.555C262.159 108.397 259.592 107.8 257 107.8L257 107.8Z" fill="#3F3D56"/>
<path d="M311 114.451H297V118.426H311V114.451Z" fill="#3F3D56"/>
<path d="M325 93.5836H285V95.571H325V93.5836Z" fill="#3F3D56"/>
<path d="M325 100.539H285V101.533H325V100.539Z" fill="#3F3D56"/>
<path d="M325 106.501H285V108.489H325V106.501Z" fill="#3F3D56"/>
<path d="M409.27 165.801H392.556V164.411C392.556 164.374 392.549 164.339 392.537 164.305C392.525 164.272 392.508 164.241 392.486 164.216C392.463 164.19 392.437 164.17 392.408 164.156C392.379 164.142 392.348 164.135 392.317 164.135H386.586C386.555 164.135 386.524 164.142 386.495 164.156C386.466 164.17 386.44 164.19 386.417 164.216C386.395 164.241 386.378 164.272 386.366 164.305C386.354 164.339 386.347 164.374 386.347 164.411V165.801H382.766V164.411C382.766 164.374 382.76 164.339 382.748 164.305C382.736 164.272 382.718 164.241 382.696 164.216C382.674 164.19 382.648 164.17 382.619 164.156C382.59 164.142 382.559 164.135 382.527 164.135H376.797C376.765 164.135 376.734 164.142 376.705 164.156C376.676 164.17 376.65 164.19 376.628 164.216C376.606 164.241 376.588 164.272 376.576 164.305C376.564 164.339 376.558 164.374 376.558 164.411V164.411V165.801H372.976V164.411C372.976 164.374 372.97 164.339 372.958 164.305C372.946 164.272 372.929 164.241 372.906 164.216C372.884 164.19 372.858 164.17 372.829 164.156C372.8 164.142 372.769 164.135 372.738 164.135H367.007C366.976 164.135 366.945 164.142 366.916 164.156C366.887 164.17 366.86 164.19 366.838 164.216C366.816 164.241 366.798 164.272 366.786 164.305C366.774 164.339 366.768 164.374 366.768 164.411V164.411V165.801H363.187V164.411C363.187 164.374 363.181 164.339 363.169 164.305C363.157 164.272 363.139 164.241 363.117 164.216C363.095 164.19 363.068 164.17 363.039 164.156C363.01 164.142 362.979 164.135 362.948 164.135H357.218C357.186 164.135 357.155 164.142 357.126 164.156C357.097 164.17 357.071 164.19 357.049 164.216C357.027 164.241 357.009 164.272 356.997 164.305C356.985 164.339 356.979 164.374 356.979 164.411V165.801H353.397V164.411C353.397 164.374 353.391 164.339 353.379 164.305C353.367 164.272 353.349 164.241 353.327 164.216C353.305 164.19 353.279 164.17 353.25 164.156C353.221 164.142 353.19 164.135 353.158 164.135H347.428C347.397 164.135 347.366 164.142 347.337 164.156C347.308 164.17 347.281 164.19 347.259 164.216C347.237 164.241 347.219 164.272 347.207 164.305C347.195 164.339 347.189 164.374 347.189 164.411V164.411V165.801H343.608V164.411C343.608 164.374 343.601 164.339 343.589 164.305C343.577 164.272 343.56 164.241 343.538 164.216C343.515 164.19 343.489 164.17 343.46 164.156C343.431 164.142 343.4 164.135 343.369 164.135H337.638C337.607 164.135 337.576 164.142 337.547 164.156C337.518 164.17 337.492 164.19 337.469 164.216C337.447 164.241 337.43 164.272 337.418 164.305C337.406 164.339 337.4 164.374 337.4 164.411V164.411V165.801H333.818V164.411C333.818 164.374 333.812 164.339 333.8 164.305C333.788 164.272 333.77 164.241 333.748 164.216C333.726 164.19 333.7 164.17 333.671 164.156C333.642 164.142 333.611 164.135 333.579 164.135H288.69C288.659 164.135 288.628 164.142 288.599 164.156C288.57 164.17 288.544 164.19 288.521 164.216C288.499 164.241 288.482 164.272 288.47 164.305C288.458 164.339 288.452 164.374 288.452 164.411V164.411V165.801H284.87V164.411C284.87 164.374 284.864 164.339 284.852 164.305C284.84 164.272 284.822 164.241 284.8 164.216C284.778 164.19 284.752 164.17 284.723 164.156C284.694 164.142 284.663 164.135 284.631 164.135H278.901C278.869 164.135 278.838 164.142 278.809 164.156C278.78 164.17 278.754 164.19 278.732 164.216C278.71 164.241 278.692 164.272 278.68 164.305C278.668 164.339 278.662 164.374 278.662 164.411V164.411V165.801H275.08V164.411C275.08 164.374 275.074 164.339 275.062 164.305C275.05 164.272 275.033 164.241 275.01 164.216C274.988 164.19 274.962 164.17 274.933 164.156C274.904 164.142 274.873 164.135 274.842 164.135H269.111C269.08 164.135 269.049 164.142 269.02 164.156C268.991 164.17 268.964 164.19 268.942 164.216C268.92 164.241 268.903 164.272 268.891 164.305C268.879 164.339 268.872 164.374 268.872 164.411V164.411V165.801H265.291V164.411C265.291 164.374 265.285 164.339 265.273 164.305C265.261 164.272 265.243 164.241 265.221 164.216C265.199 164.19 265.172 164.17 265.143 164.156C265.114 164.142 265.083 164.135 265.052 164.135H259.322C259.29 164.135 259.259 164.142 259.23 164.156C259.201 164.17 259.175 164.19 259.153 164.216C259.131 164.241 259.113 164.272 259.101 164.305C259.089 164.339 259.083 164.374 259.083 164.411V164.411V165.801H255.501V164.411C255.501 164.374 255.495 164.339 255.483 164.305C255.471 164.272 255.453 164.241 255.431 164.216C255.409 164.19 255.383 164.17 255.354 164.156C255.325 164.142 255.294 164.135 255.262 164.135H249.532C249.501 164.135 249.47 164.142 249.441 164.156C249.412 164.17 249.385 164.19 249.363 164.216C249.341 164.241 249.323 164.272 249.311 164.305C249.299 164.339 249.293 164.374 249.293 164.411V164.411V165.801H245.712V164.411C245.712 164.374 245.705 164.339 245.693 164.305C245.681 164.272 245.664 164.241 245.642 164.216C245.619 164.19 245.593 164.17 245.564 164.156C245.535 164.142 245.504 164.135 245.473 164.135H239.742C239.679 164.135 239.618 164.164 239.573 164.216C239.529 164.267 239.504 164.338 239.504 164.411V165.801H235.922V164.411C235.922 164.374 235.916 164.339 235.904 164.305C235.892 164.272 235.874 164.241 235.852 164.216C235.83 164.19 235.804 164.17 235.775 164.156C235.746 164.142 235.715 164.135 235.683 164.135H229.953C229.889 164.135 229.829 164.164 229.784 164.216C229.739 164.267 229.714 164.338 229.714 164.411V165.801H218.73C217.211 165.801 215.753 166.498 214.678 167.738C213.604 168.979 213 170.661 213 172.415V175.406C213 177.161 213.604 178.843 214.678 180.084C215.753 181.324 217.211 182.021 218.73 182.021H409.27C410.789 182.021 412.247 181.324 413.322 180.084C414.396 178.843 415 177.161 415 175.406V172.415C415 171.547 414.852 170.687 414.564 169.884C414.276 169.082 413.854 168.352 413.322 167.738C412.789 167.124 412.158 166.637 411.462 166.304C410.767 165.972 410.022 165.801 409.27 165.801V165.801Z" fill="#3F3D56"/>
</svg>
