<svg width="375" height="332" viewBox="0 0 375 332" fill="none" xmlns="http://www.w3.org/2000/svg">
<path d="M-43 41.9397C329.775 -17.9648 388.527 -9.84791 396 41.9397C396 41.9397 396 248.44 361 299.94C326 351.44 255 325.94 181.5 320.44C108 314.94 -12 296.5 -27.5 263C-43 229.5 -72 165.44 -72 165.44L-43 41.9397Z" fill="#1E3D58"/>
<path d="M267.389 227.967C265.293 235.539 257.946 240.271 257.946 240.271C257.946 240.271 253.999 232.727 256.095 225.155C258.192 217.583 265.538 212.851 265.538 212.851C265.538 212.851 269.486 220.396 267.389 227.967Z" fill="#057DCD"/>
<path d="M264.209 226.366C258.337 231.868 257.68 240.267 257.68 240.267C257.68 240.267 266.544 239.746 272.416 234.244C278.288 228.741 278.945 220.342 278.945 220.342C278.945 220.342 270.081 220.864 264.209 226.366Z" fill="#1E3D58"/>
<path d="M51.4446 199.324H62.5032L89.7548 189.211C89.7548 189.211 109.107 181.719 107.528 195.953C105.948 210.187 103.183 229.29 103.183 229.29C103.183 229.29 94.4942 225.544 89.7548 226.668C85.0154 227.792 88.175 203.819 88.175 203.819C88.175 203.819 49.4698 221.424 45.9153 219.177C42.3607 216.929 41.5708 201.197 41.5708 201.197L51.4446 199.324Z" fill="#2F2E41"/>
<path opacity="0.1" d="M51.4446 199.324H62.5032L89.7548 189.211C89.7548 189.211 109.107 181.719 107.528 195.953C105.948 210.187 103.183 229.29 103.183 229.29C103.183 229.29 94.4942 225.544 89.7548 226.668C85.0154 227.792 88.175 203.819 88.175 203.819C88.175 203.819 49.4698 221.424 45.9153 219.177C42.3607 216.929 41.5708 201.197 41.5708 201.197L51.4446 199.324Z" fill="black"/>
<path d="M68.8676 166.479L82.2508 184.716L113.452 209.438C113.452 209.438 142.283 215.805 138.334 220.3C134.384 224.795 110.292 215.805 110.292 215.805C110.292 215.805 74.3518 191.084 73.1669 189.211C71.9821 187.338 58.9487 169.733 58.9487 169.733L68.8676 166.479Z" fill="#CF969E"/>
<path opacity="0.1" d="M68.8676 166.479L82.2508 184.716L113.452 209.438C113.452 209.438 142.283 215.805 138.334 220.3C134.384 224.795 110.292 215.805 110.292 215.805C110.292 215.805 74.3518 191.084 73.1669 189.211C71.9821 187.338 58.9487 169.733 58.9487 169.733L68.8676 166.479Z" fill="black"/>
<path d="M60.9233 151.753L69.6122 167.86C69.6122 167.86 67.6374 175.726 64.4778 176.475C61.3182 177.224 47.8899 166.736 47.8899 166.736L60.9233 151.753Z" fill="#D0CDE1"/>
<path opacity="0.1" d="M60.9233 151.753L69.6122 167.86C69.6122 167.86 67.6374 175.726 64.4778 176.475C61.3182 177.224 47.8899 166.736 47.8899 166.736L60.9233 151.753Z" fill="black"/>
<path d="M166.924 190.985L169.491 201.026C169.52 201.138 169.515 201.255 169.478 201.365L157.835 235.872C157.789 236.008 157.695 236.126 157.569 236.204C157.442 236.283 157.291 236.319 157.141 236.305C156.99 236.29 156.849 236.228 156.741 236.127C156.634 236.026 156.566 235.894 156.548 235.751L154.938 222.309C154.927 222.219 154.937 222.129 154.966 222.044L165.653 190.938C165.698 190.808 165.786 190.696 165.904 190.618C166.022 190.54 166.163 190.5 166.307 190.506C166.451 190.511 166.589 190.561 166.7 190.647C166.812 190.734 166.89 190.852 166.924 190.985Z" fill="#2F2E41"/>
<path d="M165.98 191.833L168.35 200.448L158.081 231.912L155.711 222.173L165.98 191.833Z" fill="#F2F2F2"/>
<path d="M114.242 238.655C114.637 239.778 155.317 238.28 155.712 237.905C156.056 237.436 156.347 236.934 156.58 236.407C156.952 235.658 157.291 234.909 157.291 234.909L155.712 222.78L115.427 221.424C115.427 221.424 114.419 231.702 114.214 236.407C114.163 237.594 114.163 238.43 114.242 238.655Z" fill="#2F2E41"/>
<path opacity="0.1" d="M150.577 224.421L151.367 234.909H133.594V224.421H150.577Z" fill="black"/>
<path opacity="0.1" d="M127.67 227.792L127.776 227.772L127.275 232.287H117.401V227.792H127.67Z" fill="black"/>
<path opacity="0.1" d="M114.242 238.655C114.637 239.778 155.317 238.28 155.712 237.905C156.056 237.436 156.347 236.934 156.58 236.407H114.214C114.163 237.594 114.163 238.43 114.242 238.655Z" fill="black"/>
<path d="M66.8475 146.509C76.6631 146.509 84.6202 138.962 84.6202 129.653C84.6202 120.344 76.6631 112.797 66.8475 112.797C57.0318 112.797 49.0747 120.344 49.0747 129.653C49.0747 138.962 57.0318 146.509 66.8475 146.509Z" fill="#CF969E"/>
<path d="M65.6628 144.636C65.6628 144.636 59.7385 154.375 58.5536 159.619C57.3688 164.863 40.7809 149.131 40.7809 149.131L38.6086 143.7C38.6086 143.7 54.2092 136.77 53.0243 131.152C51.8395 125.533 65.6628 144.636 65.6628 144.636Z" fill="#CF969E"/>
<path d="M68.8224 173.853L85.0153 194.08L123.72 221.424C123.72 221.424 151.762 227.043 145.443 231.163C139.124 235.283 120.956 227.417 120.956 227.417C120.956 227.417 81.8557 207.565 73.5618 199.324C65.2678 191.084 49.8647 177.224 49.8647 177.224L68.8224 173.853Z" fill="#CF969E"/>
<path d="M47.1 205.317L51.8394 212.434L80.1247 203.995C86.3309 202.143 93.1363 202.824 98.6411 206.113C103.578 209.063 106.738 213.745 99.6284 220.675C85.4102 234.534 75.9314 227.043 75.9314 227.043C75.9314 227.043 28.1424 248.393 20.2434 237.905C12.3444 227.417 11.9495 222.173 11.9495 222.173C11.9495 222.173 42.3606 204.194 47.1 205.317Z" fill="#2F2E41"/>
<path d="M106.343 230.039C106.343 230.039 118.981 237.905 103.973 241.651C88.9648 245.397 77.9062 240.153 77.9062 240.153C77.9062 240.153 64.8728 240.153 64.8728 233.785C64.8728 227.417 69.2173 226.668 69.2173 226.668L82.6456 228.541C82.6456 228.541 98.8385 224.421 106.343 230.039Z" fill="#D0CDE1"/>
<path d="M81.4276 125.413C82.6373 125.925 83.8368 126.53 85.152 126.678C86.4671 126.827 87.9647 126.391 88.587 125.283C88.9231 124.684 88.9615 123.979 88.9772 123.301C89.0248 121.244 88.8679 119.02 87.4936 117.429C86.6189 116.416 85.3421 115.777 84.4368 114.788C83.7881 114.08 83.3564 113.222 82.8915 112.394C81.1308 109.257 78.5237 106.243 74.9005 105.339C73.3875 104.961 71.8004 104.98 70.236 105.001L61.1118 105.123C59.6352 105.143 58.1359 105.166 56.7224 105.571C53.7855 106.413 51.6472 108.755 49.6888 110.995C48.2236 112.671 46.7546 114.364 45.655 116.275C44.0784 119.064 43.2812 122.189 43.3394 125.353C43.3272 126.164 43.4376 126.973 43.6674 127.755C43.9362 128.472 44.2692 129.165 44.6628 129.829C46.374 133.016 47.3899 136.997 45.4629 140.072C48.8104 138.775 52.1224 137.075 54.3306 134.359C55.3184 133.144 56.0931 131.722 57.4096 130.831C58.7261 129.939 60.8711 129.862 61.7158 131.17C62.0061 131.699 62.1556 132.288 62.1513 132.885C62.2129 133.867 62.2113 134.887 62.6503 135.778C63.0894 136.67 64.1352 137.389 65.1337 137.122C66.8533 136.663 66.6886 134.16 68.0131 133.023C69.0189 132.159 70.5707 132.324 71.863 131.932C73.3685 131.475 74.4982 130.238 75.1419 128.869C75.6312 127.828 75.6241 125.105 76.55 124.541C77.711 123.834 80.3514 124.958 81.4276 125.413Z" fill="#2F2E41"/>
<path d="M37.1978 141.923C37.9974 141.721 38.8391 141.723 39.6376 141.929C42.1729 142.574 47.8563 144.283 49.0748 146.884C50.6546 150.255 56.1839 155.499 56.1839 155.499C56.1839 155.499 63.688 162.616 62.1082 167.485C60.5284 172.355 54.6041 177.973 54.6041 177.973C54.6041 177.973 56.1839 201.197 48.2849 207.19C40.3859 213.183 37.2263 209.063 37.2263 214.682C37.2263 220.3 12.7394 237.905 8 227.043C8 227.043 10.3697 206.816 9.5798 199.699C8.80129 192.684 9.94099 148.921 37.1978 141.923Z" fill="#D0CDE1"/>
<path d="M49.8648 151.379C49.8648 151.379 73.9568 168.234 69.6123 175.351C69.6123 175.351 54.9992 182.094 51.8396 181.719C48.68 181.345 36.4365 168.234 33.2769 167.111C30.1173 165.987 28.5375 145.76 49.8648 151.379Z" fill="#D0CDE1"/>
<path d="M157.503 114.104C168.278 114.104 177.014 105.82 177.014 95.6001C177.014 85.3804 168.278 77.0957 157.503 77.0957C146.727 77.0957 137.992 85.3804 137.992 95.6001C137.992 105.82 146.727 114.104 157.503 114.104Z" fill="#F2F2F2"/>
<path d="M318.653 71.5679H209.317V49.8696H318.653V71.5679ZM209.799 71.1111H318.171V50.3264H209.799V71.1111Z" fill="#057DCD"/>
<path d="M310.705 54.2093H201.851V75.4508H310.705V54.2093Z" fill="#1E3D58"/>
<path d="M133.04 33.9385C133.971 33.9385 134.725 33.2227 134.725 32.3397C134.725 31.4566 133.971 30.7408 133.04 30.7408C132.109 30.7408 131.354 31.4566 131.354 32.3397C131.354 33.2227 132.109 33.9385 133.04 33.9385Z" fill="#1E3D58"/>
<path d="M138.819 33.9385C139.75 33.9385 140.505 33.2227 140.505 32.3397C140.505 31.4566 139.75 30.7408 138.819 30.7408C137.888 30.7408 137.134 31.4566 137.134 32.3397C137.134 33.2227 137.888 33.9385 138.819 33.9385Z" fill="#1E3D58"/>
<path d="M144.599 33.9385C145.53 33.9385 146.285 33.2227 146.285 32.3397C146.285 31.4566 145.53 30.7408 144.599 30.7408C143.668 30.7408 142.914 31.4566 142.914 32.3397C142.914 33.2227 143.668 33.9385 144.599 33.9385Z" fill="#1E3D58"/>
<path d="M331 153.165H128.223V28H331V153.165ZM128.705 152.708H330.518V28.4568H128.705V152.708Z" fill="#057DCD"/>
<path d="M330.759 34.9286H128.464V35.3854H330.759V34.9286Z" fill="#057DCD"/>
<path d="M133.521 33.4817C133.14 33.4817 132.768 33.3745 132.451 33.1737C132.134 32.973 131.887 32.6876 131.741 32.3537C131.595 32.0198 131.557 31.6524 131.632 31.298C131.706 30.9435 131.889 30.618 132.159 30.3624C132.428 30.1069 132.772 29.9328 133.145 29.8623C133.519 29.7918 133.906 29.828 134.258 29.9663C134.61 30.1046 134.911 30.3388 135.123 30.6393C135.335 30.9398 135.448 31.2931 135.448 31.6545C135.447 32.1389 135.244 32.6033 134.883 32.9459C134.522 33.2884 134.032 33.4811 133.521 33.4817ZM133.521 30.284C133.235 30.284 132.956 30.3644 132.718 30.515C132.481 30.6656 132.296 30.8796 132.186 31.13C132.077 31.3804 132.048 31.656 132.104 31.9218C132.16 32.1876 132.297 32.4318 132.499 32.6235C132.701 32.8151 132.959 32.9457 133.239 32.9985C133.519 33.0514 133.81 33.0243 134.074 32.9206C134.338 32.8168 134.564 32.6412 134.723 32.4158C134.881 32.1905 134.966 31.9255 134.966 31.6545C134.966 31.2911 134.813 30.9428 134.542 30.6859C134.271 30.429 133.904 30.2845 133.521 30.284Z" fill="#057DCD"/>
<path d="M139.301 33.4817C138.92 33.4817 138.548 33.3745 138.231 33.1737C137.914 32.973 137.667 32.6876 137.521 32.3537C137.375 32.0198 137.337 31.6524 137.412 31.298C137.486 30.9435 137.669 30.618 137.939 30.3624C138.208 30.1069 138.552 29.9328 138.925 29.8623C139.299 29.7918 139.686 29.828 140.038 29.9663C140.39 30.1046 140.691 30.3388 140.903 30.6393C141.115 30.9398 141.228 31.2931 141.228 31.6545C141.227 32.1389 141.024 32.6033 140.663 32.9459C140.302 33.2884 139.812 33.4811 139.301 33.4817ZM139.301 30.284C139.015 30.284 138.736 30.3644 138.498 30.515C138.261 30.6656 138.076 30.8796 137.966 31.13C137.857 31.3804 137.828 31.656 137.884 31.9218C137.94 32.1876 138.077 32.4318 138.279 32.6235C138.481 32.8151 138.739 32.9457 139.019 32.9985C139.3 33.0514 139.59 33.0243 139.854 32.9206C140.118 32.8168 140.344 32.6412 140.503 32.4158C140.661 32.1905 140.746 31.9255 140.746 31.6545C140.746 31.2911 140.593 30.9428 140.322 30.6859C140.051 30.429 139.684 30.2845 139.301 30.284Z" fill="#057DCD"/>
<path d="M145.081 33.4817C144.7 33.4817 144.327 33.3745 144.011 33.1737C143.694 32.973 143.447 32.6876 143.301 32.3537C143.155 32.0198 143.117 31.6524 143.191 31.298C143.266 30.9435 143.449 30.618 143.719 30.3624C143.988 30.1069 144.331 29.9328 144.705 29.8623C145.079 29.7918 145.466 29.828 145.818 29.9663C146.17 30.1046 146.471 30.3388 146.683 30.6393C146.895 30.9398 147.008 31.2931 147.008 31.6544C147.007 32.1389 146.804 32.6033 146.443 32.9459C146.081 33.2884 145.592 33.4811 145.081 33.4817ZM145.081 30.284C144.795 30.284 144.516 30.3644 144.278 30.515C144.041 30.6656 143.855 30.8796 143.746 31.13C143.637 31.3804 143.608 31.656 143.664 31.9218C143.719 32.1876 143.857 32.4318 144.059 32.6235C144.261 32.8151 144.519 32.9457 144.799 32.9985C145.079 33.0514 145.37 33.0243 145.634 32.9206C145.898 32.8168 146.124 32.6412 146.282 32.4158C146.441 32.1905 146.526 31.9255 146.526 31.6545C146.525 31.2911 146.373 30.9428 146.102 30.6859C145.831 30.429 145.464 30.2845 145.081 30.284Z" fill="#057DCD"/>
<path d="M192.218 35.157H191.736V153.114H192.218V35.157Z" fill="#057DCD"/>
<path d="M250.138 93.1521H214.736V97.7201H250.138V93.1521Z" fill="#F2F2F2"/>
<path d="M305.768 93.1521H270.367V97.7201H305.768V93.1521Z" fill="#F2F2F2"/>
<path d="M252.305 95.6645H216.421V90.6396H252.305V95.6645ZM216.903 95.2077H251.823V91.0964H216.903V95.2077Z" fill="#057DCD"/>
<path d="M250.138 128.555H214.736V133.123H250.138V128.555Z" fill="#F2F2F2"/>
<path d="M252.305 131.067H216.421V126.042H252.305V131.067ZM216.903 130.61H251.823V126.499H216.903V130.61Z" fill="#057DCD"/>
<path d="M305.889 110.397H214.856V114.965H305.889V110.397Z" fill="#F2F2F2"/>
<path d="M308.056 113.366H216.542V108.341H308.056V113.366ZM217.023 112.909H307.575V108.798H217.023V112.909Z" fill="#057DCD"/>
<path d="M307.936 95.6645H272.053V90.6396H307.936V95.6645ZM272.534 95.2077H307.454V91.0964H272.534V95.2077Z" fill="#057DCD"/>
<path d="M160.805 109.265C156.886 109.265 153.056 108.163 149.798 106.098C146.54 104.034 144.001 101.099 142.502 97.666C141.002 94.2328 140.61 90.455 141.374 86.8102C142.139 83.1655 144.026 79.8176 146.796 77.1899C149.567 74.5622 153.097 72.7728 156.94 72.0478C160.783 71.3228 164.766 71.6949 168.386 73.117C172.006 74.5391 175.1 76.9473 177.277 80.0372C179.454 83.127 180.616 86.7597 180.616 90.4758C180.61 95.4572 178.521 100.233 174.807 103.755C171.093 107.278 166.057 109.259 160.805 109.265ZM160.805 72.2561C157.005 72.2561 153.291 73.3247 150.132 75.3267C146.973 77.3287 144.51 80.1742 143.056 83.5034C141.602 86.8326 141.222 90.496 141.963 94.0303C142.704 97.5645 144.534 100.811 147.221 103.359C149.907 105.907 153.33 107.642 157.057 108.345C160.783 109.048 164.646 108.688 168.156 107.309C171.667 105.93 174.667 103.594 176.778 100.598C178.889 97.6019 180.016 94.0793 180.016 90.4758C180.01 85.6453 177.984 81.0143 174.382 77.5986C170.781 74.1829 165.898 72.2616 160.805 72.2561Z" fill="#057DCD"/>
<path d="M317.493 239.934H232.545V240.503H317.493V239.934Z" fill="#057DCD"/>
</svg>
