<svg width="425" height="246" viewBox="0 0 425 246" fill="none" xmlns="http://www.w3.org/2000/svg">
<path d="M417.357 111.394C410.082 165.638 395.814 248.484 195.163 221.521C-5.4889 194.558 8.54444 141.223 8.54444 141.223C2.04163 132.841 107.8 -26.5972 193.204 31.6938C278.608 89.9849 411.876 36.274 417.357 111.394Z" fill="#057DCD"/>
<path d="M47.2607 106.135L48.7217 106.983C48.1058 107.957 47.7871 108.946 47.7656 109.948V111.742H45.3057V110.131C45.3057 109.458 45.4919 108.742 45.8643 107.982C46.2438 107.216 46.7093 106.6 47.2607 106.135ZM50.9453 106.135L52.4062 106.983C51.7904 107.957 51.4717 108.946 51.4502 109.948V111.742H48.9902V110.131C48.9902 109.458 49.1764 108.742 49.5488 107.982C49.9284 107.216 50.3939 106.6 50.9453 106.135ZM63.8467 116.222H57.6592V120.411H64.9209V123H54.4365V107.359H64.8994V109.97H57.6592V113.697H63.8467V116.222ZM60.4844 103.138H63.8682L60.8926 106.468H58.3682L60.4844 103.138ZM75.8027 108.52V111.377H77.79V113.654H75.8027V119.455C75.8027 119.885 75.8851 120.193 76.0498 120.379C76.2145 120.565 76.5296 120.658 76.9951 120.658C77.3389 120.658 77.6432 120.633 77.9082 120.583V122.936C77.2995 123.122 76.6729 123.215 76.0283 123.215C73.8512 123.215 72.7412 122.116 72.6982 119.917V113.654H71.001V111.377H72.6982V108.52H75.8027ZM86.2549 123C86.1117 122.721 86.0078 122.373 85.9434 121.958C85.1914 122.796 84.2139 123.215 83.0107 123.215C81.8721 123.215 80.9268 122.885 80.1748 122.227C79.43 121.568 79.0576 120.737 79.0576 119.734C79.0576 118.503 79.5124 117.557 80.4219 116.898C81.3385 116.24 82.6598 115.907 84.3857 115.899H85.8145V115.233C85.8145 114.696 85.6748 114.267 85.3955 113.944C85.1234 113.622 84.6901 113.461 84.0957 113.461C83.5729 113.461 83.1611 113.586 82.8604 113.837C82.5667 114.088 82.4199 114.431 82.4199 114.868H79.3154C79.3154 114.195 79.5231 113.572 79.9385 112.999C80.3538 112.426 80.9411 111.979 81.7002 111.656C82.4593 111.327 83.3115 111.162 84.2568 111.162C85.6891 111.162 86.8242 111.524 87.6621 112.247C88.5072 112.963 88.9297 113.973 88.9297 115.276V120.314C88.9368 121.417 89.0908 122.252 89.3916 122.817V123H86.2549ZM83.6875 120.841C84.1458 120.841 84.5684 120.741 84.9551 120.54C85.3418 120.332 85.6283 120.057 85.8145 119.713V117.715H84.6543C83.1003 117.715 82.2731 118.252 82.1729 119.326L82.1621 119.509C82.1621 119.896 82.2982 120.214 82.5703 120.465C82.8424 120.715 83.2148 120.841 83.6875 120.841ZM88.2852 106.64C88.2852 107.449 88.0488 108.129 87.5762 108.681C87.1035 109.225 86.527 109.497 85.8467 109.497C85.5745 109.497 85.3311 109.468 85.1162 109.411C84.9085 109.347 84.6185 109.214 84.2461 109.014C83.8737 108.813 83.6051 108.691 83.4404 108.648C83.2757 108.598 83.0967 108.573 82.9033 108.573C82.6527 108.573 82.4378 108.663 82.2588 108.842C82.0869 109.021 82.001 109.275 82.001 109.604L80.1963 109.497C80.1963 108.702 80.429 108.025 80.8945 107.467C81.3672 106.908 81.9437 106.629 82.624 106.629C82.8389 106.629 83.0394 106.658 83.2256 106.715C83.4189 106.765 83.7305 106.894 84.1602 107.102C84.5898 107.309 84.887 107.435 85.0518 107.478C85.2165 107.521 85.3883 107.542 85.5674 107.542C85.818 107.542 86.0329 107.456 86.2119 107.284C86.3981 107.105 86.4912 106.851 86.4912 106.521L88.2852 106.64ZM90.8311 117.081C90.8311 115.928 91.0531 114.9 91.4971 113.998C91.9411 113.096 92.5785 112.397 93.4092 111.903C94.2471 111.409 95.2174 111.162 96.3203 111.162C97.8887 111.162 99.167 111.642 100.155 112.602C101.151 113.561 101.706 114.865 101.82 116.512L101.842 117.307C101.842 119.09 101.344 120.522 100.349 121.604C99.3532 122.678 98.0176 123.215 96.3418 123.215C94.666 123.215 93.3268 122.678 92.3242 121.604C91.3288 120.529 90.8311 119.068 90.8311 117.221V117.081ZM93.9355 117.307C93.9355 118.41 94.1432 119.255 94.5586 119.842C94.974 120.422 95.5684 120.712 96.3418 120.712C97.0938 120.712 97.681 120.425 98.1035 119.853C98.526 119.272 98.7373 118.349 98.7373 117.081C98.7373 116 98.526 115.162 98.1035 114.567C97.681 113.973 97.0866 113.676 96.3203 113.676C95.5612 113.676 94.974 113.973 94.5586 114.567C94.1432 115.155 93.9355 116.068 93.9355 117.307ZM112.509 123H109.394V111.377H112.509V123ZM109.211 108.369C109.211 107.904 109.365 107.521 109.673 107.22C109.988 106.919 110.414 106.769 110.951 106.769C111.481 106.769 111.904 106.919 112.219 107.22C112.534 107.521 112.691 107.904 112.691 108.369C112.691 108.842 112.53 109.229 112.208 109.529C111.893 109.83 111.474 109.98 110.951 109.98C110.428 109.98 110.006 109.83 109.684 109.529C109.368 109.229 109.211 108.842 109.211 108.369ZM117.934 111.377L118.03 112.72C118.861 111.681 119.975 111.162 121.371 111.162C122.603 111.162 123.52 111.524 124.121 112.247C124.723 112.97 125.031 114.052 125.045 115.491V123H121.94V115.566C121.94 114.908 121.797 114.431 121.511 114.138C121.224 113.837 120.748 113.687 120.082 113.687C119.208 113.687 118.553 114.059 118.116 114.804V123H115.012V111.377H117.934ZM132.242 120.712C132.815 120.712 133.281 120.554 133.639 120.239C133.997 119.924 134.183 119.505 134.197 118.982H137.108C137.101 119.77 136.886 120.493 136.464 121.152C136.041 121.804 135.461 122.312 134.724 122.678C133.993 123.036 133.184 123.215 132.296 123.215C130.634 123.215 129.324 122.688 128.364 121.636C127.405 120.576 126.925 119.115 126.925 117.253V117.049C126.925 115.258 127.401 113.83 128.354 112.763C129.306 111.696 130.613 111.162 132.274 111.162C133.728 111.162 134.892 111.577 135.766 112.408C136.646 113.232 137.094 114.331 137.108 115.706H134.197C134.183 115.104 133.997 114.618 133.639 114.245C133.281 113.866 132.808 113.676 132.221 113.676C131.497 113.676 130.95 113.941 130.577 114.471C130.212 114.993 130.029 115.846 130.029 117.027V117.35C130.029 118.546 130.212 119.405 130.577 119.928C130.942 120.451 131.497 120.712 132.242 120.712ZM145.412 114.288C144.99 114.231 144.617 114.202 144.295 114.202C143.12 114.202 142.351 114.6 141.985 115.395V123H138.881V111.377H141.813L141.899 112.763C142.522 111.696 143.385 111.162 144.488 111.162C144.832 111.162 145.154 111.209 145.455 111.302L145.412 114.288ZM150.268 123H147.163V111.377H150.268V123ZM149.354 106.661H152.738L149.763 109.991H147.238L149.354 106.661ZM157.304 119.208L159.463 111.377H162.707L158.786 123H155.821L151.9 111.377H155.145L157.304 119.208ZM169.281 123.215C167.577 123.215 166.188 122.692 165.113 121.646C164.046 120.601 163.513 119.208 163.513 117.468V117.167C163.513 116 163.738 114.958 164.189 114.041C164.641 113.117 165.278 112.408 166.102 111.914C166.932 111.413 167.878 111.162 168.938 111.162C170.527 111.162 171.777 111.663 172.687 112.666C173.603 113.669 174.062 115.09 174.062 116.931V118.198H166.66C166.76 118.957 167.061 119.566 167.562 120.024C168.071 120.483 168.712 120.712 169.485 120.712C170.681 120.712 171.616 120.279 172.289 119.412L173.814 121.12C173.349 121.779 172.719 122.295 171.924 122.667C171.129 123.032 170.248 123.215 169.281 123.215ZM168.927 113.676C168.311 113.676 167.81 113.883 167.423 114.299C167.043 114.714 166.8 115.309 166.692 116.082H171.011V115.835C170.996 115.147 170.81 114.618 170.452 114.245C170.094 113.866 169.586 113.676 168.927 113.676ZM179.11 123H175.995V106.5H179.11V123ZM191.99 120.712C192.563 120.712 193.029 120.554 193.387 120.239C193.745 119.924 193.931 119.505 193.945 118.982H196.856C196.849 119.77 196.634 120.493 196.212 121.152C195.789 121.804 195.209 122.312 194.472 122.678C193.741 123.036 192.932 123.215 192.044 123.215C190.382 123.215 189.072 122.688 188.112 121.636C187.153 120.576 186.673 119.115 186.673 117.253V117.049C186.673 115.258 187.149 113.83 188.102 112.763C189.054 111.696 190.361 111.162 192.022 111.162C193.476 111.162 194.64 111.577 195.514 112.408C196.395 113.232 196.842 114.331 196.856 115.706H193.945C193.931 115.104 193.745 114.618 193.387 114.245C193.029 113.866 192.556 113.676 191.969 113.676C191.245 113.676 190.698 113.941 190.325 114.471C189.96 114.993 189.777 115.846 189.777 117.027V117.35C189.777 118.546 189.96 119.405 190.325 119.928C190.69 120.451 191.245 120.712 191.99 120.712ZM198.146 117.081C198.146 115.928 198.368 114.9 198.812 113.998C199.256 113.096 199.893 112.397 200.724 111.903C201.562 111.409 202.532 111.162 203.635 111.162C205.203 111.162 206.481 111.642 207.47 112.602C208.465 113.561 209.02 114.865 209.135 116.512L209.156 117.307C209.156 119.09 208.659 120.522 207.663 121.604C206.668 122.678 205.332 123.215 203.656 123.215C201.98 123.215 200.641 122.678 199.639 121.604C198.643 120.529 198.146 119.068 198.146 117.221V117.081ZM201.25 117.307C201.25 118.41 201.458 119.255 201.873 119.842C202.288 120.422 202.883 120.712 203.656 120.712C204.408 120.712 204.995 120.425 205.418 119.853C205.84 119.272 206.052 118.349 206.052 117.081C206.052 116 205.84 115.162 205.418 114.567C204.995 113.973 204.401 113.676 203.635 113.676C202.876 113.676 202.288 113.973 201.873 114.567C201.458 115.155 201.25 116.068 201.25 117.307ZM213.979 111.377L214.076 112.677C214.9 111.667 216.013 111.162 217.417 111.162C218.914 111.162 219.941 111.753 220.5 112.935C221.316 111.753 222.48 111.162 223.991 111.162C225.252 111.162 226.19 111.531 226.806 112.269C227.422 112.999 227.729 114.102 227.729 115.577V123H224.614V115.588C224.614 114.929 224.485 114.449 224.228 114.148C223.97 113.84 223.515 113.687 222.863 113.687C221.932 113.687 221.288 114.131 220.93 115.019L220.94 123H217.836V115.599C217.836 114.925 217.703 114.438 217.438 114.138C217.174 113.837 216.722 113.687 216.085 113.687C215.204 113.687 214.567 114.052 214.173 114.782V123H211.068V111.377H213.979ZM229.642 117.081C229.642 115.928 229.864 114.9 230.308 113.998C230.752 113.096 231.389 112.397 232.22 111.903C233.058 111.409 234.028 111.162 235.131 111.162C236.699 111.162 237.978 111.642 238.966 112.602C239.961 113.561 240.516 114.865 240.631 116.512L240.652 117.307C240.652 119.09 240.155 120.522 239.159 121.604C238.164 122.678 236.828 123.215 235.152 123.215C233.477 123.215 232.137 122.678 231.135 121.604C230.139 120.529 229.642 119.068 229.642 117.221V117.081ZM232.746 117.307C232.746 118.41 232.954 119.255 233.369 119.842C233.785 120.422 234.379 120.712 235.152 120.712C235.904 120.712 236.492 120.425 236.914 119.853C237.337 119.272 237.548 118.349 237.548 117.081C237.548 116 237.337 115.162 236.914 114.567C236.492 113.973 235.897 113.676 235.131 113.676C234.372 113.676 233.785 113.973 233.369 114.567C232.954 115.155 232.746 116.068 232.746 117.307ZM254.778 123C254.635 122.721 254.531 122.373 254.467 121.958C253.715 122.796 252.737 123.215 251.534 123.215C250.396 123.215 249.45 122.885 248.698 122.227C247.953 121.568 247.581 120.737 247.581 119.734C247.581 118.503 248.036 117.557 248.945 116.898C249.862 116.24 251.183 115.907 252.909 115.899H254.338V115.233C254.338 114.696 254.198 114.267 253.919 113.944C253.647 113.622 253.214 113.461 252.619 113.461C252.096 113.461 251.685 113.586 251.384 113.837C251.09 114.088 250.943 114.431 250.943 114.868H247.839C247.839 114.195 248.047 113.572 248.462 112.999C248.877 112.426 249.465 111.979 250.224 111.656C250.983 111.327 251.835 111.162 252.78 111.162C254.213 111.162 255.348 111.524 256.186 112.247C257.031 112.963 257.453 113.973 257.453 115.276V120.314C257.46 121.417 257.614 122.252 257.915 122.817V123H254.778ZM252.211 120.841C252.669 120.841 253.092 120.741 253.479 120.54C253.865 120.332 254.152 120.057 254.338 119.713V117.715H253.178C251.624 117.715 250.797 118.252 250.696 119.326L250.686 119.509C250.686 119.896 250.822 120.214 251.094 120.465C251.366 120.715 251.738 120.841 252.211 120.841ZM269.033 108.52V111.377H271.021V113.654H269.033V119.455C269.033 119.885 269.116 120.193 269.28 120.379C269.445 120.565 269.76 120.658 270.226 120.658C270.569 120.658 270.874 120.633 271.139 120.583V122.936C270.53 123.122 269.903 123.215 269.259 123.215C267.082 123.215 265.972 122.116 265.929 119.917V113.654H264.231V111.377H265.929V108.52H269.033ZM278.1 123.215C276.395 123.215 275.006 122.692 273.932 121.646C272.865 120.601 272.331 119.208 272.331 117.468V117.167C272.331 116 272.557 114.958 273.008 114.041C273.459 113.117 274.096 112.408 274.92 111.914C275.751 111.413 276.696 111.162 277.756 111.162C279.346 111.162 280.595 111.663 281.505 112.666C282.422 113.669 282.88 115.09 282.88 116.931V118.198H275.479C275.579 118.957 275.88 119.566 276.381 120.024C276.889 120.483 277.53 120.712 278.304 120.712C279.5 120.712 280.434 120.279 281.107 119.412L282.633 121.12C282.167 121.779 281.537 122.295 280.742 122.667C279.947 123.032 279.066 123.215 278.1 123.215ZM277.745 113.676C277.129 113.676 276.628 113.883 276.241 114.299C275.862 114.714 275.618 115.309 275.511 116.082H279.829V115.835C279.815 115.147 279.629 114.618 279.271 114.245C278.912 113.866 278.404 113.676 277.745 113.676ZM289.486 120.712C290.059 120.712 290.525 120.554 290.883 120.239C291.241 119.924 291.427 119.505 291.441 118.982H294.353C294.345 119.77 294.131 120.493 293.708 121.152C293.285 121.804 292.705 122.312 291.968 122.678C291.237 123.036 290.428 123.215 289.54 123.215C287.879 123.215 286.568 122.688 285.608 121.636C284.649 120.576 284.169 119.115 284.169 117.253V117.049C284.169 115.258 284.645 113.83 285.598 112.763C286.55 111.696 287.857 111.162 289.519 111.162C290.972 111.162 292.136 111.577 293.01 112.408C293.891 113.232 294.338 114.331 294.353 115.706H291.441C291.427 115.104 291.241 114.618 290.883 114.245C290.525 113.866 290.052 113.676 289.465 113.676C288.742 113.676 288.194 113.941 287.821 114.471C287.456 114.993 287.273 115.846 287.273 117.027V117.35C287.273 118.546 287.456 119.405 287.821 119.928C288.187 120.451 288.742 120.712 289.486 120.712ZM298.982 111.377L299.079 112.72C299.91 111.681 301.023 111.162 302.42 111.162C303.652 111.162 304.568 111.524 305.17 112.247C305.771 112.97 306.079 114.052 306.094 115.491V123H302.989V115.566C302.989 114.908 302.846 114.431 302.56 114.138C302.273 113.837 301.797 113.687 301.131 113.687C300.257 113.687 299.602 114.059 299.165 114.804V123H296.061V111.377H298.982ZM307.974 117.081C307.974 115.928 308.196 114.9 308.64 113.998C309.084 113.096 309.721 112.397 310.552 111.903C311.39 111.409 312.36 111.162 313.463 111.162C315.031 111.162 316.31 111.642 317.298 112.602C318.293 113.561 318.848 114.865 318.963 116.512L318.984 117.307C318.984 119.09 318.487 120.522 317.491 121.604C316.496 122.678 315.16 123.215 313.484 123.215C311.809 123.215 310.469 122.678 309.467 121.604C308.471 120.529 307.974 119.068 307.974 117.221V117.081ZM311.078 117.307C311.078 118.41 311.286 119.255 311.701 119.842C312.117 120.422 312.711 120.712 313.484 120.712C314.236 120.712 314.824 120.425 315.246 119.853C315.669 119.272 315.88 118.349 315.88 117.081C315.88 116 315.669 115.162 315.246 114.567C314.824 113.973 314.229 113.676 313.463 113.676C312.704 113.676 312.117 113.973 311.701 114.567C311.286 115.155 311.078 116.068 311.078 117.307ZM324.173 123H321.058V106.5H324.173V123ZM326.257 117.081C326.257 115.928 326.479 114.9 326.923 113.998C327.367 113.096 328.004 112.397 328.835 111.903C329.673 111.409 330.643 111.162 331.746 111.162C333.314 111.162 334.593 111.642 335.581 112.602C336.576 113.561 337.132 114.865 337.246 116.512L337.268 117.307C337.268 119.09 336.77 120.522 335.774 121.604C334.779 122.678 333.443 123.215 331.768 123.215C330.092 123.215 328.753 122.678 327.75 121.604C326.755 120.529 326.257 119.068 326.257 117.221V117.081ZM329.361 117.307C329.361 118.41 329.569 119.255 329.984 119.842C330.4 120.422 330.994 120.712 331.768 120.712C332.52 120.712 333.107 120.425 333.529 119.853C333.952 119.272 334.163 118.349 334.163 117.081C334.163 116 333.952 115.162 333.529 114.567C333.107 113.973 332.512 113.676 331.746 113.676C330.987 113.676 330.4 113.973 329.984 114.567C329.569 115.155 329.361 116.068 329.361 117.307ZM338.729 117.103C338.729 115.319 339.151 113.883 339.996 112.795C340.848 111.706 341.994 111.162 343.434 111.162C344.708 111.162 345.7 111.599 346.409 112.473L346.538 111.377H349.353V122.613C349.353 123.63 349.12 124.515 348.654 125.267C348.196 126.019 347.548 126.591 346.71 126.985C345.872 127.379 344.891 127.576 343.767 127.576C342.914 127.576 342.084 127.404 341.274 127.061C340.465 126.724 339.853 126.287 339.438 125.75L340.812 123.859C341.586 124.726 342.524 125.159 343.627 125.159C344.451 125.159 345.091 124.937 345.55 124.493C346.008 124.056 346.237 123.433 346.237 122.624V122.001C345.521 122.81 344.579 123.215 343.412 123.215C342.016 123.215 340.884 122.671 340.018 121.582C339.158 120.486 338.729 119.036 338.729 117.231V117.103ZM341.833 117.328C341.833 118.381 342.044 119.208 342.467 119.81C342.889 120.404 343.469 120.701 344.207 120.701C345.152 120.701 345.829 120.347 346.237 119.638V114.75C345.822 114.041 345.152 113.687 344.229 113.687C343.484 113.687 342.896 113.991 342.467 114.6C342.044 115.208 341.833 116.118 341.833 117.328ZM355.024 123H351.909V111.377H355.024V123ZM351.727 108.369C351.727 107.904 351.881 107.521 352.188 107.22C352.504 106.919 352.93 106.769 353.467 106.769C353.997 106.769 354.419 106.919 354.734 107.22C355.049 107.521 355.207 107.904 355.207 108.369C355.207 108.842 355.046 109.229 354.724 109.529C354.409 109.83 353.99 109.98 353.467 109.98C352.944 109.98 352.521 109.83 352.199 109.529C351.884 109.229 351.727 108.842 351.727 108.369ZM364.327 123C364.184 122.721 364.08 122.373 364.016 121.958C363.264 122.796 362.286 123.215 361.083 123.215C359.944 123.215 358.999 122.885 358.247 122.227C357.502 121.568 357.13 120.737 357.13 119.734C357.13 118.503 357.585 117.557 358.494 116.898C359.411 116.24 360.732 115.907 362.458 115.899H363.887V115.233C363.887 114.696 363.747 114.267 363.468 113.944C363.196 113.622 362.762 113.461 362.168 113.461C361.645 113.461 361.233 113.586 360.933 113.837C360.639 114.088 360.492 114.431 360.492 114.868H357.388C357.388 114.195 357.595 113.572 358.011 112.999C358.426 112.426 359.013 111.979 359.772 111.656C360.532 111.327 361.384 111.162 362.329 111.162C363.761 111.162 364.896 111.524 365.734 112.247C366.579 112.963 367.002 113.973 367.002 115.276V120.314C367.009 121.417 367.163 122.252 367.464 122.817V123H364.327ZM361.76 120.841C362.218 120.841 362.641 120.741 363.027 120.54C363.414 120.332 363.701 120.057 363.887 119.713V117.715H362.727C361.173 117.715 360.345 118.252 360.245 119.326L360.234 119.509C360.234 119.896 360.37 120.214 360.643 120.465C360.915 120.715 361.287 120.841 361.76 120.841ZM381.16 119.788C381.16 119.409 380.97 119.111 380.591 118.896C380.218 118.674 379.617 118.478 378.786 118.306C376.022 117.726 374.64 116.551 374.64 114.782C374.64 113.751 375.066 112.892 375.918 112.204C376.777 111.509 377.898 111.162 379.28 111.162C380.756 111.162 381.934 111.509 382.814 112.204C383.702 112.899 384.146 113.801 384.146 114.911H381.042C381.042 114.467 380.899 114.102 380.612 113.815C380.326 113.522 379.878 113.375 379.27 113.375C378.747 113.375 378.342 113.493 378.056 113.729C377.769 113.966 377.626 114.267 377.626 114.632C377.626 114.976 377.787 115.255 378.109 115.47C378.439 115.677 378.99 115.86 379.764 116.018C380.537 116.168 381.189 116.34 381.719 116.533C383.359 117.135 384.179 118.177 384.179 119.659C384.179 120.719 383.724 121.578 382.814 122.237C381.905 122.889 380.73 123.215 379.291 123.215C378.317 123.215 377.451 123.043 376.691 122.699C375.939 122.348 375.349 121.872 374.919 121.271C374.489 120.662 374.274 120.007 374.274 119.305H377.218C377.246 119.856 377.451 120.279 377.83 120.572C378.21 120.866 378.718 121.013 379.355 121.013C379.95 121.013 380.397 120.902 380.698 120.68C381.006 120.451 381.16 120.153 381.16 119.788ZM391.537 123.215C389.833 123.215 388.443 122.692 387.369 121.646C386.302 120.601 385.769 119.208 385.769 117.468V117.167C385.769 116 385.994 114.958 386.445 114.041C386.896 113.117 387.534 112.408 388.357 111.914C389.188 111.413 390.133 111.162 391.193 111.162C392.783 111.162 394.033 111.663 394.942 112.666C395.859 113.669 396.317 115.09 396.317 116.931V118.198H388.916C389.016 118.957 389.317 119.566 389.818 120.024C390.327 120.483 390.968 120.712 391.741 120.712C392.937 120.712 393.872 120.279 394.545 119.412L396.07 121.12C395.605 121.779 394.975 122.295 394.18 122.667C393.385 123.032 392.504 123.215 391.537 123.215ZM391.183 113.676C390.567 113.676 390.065 113.883 389.679 114.299C389.299 114.714 389.056 115.309 388.948 116.082H393.267V115.835C393.252 115.147 393.066 114.618 392.708 114.245C392.35 113.866 391.841 113.676 391.183 113.676ZM81.2812 146.712C81.8542 146.712 82.3197 146.554 82.6777 146.239C83.0358 145.924 83.222 145.505 83.2363 144.982H86.1475C86.1403 145.77 85.9255 146.493 85.5029 147.152C85.0804 147.804 84.5003 148.312 83.7627 148.678C83.0322 149.036 82.223 149.215 81.335 149.215C79.6735 149.215 78.363 148.688 77.4033 147.636C76.4437 146.576 75.9639 145.115 75.9639 143.253V143.049C75.9639 141.258 76.4401 139.83 77.3926 138.763C78.3451 137.696 79.652 137.162 81.3135 137.162C82.7673 137.162 83.931 137.577 84.8047 138.408C85.6855 139.232 86.1331 140.331 86.1475 141.706H83.2363C83.222 141.104 83.0358 140.618 82.6777 140.245C82.3197 139.866 81.847 139.676 81.2598 139.676C80.5365 139.676 79.9886 139.941 79.6162 140.471C79.251 140.993 79.0684 141.846 79.0684 143.027V143.35C79.0684 144.546 79.251 145.405 79.6162 145.928C79.9814 146.451 80.5365 146.712 81.2812 146.712ZM87.4365 143.081C87.4365 141.928 87.6585 140.9 88.1025 139.998C88.5465 139.096 89.1839 138.397 90.0146 137.903C90.8525 137.409 91.8229 137.162 92.9258 137.162C94.4941 137.162 95.7725 137.642 96.7607 138.602C97.7562 139.561 98.3112 140.865 98.4258 142.512L98.4473 143.307C98.4473 145.09 97.9495 146.522 96.9541 147.604C95.9587 148.678 94.623 149.215 92.9473 149.215C91.2715 149.215 89.9323 148.678 88.9297 147.604C87.9342 146.529 87.4365 145.068 87.4365 143.221V143.081ZM90.541 143.307C90.541 144.41 90.7487 145.255 91.1641 145.842C91.5794 146.422 92.1738 146.712 92.9473 146.712C93.6992 146.712 94.2865 146.425 94.709 145.853C95.1315 145.272 95.3428 144.349 95.3428 143.081C95.3428 142 95.1315 141.162 94.709 140.567C94.2865 139.973 93.6921 139.676 92.9258 139.676C92.1667 139.676 91.5794 139.973 91.1641 140.567C90.7487 141.155 90.541 142.068 90.541 143.307ZM103.217 137.377L103.313 138.72C104.144 137.681 105.258 137.162 106.654 137.162C107.886 137.162 108.803 137.524 109.404 138.247C110.006 138.97 110.314 140.052 110.328 141.491V149H107.224V141.566C107.224 140.908 107.08 140.431 106.794 140.138C106.507 139.837 106.031 139.687 105.365 139.687C104.492 139.687 103.836 140.059 103.399 140.804V149H100.295V137.377H103.217ZM118.041 149.215C116.337 149.215 114.947 148.692 113.873 147.646C112.806 146.601 112.272 145.208 112.272 143.468V143.167C112.272 142 112.498 140.958 112.949 140.041C113.4 139.117 114.038 138.408 114.861 137.914C115.692 137.413 116.637 137.162 117.697 137.162C119.287 137.162 120.537 137.663 121.446 138.666C122.363 139.669 122.821 141.09 122.821 142.931V144.198H115.42C115.52 144.957 115.821 145.566 116.322 146.024C116.831 146.483 117.472 146.712 118.245 146.712C119.441 146.712 120.376 146.279 121.049 145.412L122.574 147.12C122.109 147.779 121.479 148.295 120.684 148.667C119.889 149.032 119.008 149.215 118.041 149.215ZM117.687 139.676C117.071 139.676 116.569 139.883 116.183 140.299C115.803 140.714 115.56 141.309 115.452 142.082H119.771V141.835C119.756 141.147 119.57 140.618 119.212 140.245C118.854 139.866 118.345 139.676 117.687 139.676ZM129.428 146.712C130.001 146.712 130.466 146.554 130.824 146.239C131.182 145.924 131.368 145.505 131.383 144.982H134.294C134.287 145.77 134.072 146.493 133.649 147.152C133.227 147.804 132.647 148.312 131.909 148.678C131.179 149.036 130.369 149.215 129.481 149.215C127.82 149.215 126.509 148.688 125.55 147.636C124.59 146.576 124.11 145.115 124.11 143.253V143.049C124.11 141.258 124.587 139.83 125.539 138.763C126.492 137.696 127.799 137.162 129.46 137.162C130.914 137.162 132.077 137.577 132.951 138.408C133.832 139.232 134.28 140.331 134.294 141.706H131.383C131.368 141.104 131.182 140.618 130.824 140.245C130.466 139.866 129.993 139.676 129.406 139.676C128.683 139.676 128.135 139.941 127.763 140.471C127.397 140.993 127.215 141.846 127.215 143.027V143.35C127.215 144.546 127.397 145.405 127.763 145.928C128.128 146.451 128.683 146.712 129.428 146.712ZM139.783 134.52V137.377H141.771V139.654H139.783V145.455C139.783 145.885 139.866 146.193 140.03 146.379C140.195 146.565 140.51 146.658 140.976 146.658C141.319 146.658 141.624 146.633 141.889 146.583V148.936C141.28 149.122 140.653 149.215 140.009 149.215C137.832 149.215 136.722 148.116 136.679 145.917V139.654H134.981V137.377H136.679V134.52H139.783ZM150.235 149C150.092 148.721 149.988 148.373 149.924 147.958C149.172 148.796 148.194 149.215 146.991 149.215C145.853 149.215 144.907 148.885 144.155 148.227C143.41 147.568 143.038 146.737 143.038 145.734C143.038 144.503 143.493 143.557 144.402 142.898C145.319 142.24 146.64 141.907 148.366 141.899H149.795V141.233C149.795 140.696 149.655 140.267 149.376 139.944C149.104 139.622 148.671 139.461 148.076 139.461C147.553 139.461 147.142 139.586 146.841 139.837C146.547 140.088 146.4 140.431 146.4 140.868H143.296C143.296 140.195 143.504 139.572 143.919 138.999C144.334 138.426 144.922 137.979 145.681 137.656C146.44 137.327 147.292 137.162 148.237 137.162C149.67 137.162 150.805 137.524 151.643 138.247C152.488 138.963 152.91 139.973 152.91 141.276V146.314C152.917 147.417 153.071 148.252 153.372 148.817V149H150.235ZM147.668 146.841C148.126 146.841 148.549 146.741 148.936 146.54C149.322 146.332 149.609 146.057 149.795 145.713V143.715H148.635C147.081 143.715 146.254 144.252 146.153 145.326L146.143 145.509C146.143 145.896 146.279 146.214 146.551 146.465C146.823 146.715 147.195 146.841 147.668 146.841ZM171.236 143.296C171.236 145.086 170.828 146.522 170.012 147.604C169.202 148.678 168.107 149.215 166.725 149.215C165.55 149.215 164.601 148.807 163.878 147.99V153.469H160.773V137.377H163.652L163.76 138.516C164.512 137.613 165.493 137.162 166.703 137.162C168.135 137.162 169.249 137.692 170.044 138.752C170.839 139.812 171.236 141.273 171.236 143.135V143.296ZM168.132 143.07C168.132 141.989 167.938 141.155 167.552 140.567C167.172 139.98 166.617 139.687 165.887 139.687C164.913 139.687 164.243 140.059 163.878 140.804V145.562C164.257 146.329 164.934 146.712 165.908 146.712C167.391 146.712 168.132 145.498 168.132 143.07ZM179.905 149C179.762 148.721 179.658 148.373 179.594 147.958C178.842 148.796 177.864 149.215 176.661 149.215C175.522 149.215 174.577 148.885 173.825 148.227C173.08 147.568 172.708 146.737 172.708 145.734C172.708 144.503 173.163 143.557 174.072 142.898C174.989 142.24 176.31 141.907 178.036 141.899H179.465V141.233C179.465 140.696 179.325 140.267 179.046 139.944C178.774 139.622 178.34 139.461 177.746 139.461C177.223 139.461 176.812 139.586 176.511 139.837C176.217 140.088 176.07 140.431 176.07 140.868H172.966C172.966 140.195 173.174 139.572 173.589 138.999C174.004 138.426 174.591 137.979 175.351 137.656C176.11 137.327 176.962 137.162 177.907 137.162C179.34 137.162 180.475 137.524 181.312 138.247C182.158 138.963 182.58 139.973 182.58 141.276V146.314C182.587 147.417 182.741 148.252 183.042 148.817V149H179.905ZM177.338 146.841C177.796 146.841 178.219 146.741 178.605 146.54C178.992 146.332 179.279 146.057 179.465 145.713V143.715H178.305C176.751 143.715 175.924 144.252 175.823 145.326L175.812 145.509C175.812 145.896 175.949 146.214 176.221 146.465C176.493 146.715 176.865 146.841 177.338 146.841ZM191.496 140.288C191.074 140.231 190.701 140.202 190.379 140.202C189.204 140.202 188.435 140.6 188.069 141.395V149H184.965V137.377H187.897L187.983 138.763C188.606 137.696 189.469 137.162 190.572 137.162C190.916 137.162 191.238 137.209 191.539 137.302L191.496 140.288ZM199.413 149C199.27 148.721 199.166 148.373 199.102 147.958C198.35 148.796 197.372 149.215 196.169 149.215C195.03 149.215 194.085 148.885 193.333 148.227C192.588 147.568 192.216 146.737 192.216 145.734C192.216 144.503 192.671 143.557 193.58 142.898C194.497 142.24 195.818 141.907 197.544 141.899H198.973V141.233C198.973 140.696 198.833 140.267 198.554 139.944C198.282 139.622 197.848 139.461 197.254 139.461C196.731 139.461 196.319 139.586 196.019 139.837C195.725 140.088 195.578 140.431 195.578 140.868H192.474C192.474 140.195 192.681 139.572 193.097 138.999C193.512 138.426 194.099 137.979 194.858 137.656C195.618 137.327 196.47 137.162 197.415 137.162C198.847 137.162 199.982 137.524 200.82 138.247C201.665 138.963 202.088 139.973 202.088 141.276V146.314C202.095 147.417 202.249 148.252 202.55 148.817V149H199.413ZM196.846 146.841C197.304 146.841 197.727 146.741 198.113 146.54C198.5 146.332 198.786 146.057 198.973 145.713V143.715H197.812C196.258 143.715 195.431 144.252 195.331 145.326L195.32 145.509C195.32 145.896 195.456 146.214 195.729 146.465C196.001 146.715 196.373 146.841 196.846 146.841ZM214.785 146.712C215.358 146.712 215.824 146.554 216.182 146.239C216.54 145.924 216.726 145.505 216.74 144.982H219.651C219.644 145.77 219.429 146.493 219.007 147.152C218.584 147.804 218.004 148.312 217.267 148.678C216.536 149.036 215.727 149.215 214.839 149.215C213.177 149.215 211.867 148.688 210.907 147.636C209.948 146.576 209.468 145.115 209.468 143.253V143.049C209.468 141.258 209.944 139.83 210.896 138.763C211.849 137.696 213.156 137.162 214.817 137.162C216.271 137.162 217.435 137.577 218.309 138.408C219.189 139.232 219.637 140.331 219.651 141.706H216.74C216.726 141.104 216.54 140.618 216.182 140.245C215.824 139.866 215.351 139.676 214.764 139.676C214.04 139.676 213.493 139.941 213.12 140.471C212.755 140.993 212.572 141.846 212.572 143.027V143.35C212.572 144.546 212.755 145.405 213.12 145.928C213.485 146.451 214.04 146.712 214.785 146.712ZM227.955 140.288C227.533 140.231 227.16 140.202 226.838 140.202C225.663 140.202 224.894 140.6 224.528 141.395V149H221.424V137.377H224.356L224.442 138.763C225.065 137.696 225.928 137.162 227.031 137.162C227.375 137.162 227.697 137.209 227.998 137.302L227.955 140.288ZM232.735 149H229.62V137.377H232.735V149ZM229.438 134.369C229.438 133.904 229.591 133.521 229.899 133.22C230.215 132.919 230.641 132.769 231.178 132.769C231.708 132.769 232.13 132.919 232.445 133.22C232.76 133.521 232.918 133.904 232.918 134.369C232.918 134.842 232.757 135.229 232.435 135.529C232.119 135.83 231.701 135.98 231.178 135.98C230.655 135.98 230.232 135.83 229.91 135.529C229.595 135.229 229.438 134.842 229.438 134.369ZM242.038 149C241.895 148.721 241.791 148.373 241.727 147.958C240.975 148.796 239.997 149.215 238.794 149.215C237.655 149.215 236.71 148.885 235.958 148.227C235.213 147.568 234.841 146.737 234.841 145.734C234.841 144.503 235.296 143.557 236.205 142.898C237.122 142.24 238.443 141.907 240.169 141.899H241.598V141.233C241.598 140.696 241.458 140.267 241.179 139.944C240.907 139.622 240.473 139.461 239.879 139.461C239.356 139.461 238.944 139.586 238.644 139.837C238.35 140.088 238.203 140.431 238.203 140.868H235.099C235.099 140.195 235.306 139.572 235.722 138.999C236.137 138.426 236.724 137.979 237.483 137.656C238.243 137.327 239.095 137.162 240.04 137.162C241.472 137.162 242.607 137.524 243.445 138.247C244.29 138.963 244.713 139.973 244.713 141.276V146.314C244.72 147.417 244.874 148.252 245.175 148.817V149H242.038ZM239.471 146.841C239.929 146.841 240.352 146.741 240.738 146.54C241.125 146.332 241.411 146.057 241.598 145.713V143.715H240.438C238.883 143.715 238.056 144.252 237.956 145.326L237.945 145.509C237.945 145.896 238.081 146.214 238.354 146.465C238.626 146.715 238.998 146.841 239.471 146.841ZM253.629 140.288C253.206 140.231 252.834 140.202 252.512 140.202C251.337 140.202 250.567 140.6 250.202 141.395V149H247.098V137.377H250.03L250.116 138.763C250.739 137.696 251.602 137.162 252.705 137.162C253.049 137.162 253.371 137.209 253.672 137.302L253.629 140.288ZM265.445 146.712C266.018 146.712 266.484 146.554 266.842 146.239C267.2 145.924 267.386 145.505 267.4 144.982H270.312C270.304 145.77 270.09 146.493 269.667 147.152C269.244 147.804 268.664 148.312 267.927 148.678C267.196 149.036 266.387 149.215 265.499 149.215C263.838 149.215 262.527 148.688 261.567 147.636C260.608 146.576 260.128 145.115 260.128 143.253V143.049C260.128 141.258 260.604 139.83 261.557 138.763C262.509 137.696 263.816 137.162 265.478 137.162C266.931 137.162 268.095 137.577 268.969 138.408C269.85 139.232 270.297 140.331 270.312 141.706H267.4C267.386 141.104 267.2 140.618 266.842 140.245C266.484 139.866 266.011 139.676 265.424 139.676C264.701 139.676 264.153 139.941 263.78 140.471C263.415 140.993 263.232 141.846 263.232 143.027V143.35C263.232 144.546 263.415 145.405 263.78 145.928C264.146 146.451 264.701 146.712 265.445 146.712ZM271.601 143.081C271.601 141.928 271.823 140.9 272.267 139.998C272.711 139.096 273.348 138.397 274.179 137.903C275.017 137.409 275.987 137.162 277.09 137.162C278.658 137.162 279.937 137.642 280.925 138.602C281.92 139.561 282.475 140.865 282.59 142.512L282.611 143.307C282.611 145.09 282.114 146.522 281.118 147.604C280.123 148.678 278.787 149.215 277.111 149.215C275.436 149.215 274.096 148.678 273.094 147.604C272.098 146.529 271.601 145.068 271.601 143.221V143.081ZM274.705 143.307C274.705 144.41 274.913 145.255 275.328 145.842C275.743 146.422 276.338 146.712 277.111 146.712C277.863 146.712 278.451 146.425 278.873 145.853C279.296 145.272 279.507 144.349 279.507 143.081C279.507 142 279.296 141.162 278.873 140.567C278.451 139.973 277.856 139.676 277.09 139.676C276.331 139.676 275.743 139.973 275.328 140.567C274.913 141.155 274.705 142.068 274.705 143.307ZM287.8 149H284.685V137.377H287.8V149ZM284.502 134.369C284.502 133.904 284.656 133.521 284.964 133.22C285.279 132.919 285.705 132.769 286.242 132.769C286.772 132.769 287.195 132.919 287.51 133.22C287.825 133.521 287.982 133.904 287.982 134.369C287.982 134.842 287.821 135.229 287.499 135.529C287.184 135.83 286.765 135.98 286.242 135.98C285.719 135.98 285.297 135.83 284.975 135.529C284.66 135.229 284.502 134.842 284.502 134.369ZM296.662 145.788C296.662 145.409 296.472 145.111 296.093 144.896C295.72 144.674 295.119 144.478 294.288 144.306C291.524 143.726 290.142 142.551 290.142 140.782C290.142 139.751 290.568 138.892 291.42 138.204C292.279 137.509 293.4 137.162 294.782 137.162C296.257 137.162 297.436 137.509 298.316 138.204C299.204 138.899 299.648 139.801 299.648 140.911H296.544C296.544 140.467 296.401 140.102 296.114 139.815C295.828 139.522 295.38 139.375 294.771 139.375C294.249 139.375 293.844 139.493 293.558 139.729C293.271 139.966 293.128 140.267 293.128 140.632C293.128 140.976 293.289 141.255 293.611 141.47C293.941 141.677 294.492 141.86 295.266 142.018C296.039 142.168 296.691 142.34 297.221 142.533C298.861 143.135 299.681 144.177 299.681 145.659C299.681 146.719 299.226 147.578 298.316 148.237C297.407 148.889 296.232 149.215 294.793 149.215C293.819 149.215 292.952 149.043 292.193 148.699C291.441 148.348 290.851 147.872 290.421 147.271C289.991 146.662 289.776 146.007 289.776 145.305H292.72C292.748 145.856 292.952 146.279 293.332 146.572C293.712 146.866 294.22 147.013 294.857 147.013C295.452 147.013 295.899 146.902 296.2 146.68C296.508 146.451 296.662 146.153 296.662 145.788ZM308.425 149C308.282 148.721 308.178 148.373 308.113 147.958C307.361 148.796 306.384 149.215 305.181 149.215C304.042 149.215 303.097 148.885 302.345 148.227C301.6 147.568 301.228 146.737 301.228 145.734C301.228 144.503 301.682 143.557 302.592 142.898C303.508 142.24 304.83 141.907 306.556 141.899H307.984V141.233C307.984 140.696 307.845 140.267 307.565 139.944C307.293 139.622 306.86 139.461 306.266 139.461C305.743 139.461 305.331 139.586 305.03 139.837C304.737 140.088 304.59 140.431 304.59 140.868H301.485C301.485 140.195 301.693 139.572 302.108 138.999C302.524 138.426 303.111 137.979 303.87 137.656C304.629 137.327 305.481 137.162 306.427 137.162C307.859 137.162 308.994 137.524 309.832 138.247C310.677 138.963 311.1 139.973 311.1 141.276V146.314C311.107 147.417 311.261 148.252 311.562 148.817V149H308.425ZM305.857 146.841C306.316 146.841 306.738 146.741 307.125 146.54C307.512 146.332 307.798 146.057 307.984 145.713V143.715H306.824C305.27 143.715 304.443 144.252 304.343 145.326L304.332 145.509C304.332 145.896 304.468 146.214 304.74 146.465C305.012 146.715 305.385 146.841 305.857 146.841ZM319.779 145.788C319.779 145.409 319.59 145.111 319.21 144.896C318.838 144.674 318.236 144.478 317.405 144.306C314.641 143.726 313.259 142.551 313.259 140.782C313.259 139.751 313.685 138.892 314.537 138.204C315.396 137.509 316.517 137.162 317.899 137.162C319.375 137.162 320.553 137.509 321.434 138.204C322.322 138.899 322.766 139.801 322.766 140.911H319.661C319.661 140.467 319.518 140.102 319.231 139.815C318.945 139.522 318.497 139.375 317.889 139.375C317.366 139.375 316.961 139.493 316.675 139.729C316.388 139.966 316.245 140.267 316.245 140.632C316.245 140.976 316.406 141.255 316.729 141.47C317.058 141.677 317.609 141.86 318.383 142.018C319.156 142.168 319.808 142.34 320.338 142.533C321.978 143.135 322.798 144.177 322.798 145.659C322.798 146.719 322.343 147.578 321.434 148.237C320.524 148.889 319.35 149.215 317.91 149.215C316.936 149.215 316.07 149.043 315.311 148.699C314.559 148.348 313.968 147.872 313.538 147.271C313.108 146.662 312.894 146.007 312.894 145.305H315.837C315.866 145.856 316.07 146.279 316.449 146.572C316.829 146.866 317.337 147.013 317.975 147.013C318.569 147.013 319.017 146.902 319.317 146.68C319.625 146.451 319.779 146.153 319.779 145.788ZM329.802 143.081C329.802 141.255 330.206 139.812 331.016 138.752C331.832 137.692 332.949 137.162 334.367 137.162C335.613 137.162 336.605 137.638 337.343 138.591L337.547 137.377H340.275V153.469H337.16V148.001C336.444 148.81 335.506 149.215 334.346 149.215C332.964 149.215 331.861 148.678 331.037 147.604C330.214 146.529 329.802 145.022 329.802 143.081ZM332.906 143.307C332.906 144.417 333.1 145.262 333.486 145.842C333.88 146.422 334.432 146.712 335.141 146.712C336.093 146.712 336.766 146.332 337.16 145.573V140.771C336.773 140.041 336.107 139.676 335.162 139.676C334.446 139.676 333.891 139.966 333.497 140.546C333.103 141.126 332.906 142.046 332.906 143.307ZM349.686 147.818C348.919 148.749 347.859 149.215 346.506 149.215C345.26 149.215 344.307 148.857 343.648 148.141C342.997 147.424 342.664 146.375 342.649 144.993V137.377H345.754V144.886C345.754 146.096 346.305 146.701 347.408 146.701C348.461 146.701 349.184 146.336 349.578 145.605V137.377H352.693V149H349.771L349.686 147.818ZM360.385 149.215C358.68 149.215 357.291 148.692 356.217 147.646C355.15 146.601 354.616 145.208 354.616 143.468V143.167C354.616 142 354.842 140.958 355.293 140.041C355.744 139.117 356.382 138.408 357.205 137.914C358.036 137.413 358.981 137.162 360.041 137.162C361.631 137.162 362.881 137.663 363.79 138.666C364.707 139.669 365.165 141.09 365.165 142.931V144.198H357.764C357.864 144.957 358.165 145.566 358.666 146.024C359.174 146.483 359.815 146.712 360.589 146.712C361.785 146.712 362.719 146.279 363.393 145.412L364.918 147.12C364.452 147.779 363.822 148.295 363.027 148.667C362.232 149.032 361.352 149.215 360.385 149.215ZM360.03 139.676C359.414 139.676 358.913 139.883 358.526 140.299C358.147 140.714 357.903 141.309 357.796 142.082H362.114V141.835C362.1 141.147 361.914 140.618 361.556 140.245C361.198 139.866 360.689 139.676 360.03 139.676ZM126.817 169.296C126.817 171.086 126.409 172.522 125.593 173.604C124.784 174.678 123.688 175.215 122.306 175.215C121.131 175.215 120.182 174.807 119.459 173.99V179.469H116.354V163.377H119.233L119.341 164.516C120.093 163.613 121.074 163.162 122.284 163.162C123.716 163.162 124.83 163.692 125.625 164.752C126.42 165.812 126.817 167.273 126.817 169.135V169.296ZM123.713 169.07C123.713 167.989 123.52 167.155 123.133 166.567C122.753 165.98 122.198 165.687 121.468 165.687C120.494 165.687 119.824 166.059 119.459 166.804V171.562C119.839 172.329 120.515 172.712 121.489 172.712C122.972 172.712 123.713 171.498 123.713 169.07ZM135.486 175C135.343 174.721 135.239 174.373 135.175 173.958C134.423 174.796 133.445 175.215 132.242 175.215C131.104 175.215 130.158 174.885 129.406 174.227C128.661 173.568 128.289 172.737 128.289 171.734C128.289 170.503 128.744 169.557 129.653 168.898C130.57 168.24 131.891 167.907 133.617 167.899H135.046V167.233C135.046 166.696 134.906 166.267 134.627 165.944C134.355 165.622 133.922 165.461 133.327 165.461C132.804 165.461 132.393 165.586 132.092 165.837C131.798 166.088 131.651 166.431 131.651 166.868H128.547C128.547 166.195 128.755 165.572 129.17 164.999C129.585 164.426 130.173 163.979 130.932 163.656C131.691 163.327 132.543 163.162 133.488 163.162C134.921 163.162 136.056 163.524 136.894 164.247C137.739 164.963 138.161 165.973 138.161 167.276V172.314C138.168 173.417 138.322 174.252 138.623 174.817V175H135.486ZM132.919 172.841C133.377 172.841 133.8 172.741 134.187 172.54C134.573 172.332 134.86 172.057 135.046 171.713V169.715H133.886C132.332 169.715 131.505 170.252 131.404 171.326L131.394 171.509C131.394 171.896 131.53 172.214 131.802 172.465C132.074 172.715 132.446 172.841 132.919 172.841ZM147.077 166.288C146.655 166.231 146.282 166.202 145.96 166.202C144.785 166.202 144.016 166.6 143.65 167.395V175H140.546V163.377H143.479L143.564 164.763C144.188 163.696 145.05 163.162 146.153 163.162C146.497 163.162 146.819 163.209 147.12 163.302L147.077 166.288ZM153.716 175.215C152.011 175.215 150.622 174.692 149.548 173.646C148.481 172.601 147.947 171.208 147.947 169.468V169.167C147.947 168 148.173 166.958 148.624 166.041C149.075 165.117 149.713 164.408 150.536 163.914C151.367 163.413 152.312 163.162 153.372 163.162C154.962 163.162 156.212 163.663 157.121 164.666C158.038 165.669 158.496 167.09 158.496 168.931V170.198H151.095C151.195 170.957 151.496 171.566 151.997 172.024C152.506 172.483 153.146 172.712 153.92 172.712C155.116 172.712 156.05 172.279 156.724 171.412L158.249 173.12C157.784 173.779 157.153 174.295 156.358 174.667C155.563 175.032 154.683 175.215 153.716 175.215ZM153.361 165.676C152.745 165.676 152.244 165.883 151.857 166.299C151.478 166.714 151.234 167.309 151.127 168.082H155.445V167.835C155.431 167.147 155.245 166.618 154.887 166.245C154.529 165.866 154.02 165.676 153.361 165.676ZM165.103 172.712C165.675 172.712 166.141 172.554 166.499 172.239C166.857 171.924 167.043 171.505 167.058 170.982H169.969C169.962 171.77 169.747 172.493 169.324 173.152C168.902 173.804 168.322 174.312 167.584 174.678C166.854 175.036 166.044 175.215 165.156 175.215C163.495 175.215 162.184 174.688 161.225 173.636C160.265 172.576 159.785 171.115 159.785 169.253V169.049C159.785 167.258 160.261 165.83 161.214 164.763C162.166 163.696 163.473 163.162 165.135 163.162C166.589 163.162 167.752 163.577 168.626 164.408C169.507 165.232 169.954 166.331 169.969 167.706H167.058C167.043 167.104 166.857 166.618 166.499 166.245C166.141 165.866 165.668 165.676 165.081 165.676C164.358 165.676 163.81 165.941 163.438 166.471C163.072 166.993 162.89 167.846 162.89 169.027V169.35C162.89 170.546 163.072 171.405 163.438 171.928C163.803 172.451 164.358 172.712 165.103 172.712ZM177.091 175.215C175.386 175.215 173.997 174.692 172.923 173.646C171.856 172.601 171.322 171.208 171.322 169.468V169.167C171.322 168 171.548 166.958 171.999 166.041C172.45 165.117 173.088 164.408 173.911 163.914C174.742 163.413 175.687 163.162 176.747 163.162C178.337 163.162 179.587 163.663 180.496 164.666C181.413 165.669 181.871 167.09 181.871 168.931V170.198H174.47C174.57 170.957 174.871 171.566 175.372 172.024C175.881 172.483 176.521 172.712 177.295 172.712C178.491 172.712 179.425 172.279 180.099 171.412L181.624 173.12C181.159 173.779 180.528 174.295 179.733 174.667C178.938 175.032 178.058 175.215 177.091 175.215ZM176.736 165.676C176.12 165.676 175.619 165.883 175.232 166.299C174.853 166.714 174.609 167.309 174.502 168.082H178.82V167.835C178.806 167.147 178.62 166.618 178.262 166.245C177.904 165.866 177.395 165.676 176.736 165.676ZM186.555 163.377L186.651 164.677C187.475 163.667 188.589 163.162 189.992 163.162C191.489 163.162 192.517 163.753 193.075 164.935C193.892 163.753 195.055 163.162 196.566 163.162C197.827 163.162 198.765 163.531 199.381 164.269C199.997 164.999 200.305 166.102 200.305 167.577V175H197.189V167.588C197.189 166.929 197.061 166.449 196.803 166.148C196.545 165.84 196.09 165.687 195.438 165.687C194.507 165.687 193.863 166.131 193.505 167.019L193.516 175H190.411V167.599C190.411 166.925 190.279 166.438 190.014 166.138C189.749 165.837 189.298 165.687 188.66 165.687C187.779 165.687 187.142 166.052 186.748 166.782V175H183.644V163.377H186.555ZM211.896 160.52V163.377H213.883V165.654H211.896V171.455C211.896 171.885 211.978 172.193 212.143 172.379C212.307 172.565 212.622 172.658 213.088 172.658C213.432 172.658 213.736 172.633 214.001 172.583V174.936C213.392 175.122 212.766 175.215 212.121 175.215C209.944 175.215 208.834 174.116 208.791 171.917V165.654H207.094V163.377H208.791V160.52H211.896ZM222.348 175C222.204 174.721 222.101 174.373 222.036 173.958C221.284 174.796 220.307 175.215 219.104 175.215C217.965 175.215 217.02 174.885 216.268 174.227C215.523 173.568 215.15 172.737 215.15 171.734C215.15 170.503 215.605 169.557 216.515 168.898C217.431 168.24 218.753 167.907 220.479 167.899H221.907V167.233C221.907 166.696 221.768 166.267 221.488 165.944C221.216 165.622 220.783 165.461 220.188 165.461C219.666 165.461 219.254 165.586 218.953 165.837C218.66 166.088 218.513 166.431 218.513 166.868H215.408C215.408 166.195 215.616 165.572 216.031 164.999C216.447 164.426 217.034 163.979 217.793 163.656C218.552 163.327 219.404 163.162 220.35 163.162C221.782 163.162 222.917 163.524 223.755 164.247C224.6 164.963 225.022 165.973 225.022 167.276V172.314C225.03 173.417 225.184 174.252 225.484 174.817V175H222.348ZM219.78 172.841C220.239 172.841 220.661 172.741 221.048 172.54C221.435 172.332 221.721 172.057 221.907 171.713V169.715H220.747C219.193 169.715 218.366 170.252 218.266 171.326L218.255 171.509C218.255 171.896 218.391 172.214 218.663 172.465C218.935 172.715 219.308 172.841 219.78 172.841ZM224.378 158.64C224.378 159.449 224.142 160.129 223.669 160.681C223.196 161.225 222.62 161.497 221.939 161.497C221.667 161.497 221.424 161.468 221.209 161.411C221.001 161.347 220.711 161.214 220.339 161.014C219.966 160.813 219.698 160.691 219.533 160.648C219.368 160.598 219.189 160.573 218.996 160.573C218.745 160.573 218.531 160.663 218.352 160.842C218.18 161.021 218.094 161.275 218.094 161.604L216.289 161.497C216.289 160.702 216.522 160.025 216.987 159.467C217.46 158.908 218.036 158.629 218.717 158.629C218.932 158.629 219.132 158.658 219.318 158.715C219.512 158.765 219.823 158.894 220.253 159.102C220.683 159.309 220.98 159.435 221.145 159.478C221.309 159.521 221.481 159.542 221.66 159.542C221.911 159.542 222.126 159.456 222.305 159.284C222.491 159.105 222.584 158.851 222.584 158.521L224.378 158.64ZM226.924 169.081C226.924 167.928 227.146 166.9 227.59 165.998C228.034 165.096 228.671 164.397 229.502 163.903C230.34 163.409 231.31 163.162 232.413 163.162C233.981 163.162 235.26 163.642 236.248 164.602C237.243 165.561 237.799 166.865 237.913 168.512L237.935 169.307C237.935 171.09 237.437 172.522 236.441 173.604C235.446 174.678 234.11 175.215 232.435 175.215C230.759 175.215 229.42 174.678 228.417 173.604C227.422 172.529 226.924 171.068 226.924 169.221V169.081ZM230.028 169.307C230.028 170.41 230.236 171.255 230.651 171.842C231.067 172.422 231.661 172.712 232.435 172.712C233.187 172.712 233.774 172.425 234.196 171.853C234.619 171.272 234.83 170.349 234.83 169.081C234.83 168 234.619 167.162 234.196 166.567C233.774 165.973 233.179 165.676 232.413 165.676C231.654 165.676 231.067 165.973 230.651 166.567C230.236 167.155 230.028 168.068 230.028 169.307ZM244.842 169.103C244.842 167.291 245.246 165.848 246.056 164.773C246.872 163.699 247.986 163.162 249.396 163.162C250.528 163.162 251.463 163.585 252.2 164.43V158.5H255.315V175H252.512L252.361 173.765C251.588 174.731 250.592 175.215 249.375 175.215C248.007 175.215 246.908 174.678 246.077 173.604C245.254 172.522 244.842 171.022 244.842 169.103ZM247.946 169.328C247.946 170.417 248.136 171.251 248.516 171.831C248.895 172.411 249.447 172.701 250.17 172.701C251.13 172.701 251.806 172.297 252.2 171.487V166.9C251.813 166.091 251.144 165.687 250.191 165.687C248.695 165.687 247.946 166.9 247.946 169.328ZM260.998 175H257.883V163.377H260.998V175ZM257.7 160.369C257.7 159.904 257.854 159.521 258.162 159.22C258.477 158.919 258.903 158.769 259.44 158.769C259.97 158.769 260.393 158.919 260.708 159.22C261.023 159.521 261.181 159.904 261.181 160.369C261.181 160.842 261.02 161.229 260.697 161.529C260.382 161.83 259.963 161.98 259.44 161.98C258.918 161.98 258.495 161.83 258.173 161.529C257.858 161.229 257.7 160.842 257.7 160.369ZM264.414 175V165.654H262.685V163.377H264.414V162.389C264.414 161.085 264.786 160.076 265.531 159.359C266.283 158.636 267.332 158.274 268.679 158.274C269.108 158.274 269.635 158.346 270.258 158.489L270.226 160.896C269.968 160.831 269.653 160.799 269.28 160.799C268.113 160.799 267.529 161.347 267.529 162.442V163.377H269.839V165.654H267.529V175H264.414ZM274.802 175H271.697V163.377H274.802V175ZM273.889 158.661H277.272L274.297 161.991H271.772L273.889 158.661ZM282.321 172.712C282.894 172.712 283.36 172.554 283.718 172.239C284.076 171.924 284.262 171.505 284.276 170.982H287.188C287.18 171.77 286.965 172.493 286.543 173.152C286.12 173.804 285.54 174.312 284.803 174.678C284.072 175.036 283.263 175.215 282.375 175.215C280.714 175.215 279.403 174.688 278.443 173.636C277.484 172.576 277.004 171.115 277.004 169.253V169.049C277.004 167.258 277.48 165.83 278.433 164.763C279.385 163.696 280.692 163.162 282.354 163.162C283.807 163.162 284.971 163.577 285.845 164.408C286.726 165.232 287.173 166.331 287.188 167.706H284.276C284.262 167.104 284.076 166.618 283.718 166.245C283.36 165.866 282.887 165.676 282.3 165.676C281.576 165.676 281.029 165.941 280.656 166.471C280.291 166.993 280.108 167.846 280.108 169.027V169.35C280.108 170.546 280.291 171.405 280.656 171.928C281.021 172.451 281.576 172.712 282.321 172.712ZM294.31 175.215C292.605 175.215 291.216 174.692 290.142 173.646C289.075 172.601 288.541 171.208 288.541 169.468V169.167C288.541 168 288.767 166.958 289.218 166.041C289.669 165.117 290.306 164.408 291.13 163.914C291.961 163.413 292.906 163.162 293.966 163.162C295.556 163.162 296.805 163.663 297.715 164.666C298.632 165.669 299.09 167.09 299.09 168.931V170.198H291.688C291.789 170.957 292.09 171.566 292.591 172.024C293.099 172.483 293.74 172.712 294.514 172.712C295.71 172.712 296.644 172.279 297.317 171.412L298.843 173.12C298.377 173.779 297.747 174.295 296.952 174.667C296.157 175.032 295.276 175.215 294.31 175.215ZM293.955 165.676C293.339 165.676 292.838 165.883 292.451 166.299C292.072 166.714 291.828 167.309 291.721 168.082H296.039V167.835C296.025 167.147 295.839 166.618 295.48 166.245C295.122 165.866 294.614 165.676 293.955 165.676ZM304.139 175H301.023V163.377H304.139V175ZM300.841 160.369C300.841 159.904 300.995 159.521 301.303 159.22C301.618 158.919 302.044 158.769 302.581 158.769C303.111 158.769 303.534 158.919 303.849 159.22C304.164 159.521 304.321 159.904 304.321 160.369C304.321 160.842 304.16 161.229 303.838 161.529C303.523 161.83 303.104 161.98 302.581 161.98C302.058 161.98 301.636 161.83 301.313 161.529C300.998 161.229 300.841 160.842 300.841 160.369ZM313.001 171.788C313.001 171.409 312.811 171.111 312.432 170.896C312.059 170.674 311.458 170.478 310.627 170.306C307.863 169.726 306.48 168.551 306.48 166.782C306.48 165.751 306.907 164.892 307.759 164.204C308.618 163.509 309.739 163.162 311.121 163.162C312.596 163.162 313.774 163.509 314.655 164.204C315.543 164.899 315.987 165.801 315.987 166.911H312.883C312.883 166.467 312.74 166.102 312.453 165.815C312.167 165.522 311.719 165.375 311.11 165.375C310.588 165.375 310.183 165.493 309.896 165.729C309.61 165.966 309.467 166.267 309.467 166.632C309.467 166.976 309.628 167.255 309.95 167.47C310.28 167.677 310.831 167.86 311.604 168.018C312.378 168.168 313.03 168.34 313.56 168.533C315.2 169.135 316.02 170.177 316.02 171.659C316.02 172.719 315.565 173.578 314.655 174.237C313.746 174.889 312.571 175.215 311.132 175.215C310.158 175.215 309.291 175.043 308.532 174.699C307.78 174.348 307.189 173.872 306.76 173.271C306.33 172.662 306.115 172.007 306.115 171.305H309.059C309.087 171.856 309.291 172.279 309.671 172.572C310.05 172.866 310.559 173.013 311.196 173.013C311.791 173.013 312.238 172.902 312.539 172.68C312.847 172.451 313.001 172.153 313.001 171.788ZM319.07 164.161L317.609 163.312C318.225 162.346 318.544 161.347 318.565 160.315V158.5H321.036V160.165C321.036 160.81 320.857 161.508 320.499 162.26C320.141 163.012 319.665 163.646 319.07 164.161ZM322.798 164.161L321.337 163.312C321.953 162.346 322.271 161.347 322.293 160.315V158.5H324.764V160.165C324.764 160.81 324.585 161.508 324.227 162.26C323.868 163.012 323.392 163.646 322.798 164.161Z" fill="#E8EEF1"/>
</svg>
