<svg width="889" height="418" viewBox="0 0 889 418" fill="none" xmlns="http://www.w3.org/2000/svg">
<path d="M875.907 182.555C858.744 271.832 825.884 408.294 404.361 370.869C-17.1625 333.445 14.1981 245.429 14.1981 245.429C0.792792 231.893 228.878 -33.3932 406.699 59.3727C584.521 152.139 866.925 59.4464 875.907 182.555Z" fill="#057DCD"/>
<path d="M112.495 159.808L115.417 161.505C114.185 163.453 113.548 165.43 113.505 167.435V171.023H108.585V167.8C108.585 166.454 108.958 165.022 109.702 163.503C110.462 161.971 111.392 160.739 112.495 159.808ZM119.865 159.808L122.786 161.505C121.555 163.453 120.917 165.43 120.874 167.435V171.023H115.954V167.8C115.954 166.454 116.327 165.022 117.072 163.503C117.831 161.971 118.762 160.739 119.865 159.808ZM145.667 179.982H133.292V188.361H147.816V193.539H126.847V162.257H147.773V167.478H133.292V174.933H145.667V179.982ZM138.943 153.814H145.71L139.759 160.474H134.71L138.943 153.814ZM169.579 164.578V170.292H173.554V174.847H169.579V186.449C169.579 187.308 169.744 187.924 170.073 188.296C170.403 188.669 171.033 188.855 171.964 188.855C172.652 188.855 173.26 188.805 173.79 188.705V193.41C172.573 193.782 171.32 193.968 170.031 193.968C165.676 193.968 163.456 191.77 163.37 187.373V174.847H159.976V170.292H163.37V164.578H169.579ZM190.484 193.539C190.197 192.98 189.99 192.285 189.861 191.455C188.357 193.13 186.402 193.968 183.995 193.968C181.718 193.968 179.827 193.309 178.323 191.992C176.834 190.674 176.089 189.013 176.089 187.007C176.089 184.544 176.999 182.653 178.818 181.335C180.651 180.018 183.294 179.352 186.745 179.337H189.603V178.005C189.603 176.931 189.323 176.072 188.765 175.427C188.221 174.783 187.354 174.46 186.165 174.46C185.12 174.46 184.296 174.711 183.695 175.212C183.107 175.714 182.814 176.401 182.814 177.275H176.605C176.605 175.929 177.02 174.682 177.851 173.537C178.682 172.391 179.856 171.496 181.374 170.851C182.892 170.192 184.597 169.863 186.488 169.863C189.352 169.863 191.622 170.586 193.298 172.033C194.988 173.465 195.833 175.485 195.833 178.091V188.167C195.848 190.373 196.156 192.042 196.757 193.173V193.539H190.484ZM185.349 189.22C186.266 189.22 187.111 189.02 187.884 188.619C188.657 188.203 189.23 187.652 189.603 186.964V182.968H187.282C184.174 182.968 182.52 184.042 182.32 186.191L182.298 186.556C182.298 187.33 182.57 187.967 183.115 188.468C183.659 188.97 184.404 189.22 185.349 189.22ZM194.544 160.818C194.544 162.436 194.072 163.797 193.126 164.9C192.181 165.988 191.028 166.533 189.667 166.533C189.123 166.533 188.636 166.475 188.206 166.361C187.791 166.232 187.211 165.967 186.466 165.566C185.721 165.165 185.184 164.921 184.855 164.835C184.525 164.735 184.167 164.685 183.781 164.685C183.279 164.685 182.85 164.864 182.491 165.222C182.148 165.58 181.976 166.089 181.976 166.748L178.366 166.533C178.366 164.943 178.832 163.589 179.763 162.472C180.708 161.355 181.861 160.796 183.222 160.796C183.652 160.796 184.053 160.854 184.425 160.968C184.812 161.069 185.435 161.326 186.294 161.742C187.154 162.157 187.748 162.408 188.077 162.494C188.407 162.58 188.751 162.623 189.109 162.623C189.61 162.623 190.04 162.451 190.398 162.107C190.77 161.749 190.956 161.24 190.956 160.582L194.544 160.818ZM199.636 181.701C199.636 179.395 200.08 177.339 200.968 175.535C201.856 173.73 203.131 172.333 204.792 171.345C206.468 170.357 208.409 169.863 210.615 169.863C213.751 169.863 216.308 170.822 218.284 172.742C220.275 174.661 221.385 177.268 221.615 180.562L221.657 182.152C221.657 185.718 220.662 188.583 218.671 190.746C216.68 192.894 214.009 193.968 210.657 193.968C207.306 193.968 204.628 192.894 202.622 190.746C200.631 188.597 199.636 185.675 199.636 181.98V181.701ZM205.845 182.152C205.845 184.358 206.26 186.048 207.091 187.222C207.922 188.382 209.111 188.962 210.657 188.962C212.161 188.962 213.336 188.389 214.181 187.244C215.026 186.083 215.448 184.236 215.448 181.701C215.448 179.538 215.026 177.862 214.181 176.673C213.336 175.485 212.147 174.89 210.615 174.89C209.096 174.89 207.922 175.485 207.091 176.673C206.26 177.848 205.845 179.674 205.845 182.152ZM242.991 193.539H236.761V170.292H242.991V193.539ZM236.396 164.277C236.396 163.346 236.704 162.58 237.32 161.978C237.95 161.376 238.802 161.076 239.876 161.076C240.936 161.076 241.781 161.376 242.411 161.978C243.042 162.58 243.357 163.346 243.357 164.277C243.357 165.222 243.034 165.996 242.39 166.597C241.76 167.199 240.922 167.5 239.876 167.5C238.831 167.5 237.986 167.199 237.341 166.597C236.711 165.996 236.396 165.222 236.396 164.277ZM253.841 170.292L254.034 172.978C255.696 170.901 257.923 169.863 260.716 169.863C263.18 169.863 265.013 170.586 266.216 172.033C267.419 173.479 268.035 175.642 268.064 178.521V193.539H261.855V178.671C261.855 177.354 261.568 176.401 260.995 175.814C260.422 175.212 259.47 174.912 258.138 174.912C256.391 174.912 255.08 175.656 254.206 177.146V193.539H247.997V170.292H253.841ZM282.458 188.962C283.604 188.962 284.535 188.647 285.251 188.017C285.967 187.387 286.34 186.549 286.368 185.503H292.191C292.176 187.079 291.747 188.526 290.902 189.843C290.057 191.147 288.896 192.164 287.421 192.894C285.96 193.61 284.342 193.968 282.566 193.968C279.243 193.968 276.622 192.916 274.702 190.81C272.783 188.69 271.823 185.768 271.823 182.044V181.636C271.823 178.056 272.776 175.198 274.681 173.064C276.586 170.93 279.2 169.863 282.523 169.863C285.43 169.863 287.758 170.694 289.505 172.355C291.267 174.002 292.162 176.201 292.191 178.951H286.368C286.34 177.748 285.967 176.774 285.251 176.029C284.535 175.27 283.59 174.89 282.415 174.89C280.969 174.89 279.873 175.42 279.128 176.48C278.398 177.526 278.032 179.23 278.032 181.593V182.238C278.032 184.63 278.398 186.348 279.128 187.394C279.859 188.44 280.969 188.962 282.458 188.962ZM308.798 176.115C307.953 176 307.208 175.943 306.564 175.943C304.215 175.943 302.675 176.738 301.945 178.328V193.539H295.736V170.292H301.601L301.773 173.064C303.019 170.93 304.745 169.863 306.95 169.863C307.638 169.863 308.282 169.956 308.884 170.142L308.798 176.115ZM318.509 193.539H312.3V170.292H318.509V193.539ZM316.683 160.861H323.45L317.499 167.521H312.45L316.683 160.861ZM332.581 185.955L336.9 170.292H343.388L335.546 193.539H329.616L321.775 170.292H328.263L332.581 185.955ZM356.536 193.968C353.128 193.968 350.349 192.923 348.2 190.832C346.066 188.74 344.999 185.955 344.999 182.474V181.873C344.999 179.538 345.45 177.454 346.353 175.621C347.255 173.773 348.53 172.355 350.177 171.367C351.838 170.364 353.729 169.863 355.849 169.863C359.029 169.863 361.528 170.865 363.347 172.871C365.18 174.876 366.097 177.719 366.097 181.4V183.935H351.294C351.495 185.453 352.096 186.671 353.099 187.587C354.116 188.504 355.398 188.962 356.945 188.962C359.337 188.962 361.206 188.096 362.552 186.363L365.603 189.779C364.672 191.097 363.411 192.128 361.822 192.873C360.232 193.603 358.47 193.968 356.536 193.968ZM355.827 174.89C354.596 174.89 353.593 175.306 352.82 176.136C352.06 176.967 351.573 178.156 351.359 179.703H359.995V179.208C359.967 177.833 359.594 176.774 358.878 176.029C358.162 175.27 357.145 174.89 355.827 174.89ZM376.195 193.539H369.964V160.539H376.195V193.539ZM401.954 188.962C403.1 188.962 404.031 188.647 404.747 188.017C405.463 187.387 405.836 186.549 405.865 185.503H411.687C411.672 187.079 411.243 188.526 410.398 189.843C409.553 191.147 408.392 192.164 406.917 192.894C405.456 193.61 403.838 193.968 402.062 193.968C398.739 193.968 396.118 192.916 394.198 190.81C392.279 188.69 391.32 185.768 391.32 182.044V181.636C391.32 178.056 392.272 175.198 394.177 173.064C396.082 170.93 398.696 169.863 402.019 169.863C404.926 169.863 407.254 170.694 409.001 172.355C410.763 174.002 411.658 176.201 411.687 178.951H405.865C405.836 177.748 405.463 176.774 404.747 176.029C404.031 175.27 403.086 174.89 401.911 174.89C400.465 174.89 399.369 175.42 398.624 176.48C397.894 177.526 397.529 179.23 397.529 181.593V182.238C397.529 184.63 397.894 186.348 398.624 187.394C399.355 188.44 400.465 188.962 401.954 188.962ZM414.265 181.701C414.265 179.395 414.709 177.339 415.597 175.535C416.485 173.73 417.76 172.333 419.421 171.345C421.097 170.357 423.038 169.863 425.243 169.863C428.38 169.863 430.937 170.822 432.913 172.742C434.904 174.661 436.014 177.268 436.243 180.562L436.286 182.152C436.286 185.718 435.291 188.583 433.3 190.746C431.309 192.894 428.638 193.968 425.286 193.968C421.935 193.968 419.256 192.894 417.251 190.746C415.26 188.597 414.265 185.675 414.265 181.98V181.701ZM420.474 182.152C420.474 184.358 420.889 186.048 421.72 187.222C422.551 188.382 423.74 188.962 425.286 188.962C426.79 188.962 427.965 188.389 428.81 187.244C429.655 186.083 430.077 184.236 430.077 181.701C430.077 179.538 429.655 177.862 428.81 176.673C427.965 175.485 426.776 174.89 425.243 174.89C423.725 174.89 422.551 175.485 421.72 176.673C420.889 177.848 420.474 179.674 420.474 182.152ZM445.933 170.292L446.126 172.892C447.773 170.873 450.001 169.863 452.808 169.863C455.801 169.863 457.857 171.044 458.974 173.408C460.607 171.044 462.934 169.863 465.956 169.863C468.477 169.863 470.353 170.6 471.585 172.076C472.817 173.537 473.433 175.742 473.433 178.693V193.539H467.202V178.714C467.202 177.397 466.945 176.437 466.429 175.835C465.913 175.22 465.004 174.912 463.7 174.912C461.838 174.912 460.549 175.8 459.833 177.576L459.855 193.539H453.646V178.736C453.646 177.389 453.381 176.416 452.851 175.814C452.321 175.212 451.419 174.912 450.144 174.912C448.382 174.912 447.107 175.642 446.32 177.103V193.539H440.111V170.292H445.933ZM477.257 181.701C477.257 179.395 477.701 177.339 478.589 175.535C479.477 173.73 480.752 172.333 482.413 171.345C484.089 170.357 486.03 169.863 488.236 169.863C491.372 169.863 493.929 170.822 495.906 172.742C497.896 174.661 499.006 177.268 499.236 180.562L499.279 182.152C499.279 185.718 498.283 188.583 496.292 190.746C494.301 192.894 491.63 193.968 488.279 193.968C484.927 193.968 482.249 192.894 480.243 190.746C478.253 188.597 477.257 185.675 477.257 181.98V181.701ZM483.466 182.152C483.466 184.358 483.881 186.048 484.712 187.222C485.543 188.382 486.732 188.962 488.279 188.962C489.782 188.962 490.957 188.389 491.802 187.244C492.647 186.083 493.07 184.236 493.07 181.701C493.07 179.538 492.647 177.862 491.802 176.673C490.957 175.485 489.768 174.89 488.236 174.89C486.717 174.89 485.543 175.485 484.712 176.673C483.881 177.848 483.466 179.674 483.466 182.152ZM527.531 193.539C527.244 192.98 527.036 192.285 526.907 191.455C525.404 193.13 523.448 193.968 521.042 193.968C518.765 193.968 516.874 193.309 515.37 191.992C513.881 190.674 513.136 189.013 513.136 187.007C513.136 184.544 514.045 182.653 515.865 181.335C517.698 180.018 520.34 179.352 523.792 179.337H526.65V178.005C526.65 176.931 526.37 176.072 525.812 175.427C525.267 174.783 524.401 174.46 523.212 174.46C522.167 174.46 521.343 174.711 520.741 175.212C520.154 175.714 519.861 176.401 519.861 177.275H513.652C513.652 175.929 514.067 174.682 514.898 173.537C515.728 172.391 516.903 171.496 518.421 170.851C519.939 170.192 521.644 169.863 523.534 169.863C526.399 169.863 528.669 170.586 530.345 172.033C532.035 173.465 532.88 175.485 532.88 178.091V188.167C532.894 190.373 533.202 192.042 533.804 193.173V193.539H527.531ZM522.396 189.22C523.312 189.22 524.157 189.02 524.931 188.619C525.704 188.203 526.277 187.652 526.65 186.964V182.968H524.329C521.221 182.968 519.567 184.042 519.366 186.191L519.345 186.556C519.345 187.33 519.617 187.967 520.161 188.468C520.706 188.97 521.45 189.22 522.396 189.22ZM556.04 164.578V170.292H560.015V174.847H556.04V186.449C556.04 187.308 556.205 187.924 556.534 188.296C556.864 188.669 557.494 188.855 558.425 188.855C559.113 188.855 559.721 188.805 560.251 188.705V193.41C559.034 193.782 557.781 193.968 556.491 193.968C552.137 193.968 549.917 191.77 549.831 187.373V174.847H546.437V170.292H549.831V164.578H556.04ZM574.173 193.968C570.764 193.968 567.986 192.923 565.837 190.832C563.703 188.74 562.636 185.955 562.636 182.474V181.873C562.636 179.538 563.087 177.454 563.99 175.621C564.892 173.773 566.167 172.355 567.814 171.367C569.475 170.364 571.366 169.863 573.486 169.863C576.665 169.863 579.165 170.865 580.984 172.871C582.817 174.876 583.734 177.719 583.734 181.4V183.935H568.931C569.131 185.453 569.733 186.671 570.736 187.587C571.753 188.504 573.034 188.962 574.581 188.962C576.973 188.962 578.842 188.096 580.189 186.363L583.24 189.779C582.309 191.097 581.048 192.128 579.458 192.873C577.868 193.603 576.107 193.968 574.173 193.968ZM573.464 174.89C572.232 174.89 571.23 175.306 570.456 176.136C569.697 176.967 569.21 178.156 568.995 179.703H577.632V179.208C577.603 177.833 577.231 176.774 576.515 176.029C575.799 175.27 574.782 174.89 573.464 174.89ZM596.947 188.962C598.092 188.962 599.023 188.647 599.74 188.017C600.456 187.387 600.828 186.549 600.857 185.503H606.679C606.665 187.079 606.235 188.526 605.39 189.843C604.545 191.147 603.385 192.164 601.909 192.894C600.448 193.61 598.83 193.968 597.054 193.968C593.731 193.968 591.11 192.916 589.191 190.81C587.271 188.69 586.312 185.768 586.312 182.044V181.636C586.312 178.056 587.264 175.198 589.169 173.064C591.074 170.93 593.688 169.863 597.011 169.863C599.919 169.863 602.246 170.694 603.993 172.355C605.755 174.002 606.65 176.201 606.679 178.951H600.857C600.828 177.748 600.456 176.774 599.74 176.029C599.023 175.27 598.078 174.89 596.904 174.89C595.457 174.89 594.361 175.42 593.616 176.48C592.886 177.526 592.521 179.23 592.521 181.593V182.238C592.521 184.63 592.886 186.348 593.616 187.394C594.347 188.44 595.457 188.962 596.947 188.962ZM615.939 170.292L616.132 172.978C617.794 170.901 620.021 169.863 622.814 169.863C625.277 169.863 627.111 170.586 628.314 172.033C629.517 173.479 630.133 175.642 630.161 178.521V193.539H623.952V178.671C623.952 177.354 623.666 176.401 623.093 175.814C622.52 175.212 621.568 174.912 620.236 174.912C618.488 174.912 617.178 175.656 616.304 177.146V193.539H610.095V170.292H615.939ZM633.921 181.701C633.921 179.395 634.365 177.339 635.253 175.535C636.141 173.73 637.416 172.333 639.077 171.345C640.753 170.357 642.694 169.863 644.9 169.863C648.036 169.863 650.593 170.822 652.57 172.742C654.56 174.661 655.67 177.268 655.9 180.562L655.943 182.152C655.943 185.718 654.947 188.583 652.956 190.746C650.965 192.894 648.294 193.968 644.943 193.968C641.591 193.968 638.913 192.894 636.907 190.746C634.917 188.597 633.921 185.675 633.921 181.98V181.701ZM640.13 182.152C640.13 184.358 640.545 186.048 641.376 187.222C642.207 188.382 643.396 188.962 644.943 188.962C646.447 188.962 647.621 188.389 648.466 187.244C649.311 186.083 649.734 184.236 649.734 181.701C649.734 179.538 649.311 177.862 648.466 176.673C647.621 175.485 646.432 174.89 644.9 174.89C643.381 174.89 642.207 175.485 641.376 176.673C640.545 177.848 640.13 179.674 640.13 182.152ZM666.32 193.539H660.089V160.539H666.32V193.539ZM670.488 181.701C670.488 179.395 670.932 177.339 671.82 175.535C672.708 173.73 673.982 172.333 675.644 171.345C677.32 170.357 679.26 169.863 681.466 169.863C684.603 169.863 687.159 170.822 689.136 172.742C691.127 174.661 692.237 177.268 692.466 180.562L692.509 182.152C692.509 185.718 691.514 188.583 689.523 190.746C687.532 192.894 684.861 193.968 681.509 193.968C678.157 193.968 675.479 192.894 673.474 190.746C671.483 188.597 670.488 185.675 670.488 181.98V181.701ZM676.697 182.152C676.697 184.358 677.112 186.048 677.943 187.222C678.773 188.382 679.962 188.962 681.509 188.962C683.013 188.962 684.187 188.389 685.032 187.244C685.878 186.083 686.3 184.236 686.3 181.701C686.3 179.538 685.878 177.862 685.032 176.673C684.187 175.485 682.999 174.89 681.466 174.89C679.948 174.89 678.773 175.485 677.943 176.673C677.112 177.848 676.697 179.674 676.697 182.152ZM695.431 181.744C695.431 178.177 696.276 175.306 697.966 173.128C699.67 170.951 701.962 169.863 704.841 169.863C707.391 169.863 709.374 170.736 710.792 172.484L711.05 170.292H716.679V192.765C716.679 194.799 716.213 196.568 715.282 198.072C714.366 199.576 713.07 200.722 711.394 201.509C709.718 202.297 707.756 202.691 705.507 202.691C703.803 202.691 702.141 202.347 700.523 201.66C698.904 200.986 697.68 200.113 696.849 199.039L699.599 195.257C701.146 196.99 703.022 197.857 705.228 197.857C706.875 197.857 708.157 197.413 709.073 196.525C709.99 195.651 710.448 194.405 710.448 192.787V191.541C709.016 193.159 707.133 193.968 704.798 193.968C702.005 193.968 699.742 192.88 698.009 190.703C696.29 188.511 695.431 185.611 695.431 182.001V181.744ZM701.64 182.195C701.64 184.3 702.062 185.955 702.907 187.158C703.753 188.347 704.913 188.941 706.388 188.941C708.279 188.941 709.632 188.232 710.448 186.814V177.039C709.618 175.621 708.279 174.912 706.431 174.912C704.941 174.912 703.767 175.52 702.907 176.738C702.062 177.955 701.64 179.774 701.64 182.195ZM728.023 193.539H721.792V170.292H728.023V193.539ZM721.427 164.277C721.427 163.346 721.735 162.58 722.351 161.978C722.981 161.376 723.833 161.076 724.907 161.076C725.967 161.076 726.812 161.376 727.443 161.978C728.073 162.58 728.388 163.346 728.388 164.277C728.388 165.222 728.066 165.996 727.421 166.597C726.791 167.199 725.953 167.5 724.907 167.5C723.862 167.5 723.017 167.199 722.372 166.597C721.742 165.996 721.427 165.222 721.427 164.277ZM746.628 193.539C746.342 192.98 746.134 192.285 746.005 191.455C744.501 193.13 742.546 193.968 740.14 193.968C737.863 193.968 735.972 193.309 734.468 191.992C732.978 190.674 732.234 189.013 732.234 187.007C732.234 184.544 733.143 182.653 734.962 181.335C736.795 180.018 739.438 179.352 742.89 179.337H745.747V178.005C745.747 176.931 745.468 176.072 744.909 175.427C744.365 174.783 743.499 174.46 742.31 174.46C741.264 174.46 740.441 174.711 739.839 175.212C739.252 175.714 738.958 176.401 738.958 177.275H732.749C732.749 175.929 733.165 174.682 733.995 173.537C734.826 172.391 736.001 171.496 737.519 170.851C739.037 170.192 740.741 169.863 742.632 169.863C745.497 169.863 747.767 170.586 749.443 172.033C751.133 173.465 751.978 175.485 751.978 178.091V188.167C751.992 190.373 752.3 192.042 752.902 193.173V193.539H746.628ZM741.493 189.22C742.41 189.22 743.255 189.02 744.029 188.619C744.802 188.203 745.375 187.652 745.747 186.964V182.968H743.427C740.319 182.968 738.665 184.042 738.464 186.191L738.443 186.556C738.443 187.33 738.715 187.967 739.259 188.468C739.803 188.97 740.548 189.22 741.493 189.22ZM780.294 187.115C780.294 186.356 779.915 185.761 779.156 185.332C778.411 184.888 777.208 184.494 775.546 184.15C770.017 182.99 767.253 180.641 767.253 177.103C767.253 175.041 768.105 173.322 769.81 171.947C771.529 170.557 773.77 169.863 776.534 169.863C779.485 169.863 781.841 170.557 783.603 171.947C785.379 173.336 786.267 175.141 786.267 177.361H780.058C780.058 176.473 779.771 175.742 779.198 175.169C778.626 174.582 777.73 174.289 776.513 174.289C775.467 174.289 774.658 174.525 774.085 174.998C773.512 175.47 773.226 176.072 773.226 176.802C773.226 177.49 773.548 178.048 774.193 178.478C774.851 178.893 775.954 179.259 777.501 179.574C779.048 179.875 780.351 180.218 781.411 180.605C784.691 181.808 786.331 183.892 786.331 186.857C786.331 188.977 785.422 190.695 783.603 192.013C781.784 193.317 779.435 193.968 776.556 193.968C774.608 193.968 772.875 193.625 771.357 192.937C769.853 192.235 768.671 191.283 767.812 190.08C766.952 188.862 766.523 187.552 766.523 186.148H772.409C772.467 187.251 772.875 188.096 773.634 188.683C774.393 189.27 775.41 189.564 776.685 189.564C777.874 189.564 778.769 189.342 779.37 188.898C779.986 188.44 780.294 187.845 780.294 187.115ZM801.048 193.968C797.639 193.968 794.861 192.923 792.712 190.832C790.578 188.74 789.511 185.955 789.511 182.474V181.873C789.511 179.538 789.962 177.454 790.865 175.621C791.767 173.773 793.042 172.355 794.689 171.367C796.35 170.364 798.241 169.863 800.361 169.863C803.54 169.863 806.04 170.865 807.859 172.871C809.692 174.876 810.609 177.719 810.609 181.4V183.935H795.806C796.006 185.453 796.608 186.671 797.611 187.587C798.628 188.504 799.909 188.962 801.456 188.962C803.848 188.962 805.717 188.096 807.064 186.363L810.115 189.779C809.184 191.097 807.923 192.128 806.333 192.873C804.743 193.603 802.982 193.968 801.048 193.968ZM800.339 174.89C799.107 174.89 798.105 175.306 797.331 176.136C796.572 176.967 796.085 178.156 795.87 179.703H804.507V179.208C804.478 177.833 804.106 176.774 803.39 176.029C802.674 175.27 801.657 174.89 800.339 174.89ZM180.536 240.962C181.682 240.962 182.613 240.647 183.329 240.017C184.045 239.387 184.418 238.549 184.447 237.503H190.269C190.254 239.079 189.825 240.526 188.98 241.843C188.135 243.147 186.975 244.164 185.499 244.894C184.038 245.61 182.42 245.968 180.644 245.968C177.321 245.968 174.7 244.916 172.781 242.81C170.861 240.69 169.902 237.768 169.902 234.044V233.636C169.902 230.056 170.854 227.198 172.759 225.064C174.664 222.93 177.278 221.863 180.601 221.863C183.508 221.863 185.836 222.694 187.583 224.355C189.345 226.002 190.24 228.201 190.269 230.951H184.447C184.418 229.748 184.045 228.774 183.329 228.029C182.613 227.27 181.668 226.89 180.493 226.89C179.047 226.89 177.951 227.42 177.206 228.48C176.476 229.526 176.111 231.23 176.111 233.593V234.238C176.111 236.63 176.476 238.348 177.206 239.394C177.937 240.44 179.047 240.962 180.536 240.962ZM192.847 233.701C192.847 231.395 193.291 229.339 194.179 227.535C195.067 225.73 196.342 224.333 198.003 223.345C199.679 222.357 201.62 221.863 203.825 221.863C206.962 221.863 209.519 222.822 211.495 224.742C213.486 226.661 214.596 229.268 214.825 232.562L214.868 234.152C214.868 237.718 213.873 240.583 211.882 242.746C209.891 244.894 207.22 245.968 203.868 245.968C200.517 245.968 197.838 244.894 195.833 242.746C193.842 240.597 192.847 237.675 192.847 233.98V233.701ZM199.056 234.152C199.056 236.358 199.471 238.048 200.302 239.222C201.133 240.382 202.322 240.962 203.868 240.962C205.372 240.962 206.547 240.389 207.392 239.244C208.237 238.083 208.659 236.236 208.659 233.701C208.659 231.538 208.237 229.862 207.392 228.673C206.547 227.485 205.358 226.89 203.825 226.89C202.307 226.89 201.133 227.485 200.302 228.673C199.471 229.848 199.056 231.674 199.056 234.152ZM224.407 222.292L224.601 224.978C226.262 222.901 228.49 221.863 231.282 221.863C233.746 221.863 235.579 222.586 236.782 224.033C237.986 225.479 238.601 227.642 238.63 230.521V245.539H232.421V230.671C232.421 229.354 232.135 228.401 231.562 227.814C230.989 227.212 230.036 226.912 228.704 226.912C226.957 226.912 225.646 227.656 224.773 229.146V245.539H218.564V222.292H224.407ZM254.056 245.968C250.647 245.968 247.868 244.923 245.72 242.832C243.586 240.74 242.519 237.955 242.519 234.474V233.873C242.519 231.538 242.97 229.454 243.872 227.621C244.775 225.773 246.049 224.355 247.697 223.367C249.358 222.364 251.249 221.863 253.368 221.863C256.548 221.863 259.047 222.865 260.866 224.871C262.7 226.876 263.616 229.719 263.616 233.4V235.935H248.814C249.014 237.453 249.616 238.671 250.618 239.587C251.635 240.504 252.917 240.962 254.464 240.962C256.856 240.962 258.725 240.096 260.072 238.363L263.122 241.779C262.191 243.097 260.931 244.128 259.341 244.873C257.751 245.603 255.99 245.968 254.056 245.968ZM253.347 226.89C252.115 226.89 251.113 227.306 250.339 228.136C249.58 228.967 249.093 230.156 248.878 231.703H257.515V231.208C257.486 229.833 257.114 228.774 256.398 228.029C255.682 227.27 254.665 226.89 253.347 226.89ZM276.829 240.962C277.975 240.962 278.906 240.647 279.622 240.017C280.338 239.387 280.711 238.549 280.74 237.503H286.562C286.547 239.079 286.118 240.526 285.273 241.843C284.428 243.147 283.267 244.164 281.792 244.894C280.331 245.61 278.713 245.968 276.937 245.968C273.614 245.968 270.993 244.916 269.073 242.81C267.154 240.69 266.195 237.768 266.195 234.044V233.636C266.195 230.056 267.147 227.198 269.052 225.064C270.957 222.93 273.571 221.863 276.894 221.863C279.801 221.863 282.129 222.694 283.876 224.355C285.638 226.002 286.533 228.201 286.562 230.951H280.74C280.711 229.748 280.338 228.774 279.622 228.029C278.906 227.27 277.961 226.89 276.786 226.89C275.34 226.89 274.244 227.42 273.499 228.48C272.769 229.526 272.404 231.23 272.404 233.593V234.238C272.404 236.63 272.769 238.348 273.499 239.394C274.23 240.44 275.34 240.962 276.829 240.962ZM297.54 216.578V222.292H301.515V226.847H297.54V238.449C297.54 239.308 297.705 239.924 298.034 240.296C298.364 240.669 298.994 240.855 299.925 240.855C300.613 240.855 301.221 240.805 301.751 240.705V245.41C300.534 245.782 299.281 245.968 297.991 245.968C293.637 245.968 291.417 243.77 291.331 239.373V226.847H287.937V222.292H291.331V216.578H297.54ZM318.445 245.539C318.158 244.98 317.95 244.285 317.822 243.455C316.318 245.13 314.363 245.968 311.956 245.968C309.679 245.968 307.788 245.309 306.284 243.992C304.795 242.674 304.05 241.013 304.05 239.007C304.05 236.544 304.96 234.653 306.779 233.335C308.612 232.018 311.254 231.352 314.706 231.337H317.564V230.005C317.564 228.931 317.284 228.072 316.726 227.427C316.182 226.783 315.315 226.46 314.126 226.46C313.081 226.46 312.257 226.711 311.656 227.212C311.068 227.714 310.775 228.401 310.775 229.275H304.566C304.566 227.929 304.981 226.682 305.812 225.537C306.642 224.391 307.817 223.496 309.335 222.851C310.853 222.192 312.558 221.863 314.448 221.863C317.313 221.863 319.583 222.586 321.259 224.033C322.949 225.465 323.794 227.485 323.794 230.091V240.167C323.809 242.373 324.116 244.042 324.718 245.173V245.539H318.445ZM313.31 241.22C314.226 241.22 315.072 241.02 315.845 240.619C316.618 240.203 317.191 239.652 317.564 238.964V234.968H315.243C312.135 234.968 310.481 236.042 310.281 238.191L310.259 238.556C310.259 239.33 310.531 239.967 311.075 240.468C311.62 240.97 312.365 241.22 313.31 241.22ZM360.447 234.13C360.447 237.711 359.63 240.583 357.997 242.746C356.379 244.894 354.187 245.968 351.423 245.968C349.074 245.968 347.176 245.152 345.73 243.519V254.476H339.521V222.292H345.279L345.493 224.57C346.997 222.765 348.96 221.863 351.38 221.863C354.245 221.863 356.472 222.923 358.062 225.042C359.652 227.162 360.447 230.084 360.447 233.808V234.13ZM354.238 233.679C354.238 231.516 353.851 229.848 353.077 228.673C352.318 227.499 351.208 226.912 349.747 226.912C347.799 226.912 346.46 227.656 345.73 229.146V238.664C346.489 240.196 347.842 240.962 349.79 240.962C352.755 240.962 354.238 238.535 354.238 233.679ZM377.784 245.539C377.498 244.98 377.29 244.285 377.161 243.455C375.657 245.13 373.702 245.968 371.296 245.968C369.019 245.968 367.128 245.309 365.624 243.992C364.135 242.674 363.39 241.013 363.39 239.007C363.39 236.544 364.299 234.653 366.118 233.335C367.952 232.018 370.594 231.352 374.046 231.337H376.904V230.005C376.904 228.931 376.624 228.072 376.066 227.427C375.521 226.783 374.655 226.46 373.466 226.46C372.42 226.46 371.597 226.711 370.995 227.212C370.408 227.714 370.115 228.401 370.115 229.275H363.906C363.906 227.929 364.321 226.682 365.152 225.537C365.982 224.391 367.157 223.496 368.675 222.851C370.193 222.192 371.898 221.863 373.788 221.863C376.653 221.863 378.923 222.586 380.599 224.033C382.289 225.465 383.134 227.485 383.134 230.091V240.167C383.148 242.373 383.456 244.042 384.058 245.173V245.539H377.784ZM372.65 241.22C373.566 241.22 374.411 241.02 375.185 240.619C375.958 240.203 376.531 239.652 376.904 238.964V234.968H374.583C371.475 234.968 369.821 236.042 369.62 238.191L369.599 238.556C369.599 239.33 369.871 239.967 370.415 240.468C370.96 240.97 371.704 241.22 372.65 241.22ZM400.966 228.115C400.121 228 399.376 227.943 398.732 227.943C396.383 227.943 394.843 228.738 394.113 230.328V245.539H387.904V222.292H393.769L393.941 225.064C395.187 222.93 396.913 221.863 399.118 221.863C399.806 221.863 400.45 221.956 401.052 222.142L400.966 228.115ZM416.8 245.539C416.514 244.98 416.306 244.285 416.177 243.455C414.673 245.13 412.718 245.968 410.312 245.968C408.034 245.968 406.144 245.309 404.64 243.992C403.15 242.674 402.406 241.013 402.406 239.007C402.406 236.544 403.315 234.653 405.134 233.335C406.967 232.018 409.61 231.352 413.062 231.337H415.919V230.005C415.919 228.931 415.64 228.072 415.081 227.427C414.537 226.783 413.67 226.46 412.482 226.46C411.436 226.46 410.613 226.711 410.011 227.212C409.424 227.714 409.13 228.401 409.13 229.275H402.921C402.921 227.929 403.337 226.682 404.167 225.537C404.998 224.391 406.172 223.496 407.691 222.851C409.209 222.192 410.913 221.863 412.804 221.863C415.669 221.863 417.939 222.586 419.615 224.033C421.305 225.465 422.15 227.485 422.15 230.091V240.167C422.164 242.373 422.472 244.042 423.073 245.173V245.539H416.8ZM411.665 241.22C412.582 241.22 413.427 241.02 414.2 240.619C414.974 240.203 415.547 239.652 415.919 238.964V234.968H413.599C410.491 234.968 408.837 236.042 408.636 238.191L408.615 238.556C408.615 239.33 408.887 239.967 409.431 240.468C409.975 240.97 410.72 241.22 411.665 241.22ZM447.544 240.962C448.69 240.962 449.621 240.647 450.337 240.017C451.053 239.387 451.426 238.549 451.454 237.503H457.277C457.262 239.079 456.833 240.526 455.988 241.843C455.142 243.147 453.982 244.164 452.507 244.894C451.046 245.61 449.428 245.968 447.652 245.968C444.329 245.968 441.708 244.916 439.788 242.81C437.869 240.69 436.909 237.768 436.909 234.044V233.636C436.909 230.056 437.862 227.198 439.767 225.064C441.672 222.93 444.286 221.863 447.609 221.863C450.516 221.863 452.844 222.694 454.591 224.355C456.353 226.002 457.248 228.201 457.277 230.951H451.454C451.426 229.748 451.053 228.774 450.337 228.029C449.621 227.27 448.676 226.89 447.501 226.89C446.055 226.89 444.959 227.42 444.214 228.48C443.484 229.526 443.118 231.23 443.118 233.593V234.238C443.118 236.63 443.484 238.348 444.214 239.394C444.945 240.44 446.055 240.962 447.544 240.962ZM473.884 228.115C473.039 228 472.294 227.943 471.65 227.943C469.301 227.943 467.761 228.738 467.031 230.328V245.539H460.822V222.292H466.687L466.859 225.064C468.105 222.93 469.831 221.863 472.036 221.863C472.724 221.863 473.368 221.956 473.97 222.142L473.884 228.115ZM483.445 245.539H477.214V222.292H483.445V245.539ZM476.849 216.277C476.849 215.346 477.157 214.58 477.773 213.978C478.403 213.376 479.255 213.076 480.329 213.076C481.389 213.076 482.234 213.376 482.865 213.978C483.495 214.58 483.81 215.346 483.81 216.277C483.81 217.222 483.488 217.996 482.843 218.597C482.213 219.199 481.375 219.5 480.329 219.5C479.284 219.5 478.439 219.199 477.794 218.597C477.164 217.996 476.849 217.222 476.849 216.277ZM502.05 245.539C501.764 244.98 501.556 244.285 501.427 243.455C499.923 245.13 497.968 245.968 495.562 245.968C493.284 245.968 491.394 245.309 489.89 243.992C488.4 242.674 487.656 241.013 487.656 239.007C487.656 236.544 488.565 234.653 490.384 233.335C492.217 232.018 494.86 231.352 498.312 231.337H501.169V230.005C501.169 228.931 500.89 228.072 500.331 227.427C499.787 226.783 498.92 226.46 497.732 226.46C496.686 226.46 495.863 226.711 495.261 227.212C494.674 227.714 494.38 228.401 494.38 229.275H488.171C488.171 227.929 488.587 226.682 489.417 225.537C490.248 224.391 491.422 223.496 492.941 222.851C494.459 222.192 496.163 221.863 498.054 221.863C500.919 221.863 503.189 222.586 504.865 224.033C506.555 225.465 507.4 227.485 507.4 230.091V240.167C507.414 242.373 507.722 244.042 508.323 245.173V245.539H502.05ZM496.915 241.22C497.832 241.22 498.677 241.02 499.45 240.619C500.224 240.203 500.797 239.652 501.169 238.964V234.968H498.849C495.741 234.968 494.087 236.042 493.886 238.191L493.865 238.556C493.865 239.33 494.137 239.967 494.681 240.468C495.225 240.97 495.97 241.22 496.915 241.22ZM525.232 228.115C524.387 228 523.642 227.943 522.997 227.943C520.648 227.943 519.109 228.738 518.378 230.328V245.539H512.169V222.292H518.034L518.206 225.064C519.452 222.93 521.178 221.863 523.384 221.863C524.072 221.863 524.716 221.956 525.318 222.142L525.232 228.115ZM548.865 240.962C550.01 240.962 550.941 240.647 551.657 240.017C552.374 239.387 552.746 238.549 552.775 237.503H558.597C558.583 239.079 558.153 240.526 557.308 241.843C556.463 243.147 555.303 244.164 553.827 244.894C552.366 245.61 550.748 245.968 548.972 245.968C545.649 245.968 543.028 244.916 541.109 242.81C539.189 240.69 538.23 237.768 538.23 234.044V233.636C538.23 230.056 539.182 227.198 541.087 225.064C542.992 222.93 545.606 221.863 548.929 221.863C551.837 221.863 554.164 222.694 555.911 224.355C557.673 226.002 558.568 228.201 558.597 230.951H552.775C552.746 229.748 552.374 228.774 551.657 228.029C550.941 227.27 549.996 226.89 548.822 226.89C547.375 226.89 546.279 227.42 545.534 228.48C544.804 229.526 544.439 231.23 544.439 233.593V234.238C544.439 236.63 544.804 238.348 545.534 239.394C546.265 240.44 547.375 240.962 548.865 240.962ZM561.175 233.701C561.175 231.395 561.619 229.339 562.507 227.535C563.395 225.73 564.67 224.333 566.331 223.345C568.007 222.357 569.948 221.863 572.154 221.863C575.29 221.863 577.847 222.822 579.823 224.742C581.814 226.661 582.924 229.268 583.154 232.562L583.197 234.152C583.197 237.718 582.201 240.583 580.21 242.746C578.219 244.894 575.548 245.968 572.197 245.968C568.845 245.968 566.167 244.894 564.161 242.746C562.17 240.597 561.175 237.675 561.175 233.98V233.701ZM567.384 234.152C567.384 236.358 567.799 238.048 568.63 239.222C569.461 240.382 570.65 240.962 572.197 240.962C573.7 240.962 574.875 240.389 575.72 239.244C576.565 238.083 576.988 236.236 576.988 233.701C576.988 231.538 576.565 229.862 575.72 228.673C574.875 227.485 573.686 226.89 572.154 226.89C570.635 226.89 569.461 227.485 568.63 228.673C567.799 229.848 567.384 231.674 567.384 234.152ZM593.573 245.539H587.343V222.292H593.573V245.539ZM586.978 216.277C586.978 215.346 587.286 214.58 587.902 213.978C588.532 213.376 589.384 213.076 590.458 213.076C591.518 213.076 592.363 213.376 592.993 213.978C593.624 214.58 593.939 215.346 593.939 216.277C593.939 217.222 593.616 217.996 592.972 218.597C592.342 219.199 591.504 219.5 590.458 219.5C589.413 219.5 588.568 219.199 587.923 218.597C587.293 217.996 586.978 217.222 586.978 216.277ZM611.298 239.115C611.298 238.356 610.919 237.761 610.159 237.332C609.415 236.888 608.212 236.494 606.55 236.15C601.021 234.99 598.257 232.641 598.257 229.103C598.257 227.041 599.109 225.322 600.814 223.947C602.532 222.557 604.774 221.863 607.538 221.863C610.489 221.863 612.845 222.557 614.607 223.947C616.383 225.336 617.271 227.141 617.271 229.361H611.062C611.062 228.473 610.775 227.742 610.202 227.169C609.629 226.582 608.734 226.289 607.517 226.289C606.471 226.289 605.662 226.525 605.089 226.998C604.516 227.47 604.23 228.072 604.23 228.802C604.23 229.49 604.552 230.048 605.197 230.478C605.855 230.893 606.958 231.259 608.505 231.574C610.052 231.875 611.355 232.218 612.415 232.605C615.695 233.808 617.335 235.892 617.335 238.857C617.335 240.977 616.426 242.695 614.607 244.013C612.788 245.317 610.439 245.968 607.56 245.968C605.612 245.968 603.879 245.625 602.361 244.937C600.857 244.235 599.675 243.283 598.816 242.08C597.956 240.862 597.527 239.552 597.527 238.148H603.413C603.471 239.251 603.879 240.096 604.638 240.683C605.397 241.27 606.414 241.564 607.689 241.564C608.878 241.564 609.773 241.342 610.374 240.898C610.99 240.44 611.298 239.845 611.298 239.115ZM634.823 245.539C634.537 244.98 634.329 244.285 634.2 243.455C632.697 245.13 630.741 245.968 628.335 245.968C626.058 245.968 624.167 245.309 622.663 243.992C621.174 242.674 620.429 241.013 620.429 239.007C620.429 236.544 621.338 234.653 623.157 233.335C624.991 232.018 627.633 231.352 631.085 231.337H633.943V230.005C633.943 228.931 633.663 228.072 633.105 227.427C632.56 226.783 631.694 226.46 630.505 226.46C629.46 226.46 628.636 226.711 628.034 227.212C627.447 227.714 627.154 228.401 627.154 229.275H620.945C620.945 227.929 621.36 226.682 622.191 225.537C623.021 224.391 624.196 223.496 625.714 222.851C627.232 222.192 628.937 221.863 630.827 221.863C633.692 221.863 635.962 222.586 637.638 224.033C639.328 225.465 640.173 227.485 640.173 230.091V240.167C640.187 242.373 640.495 244.042 641.097 245.173V245.539H634.823ZM629.689 241.22C630.605 241.22 631.45 241.02 632.224 240.619C632.997 240.203 633.57 239.652 633.943 238.964V234.968H631.622C628.514 234.968 626.86 236.042 626.659 238.191L626.638 238.556C626.638 239.33 626.91 239.967 627.454 240.468C627.999 240.97 628.743 241.22 629.689 241.22ZM657.532 239.115C657.532 238.356 657.153 237.761 656.394 237.332C655.649 236.888 654.446 236.494 652.784 236.15C647.256 234.99 644.491 232.641 644.491 229.103C644.491 227.041 645.344 225.322 647.048 223.947C648.767 222.557 651.008 221.863 653.773 221.863C656.723 221.863 659.079 222.557 660.841 223.947C662.617 225.336 663.505 227.141 663.505 229.361H657.296C657.296 228.473 657.01 227.742 656.437 227.169C655.864 226.582 654.969 226.289 653.751 226.289C652.706 226.289 651.896 226.525 651.323 226.998C650.751 227.47 650.464 228.072 650.464 228.802C650.464 229.49 650.786 230.048 651.431 230.478C652.09 230.893 653.193 231.259 654.74 231.574C656.286 231.875 657.59 232.218 658.65 232.605C661.93 233.808 663.57 235.892 663.57 238.857C663.57 240.977 662.66 242.695 660.841 244.013C659.022 245.317 656.673 245.968 653.794 245.968C651.846 245.968 650.113 245.625 648.595 244.937C647.091 244.235 645.909 243.283 645.05 242.08C644.191 240.862 643.761 239.552 643.761 238.148H649.648C649.705 239.251 650.113 240.096 650.872 240.683C651.631 241.27 652.648 241.564 653.923 241.564C655.112 241.564 656.007 241.342 656.609 240.898C657.225 240.44 657.532 239.845 657.532 239.115ZM677.577 233.701C677.577 230.048 678.387 227.162 680.005 225.042C681.638 222.923 683.872 221.863 686.708 221.863C689.2 221.863 691.184 222.815 692.659 224.72L693.068 222.292H698.525V254.476H692.294V243.541C690.862 245.159 688.986 245.968 686.665 245.968C683.901 245.968 681.695 244.894 680.048 242.746C678.401 240.597 677.577 237.582 677.577 233.701ZM683.786 234.152C683.786 236.372 684.173 238.062 684.947 239.222C685.734 240.382 686.837 240.962 688.255 240.962C690.16 240.962 691.506 240.203 692.294 238.685V229.082C691.521 227.621 690.189 226.89 688.298 226.89C686.866 226.89 685.756 227.47 684.968 228.63C684.18 229.791 683.786 231.631 683.786 234.152ZM717.345 243.175C715.812 245.037 713.693 245.968 710.986 245.968C708.493 245.968 706.588 245.252 705.271 243.82C703.967 242.388 703.301 240.289 703.273 237.525V222.292H709.482V237.31C709.482 239.731 710.585 240.941 712.79 240.941C714.896 240.941 716.342 240.21 717.13 238.75V222.292H723.361V245.539H717.517L717.345 243.175ZM738.743 245.968C735.335 245.968 732.556 244.923 730.407 242.832C728.273 240.74 727.206 237.955 727.206 234.474V233.873C727.206 231.538 727.657 229.454 728.56 227.621C729.462 225.773 730.737 224.355 732.384 223.367C734.045 222.364 735.936 221.863 738.056 221.863C741.236 221.863 743.735 222.865 745.554 224.871C747.387 226.876 748.304 229.719 748.304 233.4V235.935H733.501C733.702 237.453 734.303 238.671 735.306 239.587C736.323 240.504 737.605 240.962 739.152 240.962C741.544 240.962 743.413 240.096 744.759 238.363L747.81 241.779C746.879 243.097 745.618 244.128 744.029 244.873C742.439 245.603 740.677 245.968 738.743 245.968ZM738.034 226.89C736.803 226.89 735.8 227.306 735.027 228.136C734.267 228.967 733.781 230.156 733.566 231.703H742.202V231.208C742.174 229.833 741.801 228.774 741.085 228.029C740.369 227.27 739.352 226.89 738.034 226.89ZM271.609 286.13C271.609 289.711 270.792 292.583 269.159 294.746C267.541 296.894 265.35 297.968 262.585 297.968C260.236 297.968 258.338 297.152 256.892 295.519V306.476H250.683V274.292H256.441L256.656 276.57C258.159 274.765 260.122 273.863 262.542 273.863C265.407 273.863 267.634 274.923 269.224 277.042C270.814 279.162 271.609 282.084 271.609 285.808V286.13ZM265.4 285.679C265.4 283.516 265.013 281.848 264.24 280.673C263.48 279.499 262.37 278.912 260.909 278.912C258.962 278.912 257.622 279.656 256.892 281.146V290.664C257.651 292.196 259.004 292.962 260.952 292.962C263.917 292.962 265.4 290.535 265.4 285.679ZM288.947 297.539C288.66 296.98 288.452 296.285 288.323 295.455C286.82 297.13 284.865 297.968 282.458 297.968C280.181 297.968 278.29 297.309 276.786 295.992C275.297 294.674 274.552 293.013 274.552 291.007C274.552 288.544 275.462 286.653 277.281 285.335C279.114 284.018 281.756 283.352 285.208 283.337H288.066V282.005C288.066 280.931 287.786 280.072 287.228 279.427C286.684 278.783 285.817 278.46 284.628 278.46C283.583 278.46 282.759 278.711 282.157 279.212C281.57 279.714 281.277 280.401 281.277 281.275H275.068C275.068 279.929 275.483 278.682 276.314 277.537C277.144 276.391 278.319 275.496 279.837 274.851C281.355 274.192 283.06 273.863 284.95 273.863C287.815 273.863 290.085 274.586 291.761 276.033C293.451 277.465 294.296 279.485 294.296 282.091V292.167C294.31 294.373 294.618 296.042 295.22 297.173V297.539H288.947ZM283.812 293.22C284.728 293.22 285.573 293.02 286.347 292.619C287.12 292.203 287.693 291.652 288.066 290.964V286.968H285.745C282.637 286.968 280.983 288.042 280.782 290.191L280.761 290.556C280.761 291.33 281.033 291.967 281.577 292.468C282.122 292.97 282.866 293.22 283.812 293.22ZM312.128 280.115C311.283 280 310.538 279.943 309.894 279.943C307.545 279.943 306.005 280.738 305.275 282.328V297.539H299.066V274.292H304.931L305.103 277.064C306.349 274.93 308.075 273.863 310.281 273.863C310.968 273.863 311.613 273.956 312.214 274.142L312.128 280.115ZM325.406 297.968C321.997 297.968 319.218 296.923 317.07 294.832C314.935 292.74 313.868 289.955 313.868 286.474V285.873C313.868 283.538 314.32 281.454 315.222 279.621C316.124 277.773 317.399 276.355 319.046 275.367C320.708 274.364 322.598 273.863 324.718 273.863C327.898 273.863 330.397 274.865 332.216 276.871C334.049 278.876 334.966 281.719 334.966 285.4V287.935H320.163C320.364 289.453 320.965 290.671 321.968 291.587C322.985 292.504 324.267 292.962 325.814 292.962C328.206 292.962 330.075 292.096 331.421 290.363L334.472 293.779C333.541 295.097 332.281 296.128 330.691 296.873C329.101 297.603 327.339 297.968 325.406 297.968ZM324.697 278.89C323.465 278.89 322.462 279.306 321.689 280.136C320.93 280.967 320.443 282.156 320.228 283.703H328.865V283.208C328.836 281.833 328.463 280.774 327.747 280.029C327.031 279.27 326.014 278.89 324.697 278.89ZM348.179 292.962C349.325 292.962 350.256 292.647 350.972 292.017C351.688 291.387 352.06 290.549 352.089 289.503H357.911C357.897 291.079 357.467 292.526 356.622 293.843C355.777 295.147 354.617 296.164 353.142 296.894C351.681 297.61 350.062 297.968 348.286 297.968C344.963 297.968 342.342 296.916 340.423 294.81C338.504 292.69 337.544 289.768 337.544 286.044V285.636C337.544 282.056 338.497 279.198 340.402 277.064C342.307 274.93 344.92 273.863 348.243 273.863C351.151 273.863 353.478 274.694 355.226 276.355C356.988 278.002 357.883 280.201 357.911 282.951H352.089C352.06 281.748 351.688 280.774 350.972 280.029C350.256 279.27 349.31 278.89 348.136 278.89C346.689 278.89 345.594 279.42 344.849 280.48C344.118 281.526 343.753 283.23 343.753 285.593V286.238C343.753 288.63 344.118 290.348 344.849 291.394C345.579 292.44 346.689 292.962 348.179 292.962ZM372.156 297.968C368.747 297.968 365.968 296.923 363.82 294.832C361.685 292.74 360.618 289.955 360.618 286.474V285.873C360.618 283.538 361.07 281.454 361.972 279.621C362.874 277.773 364.149 276.355 365.796 275.367C367.458 274.364 369.348 273.863 371.468 273.863C374.648 273.863 377.147 274.865 378.966 276.871C380.799 278.876 381.716 281.719 381.716 285.4V287.935H366.913C367.114 289.453 367.715 290.671 368.718 291.587C369.735 292.504 371.017 292.962 372.564 292.962C374.956 292.962 376.825 292.096 378.171 290.363L381.222 293.779C380.291 295.097 379.031 296.128 377.441 296.873C375.851 297.603 374.089 297.968 372.156 297.968ZM371.447 278.89C370.215 278.89 369.212 279.306 368.439 280.136C367.68 280.967 367.193 282.156 366.978 283.703H375.615V283.208C375.586 281.833 375.213 280.774 374.497 280.029C373.781 279.27 372.764 278.89 371.447 278.89ZM391.083 274.292L391.277 276.892C392.924 274.873 395.151 273.863 397.958 273.863C400.952 273.863 403.007 275.044 404.124 277.408C405.757 275.044 408.085 273.863 411.107 273.863C413.628 273.863 415.504 274.6 416.736 276.076C417.967 277.537 418.583 279.742 418.583 282.693V297.539H412.353V282.714C412.353 281.397 412.095 280.437 411.579 279.835C411.064 279.22 410.154 278.912 408.851 278.912C406.989 278.912 405.7 279.8 404.984 281.576L405.005 297.539H398.796V282.736C398.796 281.389 398.531 280.416 398.001 279.814C397.471 279.212 396.569 278.912 395.294 278.912C393.532 278.912 392.258 279.642 391.47 281.103V297.539H385.261V274.292H391.083ZM441.765 268.578V274.292H445.74V278.847H441.765V290.449C441.765 291.308 441.93 291.924 442.259 292.296C442.588 292.669 443.219 292.855 444.15 292.855C444.837 292.855 445.446 292.805 445.976 292.705V297.41C444.758 297.782 443.505 297.968 442.216 297.968C437.862 297.968 435.642 295.77 435.556 291.373V278.847H432.161V274.292H435.556V268.578H441.765ZM462.669 297.539C462.383 296.98 462.175 296.285 462.046 295.455C460.542 297.13 458.587 297.968 456.181 297.968C453.904 297.968 452.013 297.309 450.509 295.992C449.019 294.674 448.275 293.013 448.275 291.007C448.275 288.544 449.184 286.653 451.003 285.335C452.837 284.018 455.479 283.352 458.931 283.337H461.788V282.005C461.788 280.931 461.509 280.072 460.95 279.427C460.406 278.783 459.54 278.46 458.351 278.46C457.305 278.46 456.482 278.711 455.88 279.212C455.293 279.714 454.999 280.401 454.999 281.275H448.79C448.79 279.929 449.206 278.682 450.036 277.537C450.867 276.391 452.042 275.496 453.56 274.851C455.078 274.192 456.782 273.863 458.673 273.863C461.538 273.863 463.808 274.586 465.484 276.033C467.174 277.465 468.019 279.485 468.019 282.091V292.167C468.033 294.373 468.341 296.042 468.943 297.173V297.539H462.669ZM457.534 293.22C458.451 293.22 459.296 293.02 460.07 292.619C460.843 292.203 461.416 291.652 461.788 290.964V286.968H459.468C456.36 286.968 454.706 288.042 454.505 290.191L454.484 290.556C454.484 291.33 454.756 291.967 455.3 292.468C455.844 292.97 456.589 293.22 457.534 293.22ZM466.73 264.818C466.73 266.436 466.257 267.797 465.312 268.9C464.366 269.988 463.213 270.533 461.853 270.533C461.309 270.533 460.822 270.475 460.392 270.361C459.976 270.232 459.396 269.967 458.652 269.566C457.907 269.165 457.37 268.921 457.04 268.835C456.711 268.735 456.353 268.685 455.966 268.685C455.465 268.685 455.035 268.864 454.677 269.222C454.333 269.58 454.161 270.089 454.161 270.748L450.552 270.533C450.552 268.943 451.017 267.589 451.948 266.472C452.894 265.355 454.047 264.796 455.407 264.796C455.837 264.796 456.238 264.854 456.611 264.968C456.997 265.069 457.62 265.326 458.48 265.742C459.339 266.157 459.934 266.408 460.263 266.494C460.592 266.58 460.936 266.623 461.294 266.623C461.795 266.623 462.225 266.451 462.583 266.107C462.956 265.749 463.142 265.24 463.142 264.582L466.73 264.818ZM471.822 285.701C471.822 283.395 472.266 281.339 473.154 279.535C474.042 277.73 475.316 276.333 476.978 275.345C478.654 274.357 480.594 273.863 482.8 273.863C485.937 273.863 488.493 274.822 490.47 276.742C492.461 278.661 493.571 281.268 493.8 284.562L493.843 286.152C493.843 289.718 492.848 292.583 490.857 294.746C488.866 296.894 486.195 297.968 482.843 297.968C479.491 297.968 476.813 296.894 474.808 294.746C472.817 292.597 471.822 289.675 471.822 285.98V285.701ZM478.031 286.152C478.031 288.358 478.446 290.048 479.277 291.222C480.107 292.382 481.296 292.962 482.843 292.962C484.347 292.962 485.521 292.389 486.366 291.244C487.212 290.083 487.634 288.236 487.634 285.701C487.634 283.538 487.212 281.862 486.366 280.673C485.521 279.485 484.333 278.89 482.8 278.89C481.282 278.89 480.107 279.485 479.277 280.673C478.446 281.848 478.031 283.674 478.031 286.152ZM507.657 285.744C507.657 282.12 508.467 279.234 510.085 277.085C511.718 274.937 513.945 273.863 516.767 273.863C519.03 273.863 520.899 274.708 522.374 276.398V264.539H528.605V297.539H522.997L522.697 295.068C521.15 297.001 519.159 297.968 516.724 297.968C513.988 297.968 511.79 296.894 510.128 294.746C508.481 292.583 507.657 289.582 507.657 285.744ZM513.866 286.195C513.866 288.372 514.246 290.041 515.005 291.201C515.764 292.361 516.867 292.941 518.314 292.941C520.233 292.941 521.587 292.132 522.374 290.513V281.339C521.601 279.721 520.262 278.912 518.357 278.912C515.363 278.912 513.866 281.339 513.866 286.195ZM539.97 297.539H533.74V274.292H539.97V297.539ZM533.374 268.277C533.374 267.346 533.682 266.58 534.298 265.978C534.928 265.376 535.781 265.076 536.855 265.076C537.915 265.076 538.76 265.376 539.39 265.978C540.02 266.58 540.335 267.346 540.335 268.277C540.335 269.222 540.013 269.996 539.368 270.597C538.738 271.199 537.9 271.5 536.855 271.5C535.809 271.5 534.964 271.199 534.32 270.597C533.689 269.996 533.374 269.222 533.374 268.277ZM546.802 297.539V278.847H543.343V274.292H546.802V272.316C546.802 269.709 547.547 267.69 549.036 266.257C550.54 264.811 552.639 264.087 555.331 264.087C556.191 264.087 557.243 264.231 558.49 264.517L558.425 269.33C557.909 269.201 557.279 269.136 556.534 269.136C554.2 269.136 553.032 270.232 553.032 272.423V274.292H557.652V278.847H553.032V297.539H546.802ZM567.577 297.539H561.368V274.292H567.577V297.539ZM565.751 264.861H572.519L566.568 271.521H561.519L565.751 264.861ZM582.616 292.962C583.762 292.962 584.693 292.647 585.409 292.017C586.126 291.387 586.498 290.549 586.527 289.503H592.349C592.335 291.079 591.905 292.526 591.06 293.843C590.215 295.147 589.055 296.164 587.579 296.894C586.118 297.61 584.5 297.968 582.724 297.968C579.401 297.968 576.78 296.916 574.861 294.81C572.941 292.69 571.982 289.768 571.982 286.044V285.636C571.982 282.056 572.934 279.198 574.839 277.064C576.744 274.93 579.358 273.863 582.681 273.863C585.588 273.863 587.916 274.694 589.663 276.355C591.425 278.002 592.32 280.201 592.349 282.951H586.527C586.498 281.748 586.126 280.774 585.409 280.029C584.693 279.27 583.748 278.89 582.573 278.89C581.127 278.89 580.031 279.42 579.286 280.48C578.556 281.526 578.191 283.23 578.191 285.593V286.238C578.191 288.63 578.556 290.348 579.286 291.394C580.017 292.44 581.127 292.962 582.616 292.962ZM606.593 297.968C603.184 297.968 600.406 296.923 598.257 294.832C596.123 292.74 595.056 289.955 595.056 286.474V285.873C595.056 283.538 595.507 281.454 596.409 279.621C597.312 277.773 598.587 276.355 600.234 275.367C601.895 274.364 603.786 273.863 605.906 273.863C609.085 273.863 611.585 274.865 613.404 276.871C615.237 278.876 616.154 281.719 616.154 285.4V287.935H601.351C601.551 289.453 602.153 290.671 603.156 291.587C604.172 292.504 605.454 292.962 607.001 292.962C609.393 292.962 611.262 292.096 612.609 290.363L615.659 293.779C614.728 295.097 613.468 296.128 611.878 296.873C610.288 297.603 608.527 297.968 606.593 297.968ZM605.884 278.89C604.652 278.89 603.65 279.306 602.876 280.136C602.117 280.967 601.63 282.156 601.415 283.703H610.052V283.208C610.023 281.833 609.651 280.774 608.935 280.029C608.219 279.27 607.202 278.89 605.884 278.89ZM626.251 297.539H620.021V274.292H626.251V297.539ZM619.656 268.277C619.656 267.346 619.963 266.58 620.579 265.978C621.21 265.376 622.062 265.076 623.136 265.076C624.196 265.076 625.041 265.376 625.671 265.978C626.301 266.58 626.616 267.346 626.616 268.277C626.616 269.222 626.294 269.996 625.65 270.597C625.019 271.199 624.182 271.5 623.136 271.5C622.09 271.5 621.245 271.199 620.601 270.597C619.971 269.996 619.656 269.222 619.656 268.277ZM643.976 291.115C643.976 290.356 643.596 289.761 642.837 289.332C642.092 288.888 640.889 288.494 639.228 288.15C633.699 286.99 630.935 284.641 630.935 281.103C630.935 279.041 631.787 277.322 633.491 275.947C635.21 274.557 637.452 273.863 640.216 273.863C643.167 273.863 645.523 274.557 647.284 275.947C649.06 277.336 649.948 279.141 649.948 281.361H643.74C643.74 280.473 643.453 279.742 642.88 279.169C642.307 278.582 641.412 278.289 640.195 278.289C639.149 278.289 638.34 278.525 637.767 278.998C637.194 279.47 636.907 280.072 636.907 280.802C636.907 281.49 637.23 282.048 637.874 282.478C638.533 282.893 639.636 283.259 641.183 283.574C642.73 283.875 644.033 284.218 645.093 284.605C648.373 285.808 650.013 287.892 650.013 290.857C650.013 292.977 649.103 294.695 647.284 296.013C645.465 297.317 643.116 297.968 640.238 297.968C638.29 297.968 636.557 297.625 635.038 296.937C633.534 296.235 632.353 295.283 631.493 294.08C630.634 292.862 630.204 291.552 630.204 290.148H636.091C636.148 291.251 636.557 292.096 637.316 292.683C638.075 293.27 639.092 293.564 640.366 293.564C641.555 293.564 642.45 293.342 643.052 292.898C643.668 292.44 643.976 291.845 643.976 291.115ZM656.115 275.861L653.193 274.164C654.424 272.23 655.062 270.232 655.105 268.169V264.539H660.046V267.869C660.046 269.158 659.688 270.554 658.972 272.058C658.256 273.562 657.303 274.83 656.115 275.861ZM663.57 275.861L660.648 274.164C661.879 272.23 662.517 270.232 662.56 268.169V264.539H667.501V267.869C667.501 269.158 667.143 270.554 666.427 272.058C665.711 273.562 664.758 274.83 663.57 275.861Z" fill="#E8EEF1"/>
</svg>
